<svg width="67" height="64" viewBox="0 0 67 64" fill="none" xmlns="http://www.w3.org/2000/svg">
<g clip-path="url(#clip0)">
<g clip-path="url(#clip1)">
<path d="M60.2086 31.5597C58.5667 32.1714 56.767 32.3768 54.9266 32.3768C54.0651 32.3768 53.2216 32.2946 52.3916 32.1759C52.315 32.2672 52.2428 32.3676 52.1436 32.4452L50.3528 33.81C49.771 34.2528 48.9771 34.271 48.3772 33.8557L45.9188 32.144C45.2242 31.6601 45.0438 31.0028 45.4182 30.2406C45.5039 30.0625 45.5806 29.7019 45.2242 29.4783C40.2084 26.3333 36.9652 20.6231 36.9652 14.2054C36.9652 10.5264 38.0568 7.10752 39.9197 4.25013C40.3076 3.65218 39.9963 2.85338 39.3198 2.65254C36.1127 1.69399 32.6891 1.2421 29.1347 1.41556C13.6225 2.1687 0.920493 14.8946 0.0499352 30.592C-0.94241 48.5215 13.1309 63.379 30.6322 63.379C47.5517 63.379 61.2641 49.4983 61.2641 32.3813C61.2686 31.9842 61.0025 31.263 60.2086 31.5597Z" fill="#B97850"/>
<path d="M12.675 32.3766C12.675 17.4552 23.0946 4.99858 36.9694 2.04533C34.9261 1.6117 32.806 1.37891 30.6319 1.37891C13.7169 1.37891 0 15.2596 0 32.3766C0 49.4982 13.7169 63.3743 30.6319 63.3743C32.806 63.3743 34.9261 63.1416 36.9694 62.7079C23.0946 59.7547 12.675 47.2981 12.675 32.3766Z" fill="#A5694B"/>
<path d="M57.6148 4.8525L56.5638 8.0431C56.23 9.05186 56.6811 10.1565 57.6238 10.6312L60.9617 12.3201C61.7736 12.7309 62.757 12.5711 63.402 11.9184L65.3822 9.91456C66.0678 9.22075 66.1986 8.14352 65.6979 7.30365L63.9929 4.42799C63.6095 3.7844 62.9238 3.39185 62.1796 3.39185H59.6175C58.7064 3.39185 57.899 3.98067 57.6148 4.8525Z" fill="#734B46"/>
<path d="M13.7349 17.4369L14.7363 20.6458C15.052 21.6591 16.0579 22.2844 17.0954 22.111L20.7761 21.4948C21.6737 21.3441 22.3773 20.6321 22.5172 19.7237L22.9592 16.9211C23.1126 15.9534 22.5939 15.004 21.7007 14.616L18.6515 13.3014C17.9704 13.0047 17.1856 13.096 16.5811 13.5342L14.5062 15.0542C13.7755 15.6065 13.4598 16.5605 13.7349 17.4369Z" fill="#734B46"/>
<path d="M37.673 14.2645L34.9982 16.2637C34.1547 16.8982 33.8976 18.0622 34.3938 18.9979L36.1665 22.3209C36.5995 23.1288 37.4926 23.5716 38.3902 23.4118L41.1507 22.9234C42.107 22.7545 42.8242 21.9511 42.8919 20.9698L43.1309 17.624C43.185 16.8754 42.8467 16.1542 42.2378 15.7206L40.1403 14.228C39.3961 13.703 38.4037 13.7167 37.673 14.2645Z" fill="#734B46"/>
<path d="M5.0745 35.5628L5.77365 38.16C5.99467 38.9816 6.77502 39.5111 7.60949 39.4061L10.5685 39.0364C11.2902 38.9451 11.8721 38.3974 12.0164 37.6762L12.4585 35.4532C12.6118 34.6864 12.2284 33.9104 11.5293 33.5726L9.13409 32.4224C8.59732 32.1668 7.96583 32.2124 7.47417 32.5411L5.76914 33.6913C5.16471 34.0976 4.88505 34.8507 5.0745 35.5628Z" fill="#734B46"/>
<path d="M45.8148 44.08L42.5761 43.3223C41.5522 43.0849 40.5102 43.6418 40.1313 44.6369L38.7872 48.1607C38.4579 49.0188 38.7105 49.9956 39.4141 50.5799L41.5747 52.3874C42.3235 53.0128 43.3925 53.0402 44.1729 52.4605L46.8387 50.4703C47.4341 50.023 47.7589 49.2927 47.6867 48.5487L47.4431 45.9651C47.3574 45.0431 46.7034 44.2854 45.8148 44.08Z" fill="#734B46"/>
<path d="M25.986 50.6485L24.2314 48.6309C23.6766 47.9919 22.7428 47.8641 22.0437 48.3297L19.5538 49.9821C18.9449 50.3837 18.6607 51.1369 18.8456 51.8444L19.4185 54.0353C19.617 54.7931 20.2981 55.318 21.0694 55.3043L23.7126 55.2678C24.3035 55.2586 24.8493 54.9391 25.147 54.4188L26.1755 52.6295C26.5453 51.9996 26.4687 51.1962 25.986 50.6485Z" fill="#734B46"/>
<path d="M17.0277 20.6505L16.0264 17.4416C15.7512 16.5652 16.067 15.6066 16.8022 15.068L18.8771 13.548C18.9222 13.5161 18.9718 13.4978 19.0169 13.4704L18.6516 13.3107C17.9705 13.014 17.1856 13.1053 16.5812 13.548L14.5063 15.068C13.771 15.6066 13.4553 16.5652 13.7305 17.4416L14.7318 20.6505C15.0476 21.6638 16.0534 22.2891 17.0909 22.1157L18.1554 21.9377C17.6322 21.6912 17.2127 21.2393 17.0277 20.6505Z" fill="#644141"/>
<path d="M38.4579 22.3209L36.6852 18.9979C36.1845 18.0622 36.4416 16.8982 37.2896 16.2637L39.9644 14.2645C40.0005 14.2371 40.0456 14.228 40.0817 14.2051C39.3465 13.7167 38.3857 13.735 37.673 14.2645L34.9982 16.2637C34.1547 16.8982 33.8976 18.0622 34.3938 18.9979L36.1665 22.3209C36.5995 23.1288 37.4926 23.5715 38.3902 23.4118L39.4051 23.2338C39.0127 23.0421 38.6789 22.7317 38.4579 22.3209Z" fill="#644141"/>
<path d="M43.8662 52.3829L41.7056 50.5753C41.0064 49.9911 40.7538 49.0142 41.0786 48.1561L42.4228 44.6323C42.6122 44.1348 42.9685 43.7468 43.4061 43.514L42.5761 43.3223C41.5522 43.0849 40.5102 43.6418 40.1313 44.6369L38.7872 48.1607C38.4579 49.0188 38.7105 49.9911 39.4141 50.5799L41.5747 52.3874C42.2919 52.9899 43.3068 53.0219 44.0782 52.5107C44.006 52.4605 43.9293 52.4331 43.8662 52.3829Z" fill="#644141"/>
<path d="M59.9152 10.6358C58.977 10.161 58.5214 9.05643 58.8552 8.04767L59.9062 4.8525C60.1949 3.98067 61.0023 3.39185 61.909 3.39185H59.6175C58.7064 3.39185 57.899 3.98067 57.6148 4.8525L56.5638 8.04767C56.23 9.05643 56.6811 10.161 57.6238 10.6358L60.9617 12.3246C61.6293 12.6624 62.4051 12.5939 63.0186 12.206L59.9152 10.6358Z" fill="#644141"/>
<path d="M8.06507 38.16L7.36591 35.5628C7.17647 34.8507 7.45613 34.0976 8.06056 33.6913L9.60771 32.6506L9.13409 32.4224C8.59732 32.1668 7.96583 32.2124 7.47417 32.5411L5.76914 33.6913C5.16471 34.0976 4.88505 34.8507 5.0745 35.5628L5.77365 38.16C5.99467 38.9816 6.77502 39.5111 7.60949 39.4061L8.98524 39.2327C8.55222 39.0273 8.20039 38.6575 8.06507 38.16Z" fill="#644141"/>
<path d="M21.7099 54.0352L21.1371 51.8442C20.9521 51.1322 21.2363 50.3836 21.8452 49.9819L24.0735 48.503C23.5097 47.9963 22.6842 47.905 22.0437 48.3295L19.5538 49.9819C18.9449 50.3836 18.6607 51.1367 18.8456 51.8442L19.4185 54.0352C19.617 54.7929 20.2981 55.3178 21.0694 55.3041L23.1804 55.2768C22.4857 55.2083 21.8903 54.729 21.7099 54.0352Z" fill="#644141"/>
<path d="M28.5211 24.8954C27.9392 24.8954 27.4656 24.4162 27.4656 23.8273V21.6911C27.4656 21.1023 27.9392 20.623 28.5211 20.623C29.1029 20.623 29.5766 21.1023 29.5766 21.6911V23.8273C29.5766 24.4162 29.1029 24.8954 28.5211 24.8954Z" fill="#C98850"/>
<path d="M19.4499 29.615C19.0394 30.0304 18.3674 30.0304 17.9569 29.615L16.4639 28.1041C16.0534 27.6888 16.0534 27.0086 16.4639 26.5933C16.8743 26.1779 17.5464 26.1779 17.9569 26.5933L19.4499 28.1041C19.8649 28.5195 19.8649 29.195 19.4499 29.615Z" fill="#925F4A"/>
<path d="M19.2921 43.9888C18.7508 43.7697 18.4847 43.149 18.6967 42.6012L19.4725 40.6111C19.689 40.0633 20.3025 39.794 20.8437 40.0086C21.385 40.2277 21.6511 40.8484 21.4391 41.3962L20.6633 43.3863C20.4513 43.9341 19.8379 44.2034 19.2921 43.9888Z" fill="#C98850"/>
<path d="M31.7594 47.0698C31.1911 47.2067 30.6228 46.8552 30.4874 46.2801L29.9958 44.2032C29.8605 43.6281 30.2078 43.053 30.7761 42.916C31.3445 42.7791 31.9128 43.1306 32.0481 43.7057L32.5398 45.7826C32.6751 46.3577 32.3233 46.9328 31.7594 47.0698Z" fill="#925F4A"/>
<path d="M34.9351 56.2994C34.714 55.7517 34.9757 55.1309 35.5124 54.9072L37.47 54.0993C38.0113 53.8757 38.6248 54.1404 38.8458 54.6836C39.0668 55.2313 38.8052 55.8521 38.2684 56.0758L36.3108 56.8837C35.774 57.1073 35.1561 56.8426 34.9351 56.2994Z" fill="#925F4A"/>
<path d="M28.769 9.9601C28.9043 9.38497 29.4771 9.0335 30.0455 9.17044L32.0978 9.67254C32.6662 9.80947 33.0135 10.3892 32.8782 10.9643C32.7429 11.5394 32.17 11.8909 31.6017 11.754L29.5493 11.2519C28.981 11.1104 28.6336 10.5352 28.769 9.9601Z" fill="#925F4A"/>
<path d="M9.49952 48.2248C8.94922 48.0285 8.66505 47.4168 8.85901 46.86L9.56718 44.847C9.76114 44.2901 10.3656 44.0026 10.9159 44.1988C11.4662 44.3951 11.7503 45.0068 11.5564 45.5636L10.8482 47.5766C10.6497 48.1335 10.0453 48.4256 9.49952 48.2248Z" fill="#925F4A"/>
<path d="M7.97938 23.0696C8.54773 22.9281 9.11607 23.2842 9.2559 23.8547L9.75658 25.9316C9.89641 26.5067 9.54458 27.0818 8.98075 27.2233C8.41241 27.3648 7.84406 27.0088 7.70423 26.4382L7.20355 24.3614C7.06823 23.7863 7.41555 23.2066 7.97938 23.0696Z" fill="#C98850"/>
<path d="M38.318 29.6972C37.894 30.0989 37.2219 30.0761 36.8249 29.647L35.3815 28.086C34.9846 27.6569 35.0072 26.9768 35.4312 26.5751C35.8552 26.1734 36.5272 26.1963 36.9242 26.6253L38.3676 28.1864C38.7645 28.6155 38.742 29.291 38.318 29.6972Z" fill="#925F4A"/>
<path d="M51.6335 36.9685C52.044 36.5531 52.7161 36.5531 53.1265 36.9685L54.6196 38.4794C55.03 38.8947 55.03 39.5749 54.6196 39.9902C54.2091 40.4056 53.537 40.4056 53.1265 39.9902L51.6335 38.4794C51.2185 38.0594 51.2185 37.3839 51.6335 36.9685Z" fill="#925F4A"/>
<path d="M51.9086 45.4449C52.4499 45.6686 52.707 46.2939 52.486 46.8416L51.6831 48.8181C51.4621 49.3658 50.8441 49.626 50.3028 49.4023C49.7615 49.1787 49.5044 48.5533 49.7254 48.0056L50.5283 46.0292C50.7494 45.4814 51.3673 45.2212 51.9086 45.4449Z" fill="#C98850"/>
<path d="M50.7224 19.3404L51.4396 22.9692C51.5524 23.5352 52.0846 23.9095 52.6485 23.8137L56.9787 23.0833C57.538 22.9875 57.9214 22.4671 57.8538 21.8966L57.1366 16.0813C57.0373 15.2917 56.1578 14.8854 55.5037 15.3236L51.178 18.2449C50.8171 18.4823 50.6412 18.9159 50.7224 19.3404Z" fill="#B97850"/>
<path d="M47.4794 14.826L55.0753 11.4117C55.585 11.1835 55.8331 10.5901 55.6346 10.0606L53.1718 3.41465C52.9733 2.87603 52.3869 2.59303 51.8502 2.77561L46.9426 4.43254C46.6494 4.53296 46.4103 4.75662 46.2976 5.04875L44.5249 9.53568C44.4256 9.7913 44.4256 10.0743 44.5249 10.3299L46.072 14.2463C46.293 14.8077 46.9336 15.0725 47.4794 14.826Z" fill="#B97850"/>
<path d="M46.1846 19.5503H47.3033C47.9708 19.5503 48.4715 20.1665 48.3407 20.8284L47.8445 23.3297C47.6957 24.0737 46.8477 24.4298 46.2207 24.0098L45.0344 23.211C44.6375 22.9417 44.4661 22.4396 44.6194 21.9832L45.1787 20.2806C45.3231 19.847 45.729 19.5503 46.1846 19.5503Z" fill="#A5694B"/>
<path d="M49.6489 28.1043V28.296C49.6489 28.8072 50.0053 29.2454 50.4969 29.3458L53.6679 29.9894C54.322 30.1218 54.9309 29.6151 54.9309 28.9396V28.1043C54.9309 27.5154 54.4573 27.0362 53.8754 27.0362H50.7044C50.118 27.0316 49.6489 27.5109 49.6489 28.1043Z" fill="#A5694B"/>
<path d="M48.1018 13.5344L46.5547 9.61799C46.4554 9.36237 46.4554 9.07937 46.5547 8.82376L48.3274 4.33683C48.4266 4.08121 48.6341 3.8895 48.8777 3.77539L46.9426 4.42812C46.6494 4.52854 46.4103 4.7522 46.2976 5.04433L44.5249 9.53126C44.4256 9.78688 44.4256 10.0699 44.5249 10.3255L46.072 14.2419C46.293 14.8033 46.9336 15.068 47.4839 14.8216L48.9318 14.1734C48.5709 14.1186 48.2462 13.8995 48.1018 13.5344Z" fill="#A5694B"/>
<path d="M53.2664 22.7546L52.3733 18.2357C52.3102 17.9162 52.3778 17.6013 52.5267 17.3274L51.1735 18.2403C50.8171 18.4822 50.6412 18.9158 50.7224 19.3403L51.4396 22.9692C51.5524 23.5352 52.0846 23.9094 52.6485 23.8136L53.8483 23.6127C53.5596 23.421 53.3386 23.1243 53.2664 22.7546Z" fill="#A5694B"/>
<path d="M41.8183 36.3935C41.277 36.3935 40.835 35.9507 40.835 35.3984V33.746C40.835 33.1983 41.2725 32.751 41.8183 32.751C42.3596 32.751 42.8016 33.1937 42.8016 33.746V35.3984C42.8016 35.9461 42.3596 36.3935 41.8183 36.3935Z" fill="#353535"/>
<path d="M20.6904 36.3935C20.1491 36.3935 19.707 35.9507 19.707 35.3984V33.746C19.707 33.1983 20.1446 32.751 20.6904 32.751C21.2316 32.751 21.6737 33.1937 21.6737 33.746V35.3984C21.6737 35.9461 21.2361 36.3935 20.6904 36.3935Z" fill="#353535"/>
<path d="M31.2362 34.4034C32.5082 34.3852 33.7847 34.7868 34.8537 35.6039C35.2868 35.9371 35.3725 36.5579 35.0432 36.9961C34.7184 37.4343 34.1005 37.521 33.6674 37.1878C32.2421 36.0969 30.2664 36.1243 28.8681 37.2471C28.4441 37.5895 27.8261 37.5164 27.4878 37.0874C27.1495 36.6583 27.2217 36.033 27.6457 35.6906C28.6967 34.8553 29.9642 34.4217 31.2362 34.4034Z" fill="#353535"/>
</g>
</g>
<defs>
<clipPath id="clip0">
<rect width="67" height="63" fill="white" transform="translate(0 0.378906)"/>
</clipPath>
<clipPath id="clip1">
<rect width="66" height="62" fill="white" transform="translate(0 1.37891)"/>
</clipPath>
</defs>
</svg>
