<svg width="109" height="27" viewBox="0 0 109 27" fill="none" xmlns="http://www.w3.org/2000/svg">
<path d="M14.1441 21.73C14.9607 21.73 15.6841 21.66 16.3141 21.52C16.9441 21.38 17.5391 21.1933 18.0991 20.96V17.0925H15.5791C15.2057 17.0925 14.9141 16.9933 14.7041 16.795C14.4941 16.5967 14.3891 16.3458 14.3891 16.0425V12.7875H23.4541V23.55C22.8007 24.0283 22.1182 24.4425 21.4066 24.7925C20.7066 25.1308 19.9541 25.4108 19.1491 25.6325C18.3557 25.8542 17.5041 26.0175 16.5941 26.1225C15.6957 26.2275 14.7274 26.28 13.6891 26.28C11.8224 26.28 10.0957 25.9533 8.50906 25.3C6.9224 24.635 5.54573 23.725 4.37906 22.57C3.22406 21.4033 2.31406 20.0267 1.64906 18.44C0.995729 16.8417 0.669063 15.1092 0.669063 13.2425C0.669063 11.3408 0.984063 9.59667 1.61406 8.01C2.24406 6.41167 3.1424 5.035 4.30906 3.88C5.4874 2.725 6.9049 1.82667 8.56156 1.185C10.2299 0.543332 12.0907 0.222499 14.1441 0.222499C15.2057 0.222499 16.2032 0.309999 17.1366 0.484999C18.0699 0.659999 18.9274 0.899165 19.7091 1.2025C20.5024 1.50583 21.2257 1.8675 21.8791 2.2875C22.5324 2.7075 23.1157 3.1625 23.6291 3.6525L21.9141 6.26C21.7507 6.505 21.5524 6.6975 21.3191 6.8375C21.0974 6.9775 20.8524 7.0475 20.5841 7.0475C20.2341 7.0475 19.8724 6.93083 19.4991 6.6975C19.0324 6.4175 18.5891 6.17833 18.1691 5.98C17.7607 5.77 17.3407 5.60083 16.9091 5.4725C16.4774 5.34417 16.0224 5.25083 15.5441 5.1925C15.0657 5.13417 14.5291 5.105 13.9341 5.105C12.8257 5.105 11.8282 5.30333 10.9416 5.7C10.0549 6.085 9.29656 6.63333 8.66656 7.345C8.04823 8.05667 7.5699 8.91417 7.23156 9.9175C6.89323 10.9092 6.72406 12.0175 6.72406 13.2425C6.72406 14.5958 6.91073 15.7975 7.28406 16.8475C7.6574 17.8975 8.17073 18.7842 8.82406 19.5075C9.48906 20.2308 10.2707 20.785 11.1691 21.17C12.0791 21.5433 13.0707 21.73 14.1441 21.73ZM45.5711 0.5025V5.1925H38.3961V26H32.4811V5.1925H25.3061V0.5025H45.5711ZM52.2919 7.5725C53.4935 7.5725 54.5902 7.75917 55.5819 8.1325C56.5852 8.50583 57.4427 9.04833 58.1544 9.76C58.8777 10.4717 59.4377 11.3467 59.8344 12.385C60.2427 13.4117 60.4469 14.5783 60.4469 15.885C60.4469 16.2933 60.4294 16.6258 60.3944 16.8825C60.3594 17.1392 60.2952 17.3433 60.2019 17.495C60.1085 17.6467 59.9802 17.7517 59.8169 17.81C59.6652 17.8683 59.4669 17.8975 59.2219 17.8975H48.7569C48.9319 19.4142 49.3927 20.5167 50.1394 21.205C50.886 21.8817 51.8485 22.22 53.0269 22.22C53.6569 22.22 54.1994 22.1442 54.6544 21.9925C55.1094 21.8408 55.5119 21.6717 55.8619 21.485C56.2235 21.2983 56.5502 21.1292 56.8419 20.9775C57.1452 20.8258 57.4602 20.75 57.7869 20.75C58.2185 20.75 58.5452 20.9075 58.7669 21.2225L60.3419 23.165C59.7819 23.8067 59.1752 24.3317 58.5219 24.74C57.8802 25.1367 57.2152 25.4517 56.5269 25.685C55.8502 25.9067 55.1677 26.0583 54.4794 26.14C53.8027 26.2333 53.1552 26.28 52.5369 26.28C51.2652 26.28 50.0694 26.0758 48.9494 25.6675C47.841 25.2475 46.8669 24.6292 46.0269 23.8125C45.1985 22.9958 44.5394 21.9808 44.0494 20.7675C43.571 19.5542 43.3319 18.1425 43.3319 16.5325C43.3319 15.3192 43.536 14.17 43.9444 13.085C44.3644 12 44.9594 11.0492 45.7294 10.2325C46.511 9.41583 47.4502 8.76833 48.5469 8.29C49.6552 7.81167 50.9035 7.5725 52.2919 7.5725ZM52.3969 11.3175C51.3585 11.3175 50.5477 11.615 49.9644 12.21C49.381 12.7933 48.996 13.6392 48.8094 14.7475H55.5819C55.5819 14.3158 55.5235 13.8958 55.4069 13.4875C55.3019 13.0792 55.121 12.7175 54.8644 12.4025C54.6194 12.0758 54.2927 11.8133 53.8844 11.615C53.476 11.4167 52.9802 11.3175 52.3969 11.3175ZM76.09 26C75.5766 26 75.1858 25.93 74.9175 25.79C74.6608 25.65 74.445 25.3583 74.27 24.915L73.885 23.9175C73.43 24.3025 72.9925 24.6408 72.5725 24.9325C72.1525 25.2242 71.715 25.475 71.26 25.685C70.8166 25.8833 70.3383 26.0292 69.825 26.1225C69.3233 26.2275 68.7633 26.28 68.145 26.28C67.3166 26.28 66.5641 26.175 65.8875 25.965C65.2108 25.7433 64.6333 25.4225 64.155 25.0025C63.6883 24.5825 63.3266 24.0633 63.07 23.445C62.8133 22.815 62.685 22.0917 62.685 21.275C62.685 20.6333 62.8483 19.9742 63.175 19.2975C63.5016 18.6208 64.0675 18.0083 64.8725 17.46C65.6775 16.9 66.7625 16.4333 68.1275 16.06C69.4925 15.6867 71.2133 15.4767 73.29 15.43V14.66C73.29 13.5983 73.0683 12.8342 72.625 12.3675C72.1933 11.8892 71.575 11.65 70.77 11.65C70.1283 11.65 69.6033 11.72 69.195 11.86C68.7866 12 68.4191 12.1575 68.0925 12.3325C67.7775 12.5075 67.4683 12.665 67.165 12.805C66.8616 12.945 66.5 13.015 66.08 13.015C65.7066 13.015 65.3858 12.9275 65.1175 12.7525C64.8608 12.5658 64.6566 12.3383 64.505 12.07L63.525 10.3725C64.6216 9.40417 65.835 8.68667 67.165 8.22C68.5066 7.74167 69.9416 7.5025 71.47 7.5025C72.5666 7.5025 73.5525 7.68333 74.4275 8.045C75.3141 8.395 76.0608 8.89083 76.6675 9.5325C77.2858 10.1625 77.7583 10.915 78.085 11.79C78.4116 12.665 78.575 13.6217 78.575 14.66V26H76.09ZM69.86 22.6925C70.56 22.6925 71.1725 22.57 71.6975 22.325C72.2225 22.08 72.7533 21.6833 73.29 21.135V18.615C72.205 18.6617 71.3125 18.755 70.6125 18.895C69.9125 19.035 69.3583 19.21 68.95 19.42C68.5416 19.63 68.2558 19.8692 68.0925 20.1375C67.9408 20.4058 67.865 20.6975 67.865 21.0125C67.865 21.6308 68.0341 22.0683 68.3725 22.325C68.7108 22.57 69.2066 22.6925 69.86 22.6925ZM82.4271 26V7.8525H85.7871C86.1255 7.8525 86.4055 7.92833 86.6271 8.08C86.8605 8.23167 87.0238 8.45917 87.1171 8.7625L87.4146 9.7425C87.718 9.4275 88.033 9.14167 88.3596 8.885C88.6863 8.61667 89.0363 8.38917 89.4096 8.2025C89.7946 8.00417 90.203 7.8525 90.6346 7.7475C91.078 7.63083 91.5621 7.5725 92.0871 7.5725C93.1838 7.5725 94.088 7.85833 94.7996 8.43C95.523 8.99 96.0713 9.7425 96.4446 10.6875C96.748 10.1275 97.1155 9.64917 97.5471 9.2525C97.9905 8.85583 98.463 8.535 98.9646 8.29C99.478 8.045 100.015 7.86417 100.575 7.7475C101.146 7.63083 101.712 7.5725 102.272 7.5725C103.31 7.5725 104.232 7.73 105.037 8.045C105.842 8.34833 106.513 8.7975 107.05 9.3925C107.598 9.97583 108.012 10.6992 108.292 11.5625C108.572 12.4142 108.712 13.3825 108.712 14.4675V26H103.287V14.4675C103.287 12.5892 102.482 11.65 100.872 11.65C100.137 11.65 99.5246 11.895 99.0346 12.385C98.5563 12.8633 98.3171 13.5575 98.3171 14.4675V26H92.8921V14.4675C92.8921 13.4292 92.688 12.7 92.2796 12.28C91.8713 11.86 91.2705 11.65 90.4771 11.65C89.9871 11.65 89.5205 11.7608 89.0771 11.9825C88.6455 12.2042 88.2371 12.5017 87.8521 12.875V26H82.4271Z" fill="#AA0E19"/>
</svg>
