<svg width="360" height="335" viewBox="0 0 360 335" fill="none" xmlns="http://www.w3.org/2000/svg">
<path d="M245.68 190.463L243.519 190.055C240.243 189.436 236.906 189.344 233.606 189.784L228.69 190.442C226.216 190.772 223.714 190.665 221.27 190.121L219.13 189.644C216.675 189.1 214.14 189.174 211.714 189.868C209.241 190.573 206.655 190.647 204.149 190.085L203.417 189.921C200.17 189.192 196.819 189.234 193.587 190.04L191.905 190.46C189.846 190.975 187.7 190.972 185.667 190.344C183.215 189.585 181.09 188.013 179.674 185.177C178.352 182.532 177.766 177.782 177.766 174.365C176.864 170.092 176.709 165.666 177.302 161.324L177.445 160.271C177.656 158.729 177.662 157.158 177.465 155.613C176.757 150.08 176.745 144.465 177.424 138.929L177.516 138.185C177.861 135.364 178.022 132.522 178.004 129.677C177.989 127.569 178.004 125.424 178.165 123.534C178.462 119.978 179.567 116.484 180.221 113.014C180.879 109.537 181.046 106.246 181.98 103.207C188.661 81.4642 202.229 70.8694 219.669 70.8694H219.705C236.52 70.8694 250.525 82.229 257.15 102.32C258.501 106.422 259.275 110.886 259.971 115.689C260.075 116.412 260.218 117.091 260.376 117.742C261.495 122.317 261.926 127.067 261.545 131.79L261.507 132.251C261.313 134.641 261.486 137.051 262.013 139.379C262.92 143.375 262.974 147.554 262.17 151.58C261.542 154.711 261.658 157.97 262.507 161.035C262.721 162.464 262.801 163.592 262.774 164.869C262.745 166.33 262.545 167.779 262.206 169.19C261.67 171.404 261.322 173.666 261.066 175.943C260.679 179.395 259.548 182.526 257.903 185.022C257.804 185.174 257.7 185.323 257.599 185.469C254.79 189.457 250.174 191.314 245.68 190.463Z" fill="#FFE3B0"/>
<path d="M229.285 164.009C226.952 165.571 223.443 166.568 219.517 166.568C215.842 166.568 212.536 165.696 210.211 164.3C210.173 164.538 210.137 164.785 210.101 165.041L208.277 175.984H231.094L229.443 165.041C229.389 164.678 229.336 164.336 229.285 164.009Z" fill="#FFCFC2"/>
<path d="M229.285 164.009C227.797 154.833 226.1 157.914 222.318 157.914H217.229C213.422 157.914 211.488 156.235 210.214 164.3C212.649 166.568 216.101 168.095 219.773 168.095C223.696 168.095 227.151 166.312 229.285 164.009Z" fill="#DBB6AF"/>
<path d="M190.936 129.013C193.285 128.574 194.541 124.745 193.74 120.462C192.94 116.179 190.387 113.063 188.037 113.502C185.688 113.941 184.433 117.769 185.233 122.052C186.033 126.335 188.587 129.452 190.936 129.013Z" fill="#FFCFC2"/>
<path d="M253.049 122.059C253.849 117.776 252.594 113.948 250.244 113.509C247.895 113.07 245.342 116.186 244.541 120.469C243.741 124.752 244.996 128.581 247.346 129.02C249.695 129.459 252.248 126.342 253.049 122.059Z" fill="#FFCFC2"/>
<path d="M190.757 124.826C190.757 146.191 203.461 163.511 219.133 163.511C234.805 163.511 247.51 146.191 247.51 124.826C247.51 119.704 247.644 114.987 247.233 110.338C246.492 101.922 245.659 99.7432 242.927 96.0678C237.802 89.1692 226.901 86.1426 219.13 86.1426C211.333 86.1426 198.679 89.1454 194.813 96.8594C192.786 100.904 192.277 103.957 191.456 109.005C190.679 113.787 190.757 119.483 190.757 124.826Z" fill="#FFCFC2"/>
<path d="M243.743 108.478L239.296 107.389C238.966 107.308 238.618 107.329 238.299 107.448C236.404 108.16 234.35 108.308 232.377 107.877C229.758 107.305 227.05 107.276 224.422 107.791L222.895 108.091C221.392 108.386 219.845 108.353 218.357 107.996C216.357 107.517 214.271 107.508 212.265 107.975C211.25 108.21 210.202 108.264 209.17 108.136L208.967 108.109C208.408 108.038 207.551 108.029 207.057 107.055C206.932 106.811 206.863 106.544 206.831 106.27L205.72 97.4309C205.723 97.3624 205.619 97.3535 205.61 97.4219L204.473 106.835C204.408 107.389 203.917 107.794 203.36 107.752H203.351C201.935 107.648 200.509 107.701 199.102 107.913L194.885 108.541C194.295 108.541 193.816 108.047 193.816 107.439V104.77C193.816 91.5859 204.292 80.7976 217.095 80.7976H221.696C234.499 80.7976 244.975 91.5859 244.975 104.77V107.52C244.975 107.761 244.894 107.981 244.758 108.157C244.514 108.46 244.109 108.57 243.743 108.478Z" fill="#FFE3B0"/>
<path d="M181.311 182.177C179.894 182.978 178.593 183.835 177.474 184.74C177.995 184.344 178.552 183.975 179.156 183.636L181.311 182.177Z" fill="#FFCFC2"/>
<path d="M208.408 179.88C208.101 179.106 207.967 178.231 208.066 177.255L209.592 173.693L208.827 172.675L207.574 173.553C206.717 174.154 205.789 174.648 204.81 175.023L203.405 175.562C203.238 175.624 203.069 175.684 202.896 175.734C202.268 175.913 201.625 176.047 200.977 176.133C199.465 176.335 197.968 176.535 196.215 176.707L203.524 178.743C205.137 179.192 206.768 179.57 208.408 179.88Z" fill="#FFCFC2"/>
<path d="M231.291 179.764C233.657 179.291 236.002 178.675 238.311 177.91L242.011 176.687C240.386 176.743 240.13 176.743 237.945 176.329C236.793 176.112 236.314 175.981 234.788 175.472C234.785 175.472 234.785 175.472 234.782 175.469C234.3 175.309 233.829 175.112 233.38 174.871L230.713 173.437L231.478 178.526C231.478 178.963 231.41 179.374 231.291 179.764Z" fill="#FFCFC2"/>
<path d="M259.671 183.65L261.218 184.704C260.727 184.347 260.209 183.996 259.671 183.65Z" fill="#FFCFC2"/>
<path d="M218.714 234.776L218.729 234.819L218.753 234.776H218.714Z" fill="#FFCFC2"/>
<path d="M173.802 189.338C174.281 188.266 174.903 187.299 175.659 186.433C174.811 187.368 174.171 188.338 173.802 189.338Z" fill="#FFCFC2"/>
<path d="M208.408 179.88C215.979 181.317 223.749 181.276 231.294 179.764C231.413 179.374 231.481 178.96 231.481 178.529L231.097 175.984H208.28L208.068 177.258C207.964 178.234 208.101 179.106 208.408 179.88Z" fill="#FFCFC2"/>
<path d="M199.759 188.838L218.711 234.776H218.75L241.579 188.876C244.505 183.177 246.692 180.014 248.484 178.487C246.237 177.728 244.025 177.118 242.011 176.689L238.311 177.913C236.002 178.674 233.657 179.291 231.291 179.767C230.33 182.906 225.8 184.639 222.315 184.639H217.226C214.059 184.639 209.696 183.142 208.408 179.883C206.768 179.57 205.14 179.195 203.524 178.743L196.215 176.707C194.977 176.966 193.673 177.291 192.343 177.675C194.385 178.856 196.7 182.061 199.759 188.838Z" fill="#F4F4F4"/>
<path d="M208.408 179.88C209.696 183.139 214.059 184.635 217.226 184.635H222.315C225.8 184.635 230.329 182.903 231.291 179.764C228.484 180.326 225.645 180.683 222.797 180.838C222.059 180.88 221.318 180.904 220.577 180.918C219.586 180.936 218.598 180.927 217.607 180.895C214.527 180.796 211.452 180.457 208.408 179.88Z" fill="#F4F4F4"/>
<path d="M186.876 241.788L173.451 191.254C173.451 190.606 173.573 189.966 173.805 189.338C172.21 192.897 172.138 197.602 173.582 203.593L182.834 244.922C183.959 243.633 185.334 242.565 186.876 241.788Z" fill="#AA0E19"/>
<path d="M177.475 184.743C176.799 185.258 176.195 185.82 175.662 186.433C176.189 185.853 176.799 185.287 177.475 184.743Z" fill="#7C0A02"/>
<path d="M357.411 137.527L350.834 144.569C350.191 145.259 348.417 146.777 347.477 146.848C346.533 146.92 345.417 147.768 344.771 148.462L343.105 150.411L332.677 140.039L333.724 132.37C333.718 131.671 333.191 129.427 333.031 128.757C332.617 127.022 331.7 125.876 330.376 124.638C330.052 124.335 329.837 123.954 329.742 123.549C329.579 122.858 329.751 122.102 330.272 121.546C330.974 120.796 331.882 120.412 332.766 120.936L333.897 121.647C335.697 122.716 337.239 124.174 338.406 125.915L339.525 128.501L345.685 122.552C346.494 121.683 347.983 120.814 349.319 120.995C349.81 121.061 350.262 121.332 350.545 121.739C351.116 122.567 351.078 123.674 350.325 124.48C350.313 124.492 350.316 124.507 350.322 124.516C350.331 124.525 350.346 124.531 350.36 124.522C350.616 124.346 350.899 124.221 351.191 124.153C351.658 124.04 352.155 124.067 352.61 124.227C352.926 124.337 353.223 124.516 353.482 124.757C353.985 125.227 354.25 125.852 354.274 126.489C354.313 127.492 353.735 128.15 353.622 128.275C353.604 128.296 353.604 128.331 353.625 128.349C353.625 128.349 353.625 128.349 353.628 128.349C353.649 128.367 353.682 128.367 353.7 128.346C353.884 128.251 354.075 128.183 354.274 128.135C354.756 128.019 355.271 128.043 355.741 128.206C356.274 128.391 356.753 128.757 357.071 129.308C357.631 130.281 357.452 131.519 356.682 132.337C356.679 132.34 356.673 132.346 356.67 132.349C356.658 132.367 356.658 132.388 356.67 132.4C356.673 132.403 356.676 132.406 356.682 132.406C356.696 132.412 356.717 132.409 356.729 132.394C357.369 131.989 358.155 131.918 358.857 132.165C359.181 132.278 359.491 132.459 359.756 132.965C360.771 134.498 358.354 136.519 357.411 137.527Z" fill="#FFCFC2"/>
<path d="M352.619 124.23L349.503 126.995C349.06 127.388 348.399 127.397 347.947 127.016L350.328 124.522C350.337 124.531 350.351 124.537 350.366 124.528C350.622 124.352 350.905 124.227 351.197 124.159C351.667 124.046 352.161 124.07 352.619 124.23Z" fill="#FFCFC2"/>
<path d="M355.753 128.212L352.705 130.915C352.265 131.307 351.601 131.316 351.149 130.935L353.53 128.439L353.637 128.352C353.658 128.37 353.69 128.37 353.708 128.349C353.893 128.254 354.083 128.186 354.283 128.138C354.768 128.025 355.28 128.049 355.753 128.212Z" fill="#FFCFC2"/>
<path d="M358.866 132.168L356.181 134.548C355.741 134.938 355.077 134.947 354.625 134.569L356.687 132.409C356.702 132.415 356.723 132.412 356.735 132.394C357.378 131.992 358.161 131.918 358.866 132.168Z" fill="#FFCFC2"/>
<path d="M343.832 149.556L332.775 139.834L326.339 147.154L337.396 156.875L343.832 149.556Z" fill="#FFCFC2"/>
<path d="M145.375 326.344C147.285 327.368 149.336 325.636 150.883 323.207C151.101 322.868 151.47 322.746 151.717 322.922C151.919 323.065 152.11 323.142 152.261 323.103C153.633 322.746 154.568 320.202 155.502 318.175C159.871 308.702 160.728 298.521 163.981 288.822C164.1 288.468 164.008 288.117 163.755 287.995L153.11 282.751C152.809 282.602 152.404 282.834 152.232 283.251C148.848 291.39 147.089 296.89 144.565 303.586C143.321 306.893 141.491 311.547 139.021 317.151C138.176 319.068 138.193 321.19 139.131 322.553C140.661 324.773 143.66 326.231 145.375 326.344Z" fill="#FFCFC2"/>
<path d="M186.876 241.788C188.659 240.886 190.667 240.374 192.795 240.374H215.97L218.735 234.818L218.717 234.776H193.614C191.343 234.776 189.486 232.919 189.486 230.649V180.115C189.486 179.529 189.611 178.969 189.837 178.46C186.876 179.457 183.9 180.722 181.314 182.18L179.159 183.639C178.558 183.978 177.998 184.347 177.478 184.743C176.802 185.29 176.192 185.856 175.665 186.433C174.909 187.299 174.287 188.266 173.808 189.338C173.579 189.966 173.454 190.606 173.454 191.254L186.876 241.788Z" fill="#AA0E19"/>
<path d="M192.34 177.675C191.513 177.913 190.673 178.175 189.834 178.46C189.611 178.966 189.483 179.526 189.483 180.115V230.649C189.483 232.919 191.34 234.776 193.611 234.776H218.711L199.759 188.838C196.7 182.061 194.384 178.856 192.34 177.675Z" fill="#AA0E19"/>
<path d="M261.804 185.103L261.218 184.704C264.295 186.945 266.346 189.451 266.346 192.016L251.805 241.282C253.12 241.797 254.334 242.517 255.409 243.404L265.995 205.468C268.637 196.852 267.691 189.103 261.804 185.103Z" fill="#AA0E19"/>
<path d="M249.805 180.056L248.278 230.646C248.278 232.916 246.421 234.774 244.15 234.774H218.753L218.732 234.815L221.023 240.372H247.004C248.695 240.372 250.314 240.696 251.805 241.282L266.346 192.016C266.346 189.451 264.295 186.945 261.218 184.704L259.671 183.651C256.706 181.767 253.079 180.112 249.472 178.826C249.683 179.213 249.805 179.627 249.805 180.056Z" fill="#AA0E19"/>
<path d="M248.275 230.646L249.802 180.055C249.802 179.627 249.68 179.213 249.469 178.826C249.141 178.71 248.811 178.594 248.483 178.484C246.692 180.014 244.504 183.174 241.579 188.874L218.75 234.774H244.147C246.418 234.776 248.275 232.916 248.275 230.646Z" fill="#AA0E19"/>
<path d="M218.729 234.818L215.967 240.374H221.023L218.729 234.818Z" fill="#AA0E19"/>
<path d="M219.321 263.57C218.717 264.1 218.062 264.57 217.36 264.966L214.027 266.844H222.55C222.333 266.719 222.127 266.594 221.937 266.463L219.321 263.57Z" fill="#AA0E19"/>
<path d="M219.321 263.57L218.952 263.159C216.836 261.722 215.241 259.615 214.229 257.171H202.084C193.754 257.171 186.941 250.356 186.941 242.029L186.876 241.788C185.334 242.568 183.962 243.633 182.834 244.925L186.248 260.168C186.819 262.716 188.406 264.942 190.682 266.216C190.775 266.269 190.87 266.32 190.965 266.37C191.528 266.668 192.15 266.844 192.786 266.844C192.789 266.844 192.792 266.844 192.795 266.844H214.03L217.363 264.966C218.065 264.57 218.717 264.097 219.321 263.57Z" fill="#AA0E19"/>
<path d="M214.765 242.791L215.967 240.375H192.792C190.667 240.375 188.658 240.886 186.873 241.788L186.938 242.029C186.938 250.359 193.753 257.171 202.081 257.171H214.226C212.422 252.823 212.47 247.404 214.765 242.791Z" fill="#AA0E19"/>
<path d="M251.585 242.029C251.585 250.359 244.769 257.172 236.442 257.172H223.413C222.595 259.686 221.202 261.924 219.324 263.567L221.94 266.463C222.13 266.594 222.336 266.719 222.553 266.844H245.266C247.079 266.844 248.772 265.859 249.591 264.24C249.597 264.231 249.603 264.219 249.605 264.207L255.412 243.401C254.337 242.514 253.123 241.797 251.808 241.279L251.585 242.029Z" fill="#AA0E19"/>
<path d="M221.023 240.375L222.934 245.008C224.58 248.996 224.639 253.398 223.41 257.171H236.439C244.769 257.171 251.581 250.356 251.581 242.029L251.802 241.285C250.311 240.699 248.692 240.375 247.001 240.375H221.023Z" fill="#AA0E19"/>
<path d="M218.952 263.159L219.321 263.57C221.199 261.927 222.592 259.689 223.41 257.174H214.226C215.241 259.615 216.836 261.722 218.952 263.159Z" fill="#AA0E19"/>
<path d="M222.934 245.008L221.023 240.375H215.967L214.765 242.791C212.47 247.404 212.423 252.82 214.229 257.171H223.413C224.639 253.401 224.58 248.996 222.934 245.008Z" fill="#AA0E19"/>
<path d="M152.711 298.158L158.029 299.661C163.032 301.074 168.284 298.137 169.695 293.131L196.137 199.519C197.551 194.516 194.614 189.263 189.608 187.853L184.29 186.35C179.287 184.936 174.034 187.874 172.623 192.879L146.181 286.492C144.77 291.494 147.708 296.747 152.711 298.158Z" fill="#AA0E19"/>
<path d="M285.184 192.832L291.026 198.674C294.172 201.819 299.315 201.819 302.461 198.674L336.337 161.22C340.149 157.407 341.471 153.426 337.659 149.613L333.879 145.834C330.266 142.221 325.698 143.099 322.085 146.711L285.184 181.398C282.039 184.54 282.039 189.686 285.184 192.832Z" fill="#AA0E19"/>
<path d="M245.409 184.832V193.097C245.409 197.543 249.686 208.307 254.132 208.307L293.883 201.611C294.976 201.427 296.071 201.248 297.172 201.147C301.279 200.772 304.523 197.296 304.523 193.097V184.832C304.523 180.386 300.886 176.746 296.437 176.746H253.492C249.046 176.746 245.409 180.386 245.409 184.832Z" fill="#AA0E19"/>
<path d="M138.486 111.114C135.346 102.781 129.367 98.2009 125.745 92.2011C124.034 89.3649 123.269 86.6567 123.287 83.4604C123.385 64.5147 123.352 45.5661 123.338 26.6055C123.338 18.844 113.505 17.6535 113.505 17.6535L12.9224 16.5435C12.9224 16.5435 1.34551 18.222 1.32766 27.3525C1.3098 48.435 1.29492 69.5026 1.3098 90.5851C1.3098 98.6711 11.36 100.123 11.36 100.123L97.7553 99.9776C97.7553 99.9776 118.951 102.097 128.602 106.906C131.278 108.245 134.135 109.272 138.486 111.114Z" fill="#F4F4F4"/>
<path d="M98.1869 44.2953C101.532 44.2953 104.892 44.3935 108.237 44.2625C110.535 44.1822 112.094 42.7447 112.106 39.9591C112.121 37.1229 110.481 35.7034 108.222 35.6885C101.529 35.6081 94.8239 35.6557 88.1337 35.7688C85.9701 35.8016 84.1011 36.6974 84.0208 39.7151C83.9404 42.9114 85.6606 44.2149 88.1456 44.2982C91.4907 44.4113 94.8388 44.331 98.1958 44.331C98.1869 44.3102 98.1869 44.2953 98.1869 44.2953Z" fill="#AA0E19"/>
<path d="M92.681 61.7172C86.8033 61.7172 80.9107 61.7172 75.033 61.7023C73.1848 61.7023 71.2801 62.0088 71.295 64.5266C71.3099 66.964 73.1432 67.4491 75.0181 67.4491C86.9551 67.4491 98.907 67.4639 110.844 67.4491C112.79 67.4491 114.43 66.6902 114.317 64.2528C114.219 62.0415 112.496 61.7172 110.856 61.7172C104.8 61.7023 98.7403 61.7172 92.681 61.7172Z" fill="#DBDBDB"/>
<path d="M89.1337 76.7255C95.5441 76.7255 101.958 76.7106 108.371 76.7255C110.913 76.7404 114.002 76.8892 114.252 73.9042C114.534 70.5115 111.213 70.9043 108.82 70.9043C95.1661 70.8567 81.5268 70.8716 67.8726 70.8716C65.5304 70.8716 62.7716 70.8716 62.8728 73.7911C62.971 76.5291 65.6644 76.7106 68.0393 76.7106C75.0658 76.7106 82.0923 76.7106 89.1366 76.7106C89.1337 76.7106 89.1337 76.7106 89.1337 76.7255Z" fill="#DBDBDB"/>
<path d="M64.0216 33.0339C62.6675 31.6798 60.4711 31.6798 59.117 33.0339L30.9098 61.2411L24.3506 54.6818C22.9965 53.3277 20.8001 53.3277 19.446 54.6818L14.5415 59.5864C13.1874 60.9405 13.1874 63.1368 14.5415 64.4909L23.553 73.5025L28.4576 78.4071C29.8117 79.7612 32.008 79.7612 33.3621 78.4071L38.2667 73.5025L68.9262 42.843C70.2803 41.4889 70.2803 39.2926 68.9262 37.9385L64.0216 33.0339Z" fill="#78AA57"/>
</svg>
