<svg width="360" height="268" viewBox="0 0 360 268" fill="none" xmlns="http://www.w3.org/2000/svg">
<path d="M242.384 232.01H98.3966C96.6462 232.01 95.2252 230.589 95.2252 228.835L94.6528 174.749C94.6528 172.996 96.0722 171.574 97.8242 171.574H242.384C243.121 171.574 243.719 172.172 243.719 172.91V230.67C243.72 231.41 243.121 232.01 242.384 232.01Z" fill="#AFAFAF"/>
<path d="M195.134 227.398H143.69C142.833 227.398 142.137 226.701 142.137 225.843V219.244C142.137 218.386 142.833 217.69 143.69 217.69H195.133C195.989 217.69 196.685 218.386 196.685 219.244V225.843C196.687 226.701 195.991 227.398 195.134 227.398Z" fill="#333333"/>
<path d="M124.781 227.398H136.463C137.32 227.398 138.016 226.701 138.016 225.843V219.244C138.016 218.386 137.32 217.69 136.463 217.69H124.781C123.924 217.69 123.229 218.386 123.229 219.244V225.843C123.227 226.701 123.923 227.398 124.781 227.398Z" fill="#333333"/>
<path d="M128.901 213.685H136.463C137.32 213.685 138.016 212.989 138.016 212.131V205.531C138.016 204.673 137.32 203.977 136.463 203.977H128.903C128.046 203.977 127.35 204.673 127.35 205.531V212.131C127.348 212.989 128.044 213.685 128.901 213.685Z" fill="#333333"/>
<path d="M124.66 199.971H132.22C133.077 199.971 133.773 199.275 133.773 198.417V191.817C133.773 190.959 133.077 190.263 132.22 190.263H124.66C123.803 190.263 123.107 190.959 123.107 191.817V198.417C123.106 199.276 123.801 199.971 124.66 199.971Z" fill="#333333"/>
<path d="M113.265 186.381H120.826C121.683 186.381 122.379 185.684 122.379 184.827V178.227C122.379 177.369 121.683 176.673 120.826 176.673H113.265C112.408 176.673 111.713 177.369 111.713 178.227V184.827C111.711 185.684 112.407 186.381 113.265 186.381Z" fill="#333333"/>
<path d="M100.658 186.381H108.219C109.076 186.381 109.771 185.684 109.771 184.827V178.227C109.771 177.369 109.076 176.673 108.219 176.673H100.658C99.801 176.673 99.1055 177.369 99.1055 178.227V184.827C99.1055 185.684 99.7993 186.381 100.658 186.381Z" fill="#333333"/>
<path d="M138.357 199.971H145.918C146.775 199.971 147.47 199.275 147.47 198.417V191.817C147.47 190.959 146.775 190.263 145.918 190.263H138.357C137.5 190.263 136.804 190.959 136.804 191.817V198.417C136.804 199.276 137.5 199.971 138.357 199.971Z" fill="#333333"/>
<path d="M152.903 199.971H160.464C161.32 199.971 162.016 199.275 162.016 198.417V191.817C162.016 190.959 161.32 190.263 160.464 190.263H152.903C152.046 190.263 151.35 190.959 151.35 191.817V198.417C151.35 199.276 152.046 199.971 152.903 199.971Z" fill="#333333"/>
<path d="M167.207 199.971H174.768C175.625 199.971 176.32 199.275 176.32 198.417V191.817C176.32 190.959 175.625 190.263 174.768 190.263H167.207C166.35 190.263 165.655 190.959 165.655 191.817V198.417C165.655 199.276 166.349 199.971 167.207 199.971Z" fill="#333333"/>
<path d="M181.39 199.971H188.951C189.808 199.971 190.504 199.275 190.504 198.417V191.817C190.504 190.959 189.808 190.263 188.951 190.263H181.39C180.533 190.263 179.838 190.959 179.838 191.817V198.417C179.836 199.276 180.532 199.971 181.39 199.971Z" fill="#333333"/>
<path d="M194.239 199.971H201.8C202.657 199.971 203.352 199.275 203.352 198.417V191.817C203.352 190.959 202.657 190.263 201.8 190.263H194.239C193.382 190.263 192.687 190.959 192.687 191.817V198.417C192.687 199.276 193.382 199.971 194.239 199.971Z" fill="#333333"/>
<path d="M125.992 186.381H133.553C134.41 186.381 135.106 185.684 135.106 184.827V178.227C135.106 177.369 134.41 176.673 133.553 176.673H125.992C125.135 176.673 124.44 177.369 124.44 178.227V184.827C124.44 185.684 125.135 186.381 125.992 186.381Z" fill="#333333"/>
<path d="M138.478 186.381H146.039C146.896 186.381 147.592 185.684 147.592 184.827V178.227C147.592 177.369 146.896 176.673 146.039 176.673H138.478C137.622 176.673 136.926 177.369 136.926 178.227V184.827C136.926 185.684 137.62 186.381 138.478 186.381Z" fill="#333333"/>
<path d="M151.205 186.381H158.766C159.623 186.381 160.319 185.684 160.319 184.827V178.227C160.319 177.369 159.623 176.673 158.766 176.673H151.205C150.349 176.673 149.653 177.369 149.653 178.227V184.827C149.653 185.684 150.349 186.381 151.205 186.381Z" fill="#333333"/>
<path d="M164.54 186.381H172.101C172.958 186.381 173.653 185.684 173.653 184.827V178.227C173.653 177.369 172.958 176.673 172.101 176.673H164.54C163.683 176.673 162.988 177.369 162.988 178.227V184.827C162.988 185.684 163.683 186.381 164.54 186.381Z" fill="#333333"/>
<path d="M177.753 186.381H185.314C186.171 186.381 186.866 185.684 186.866 184.827V178.227C186.866 177.369 186.171 176.673 185.314 176.673H177.753C176.896 176.673 176.201 177.369 176.201 178.227V184.827C176.201 185.684 176.896 186.381 177.753 186.381Z" fill="#333333"/>
<path d="M190.602 186.381H198.163C199.019 186.381 199.715 185.684 199.715 184.827V178.227C199.715 177.369 199.019 176.673 198.163 176.673H190.602C189.745 176.673 189.049 177.369 189.049 178.227V184.827C189.049 185.684 189.745 186.381 190.602 186.381Z" fill="#333333"/>
<path d="M207.815 199.971H215.376C216.233 199.971 216.928 199.275 216.928 198.417V191.817C216.928 190.959 216.233 190.263 215.376 190.263H207.815C206.958 190.263 206.262 190.959 206.262 191.817V198.417C206.262 199.276 206.958 199.971 207.815 199.971Z" fill="#333333"/>
<path d="M203.694 186.381H211.254C212.111 186.381 212.807 185.684 212.807 184.827V178.227C212.807 177.369 212.111 176.673 211.254 176.673H203.694C202.837 176.673 202.141 177.369 202.141 178.227V184.827C202.141 185.684 202.837 186.381 203.694 186.381Z" fill="#333333"/>
<path d="M143.69 213.685H151.25C152.107 213.685 152.803 212.989 152.803 212.131V205.531C152.803 204.673 152.107 203.977 151.25 203.977H143.69C142.833 203.977 142.137 204.673 142.137 205.531V212.131C142.137 212.989 142.833 213.685 143.69 213.685Z" fill="#333333"/>
<path d="M158.237 213.685H165.798C166.655 213.685 167.35 212.989 167.35 212.131V205.531C167.35 204.673 166.655 203.977 165.798 203.977H158.237C157.38 203.977 156.685 204.673 156.685 205.531V212.131C156.683 212.989 157.379 213.685 158.237 213.685Z" fill="#333333"/>
<path d="M172.54 213.685H180.101C180.958 213.685 181.653 212.989 181.653 212.131V205.531C181.653 204.673 180.958 203.977 180.101 203.977H172.54C171.683 203.977 170.988 204.673 170.988 205.531V212.131C170.988 212.989 171.683 213.685 172.54 213.685Z" fill="#333333"/>
<path d="M187.572 213.685H195.133C195.99 213.685 196.685 212.989 196.685 212.131V205.531C196.685 204.673 195.99 203.977 195.133 203.977H187.572C186.715 203.977 186.02 204.673 186.02 205.531V212.131C186.02 212.989 186.715 213.685 187.572 213.685Z" fill="#333333"/>
<path d="M202.482 213.685H210.043C210.9 213.685 211.595 212.989 211.595 212.131V205.531C211.595 204.673 210.9 203.977 210.043 203.977H202.482C201.625 203.977 200.93 204.673 200.93 205.531V212.131C200.93 212.989 201.625 213.685 202.482 213.685Z" fill="#333333"/>
<path d="M100.658 227.398H117.31C118.167 227.398 118.863 226.701 118.863 225.843V219.244C118.863 218.386 118.167 217.69 117.31 217.69H100.658C99.801 217.69 99.1055 218.386 99.1055 219.244V225.843C99.1055 226.701 99.7993 227.398 100.658 227.398Z" fill="#333333"/>
<path d="M100.658 199.971H117.31C118.167 199.971 118.863 199.275 118.863 198.417V191.817C118.863 190.959 118.167 190.263 117.31 190.263H100.658C99.801 190.263 99.1055 190.959 99.1055 191.817V198.417C99.1055 199.276 99.7993 199.971 100.658 199.971Z" fill="#333333"/>
<path d="M221.757 199.971H238.409C239.266 199.971 239.962 199.275 239.962 198.417V191.817C239.962 190.959 239.266 190.263 238.409 190.263H221.757C220.9 190.263 220.204 190.959 220.204 191.817V198.417C220.203 199.276 220.898 199.971 221.757 199.971Z" fill="#333333"/>
<path d="M100.658 213.685H121.675C122.532 213.685 123.227 212.989 123.227 212.131V205.531C123.227 204.673 122.532 203.977 121.675 203.977H100.658C99.801 203.977 99.1055 204.673 99.1055 205.531V212.131C99.1055 212.989 99.7993 213.685 100.658 213.685Z" fill="#333333"/>
<path d="M217.271 213.685H238.287C239.144 213.685 239.84 212.989 239.84 212.131V205.531C239.84 204.673 239.144 203.977 238.287 203.977H217.271C216.414 203.977 215.718 204.673 215.718 205.531V212.131C215.718 212.989 216.414 213.685 217.271 213.685Z" fill="#333333"/>
<path d="M217.271 186.381H238.287C239.144 186.381 239.84 185.684 239.84 184.827V178.227C239.84 177.369 239.144 176.673 238.287 176.673H217.271C216.414 176.673 215.718 177.369 215.718 178.227V184.827C215.718 185.684 216.414 186.381 217.271 186.381Z" fill="#333333"/>
<path d="M214.286 227.398H202.604C201.747 227.398 201.051 226.701 201.051 225.843V219.244C201.051 218.386 201.747 217.69 202.604 217.69H214.286C215.143 217.69 215.838 218.386 215.838 219.244V225.843C215.84 226.701 215.145 227.398 214.286 227.398Z" fill="#333333"/>
<path d="M238.409 227.398H221.757C220.9 227.398 220.204 226.701 220.204 225.843V219.244C220.204 218.386 220.9 217.69 221.757 217.69H238.409C239.266 217.69 239.962 218.386 239.962 219.244V225.843C239.962 226.701 239.266 227.398 238.409 227.398Z" fill="#333333"/>
<path d="M341.498 179.581C347.209 189.399 348.295 201.727 343.342 212.907C335.144 231.408 313.518 239.754 295.037 231.547C289.145 228.93 284.285 224.945 280.662 220.133C284.403 226.563 290.125 231.916 297.438 235.165C315.919 243.372 337.545 235.026 345.743 216.525C351.327 203.924 349.237 189.862 341.498 179.581Z" fill="#D3D3D3"/>
<path d="M308.534 233.534C328.751 233.534 345.14 217.127 345.14 196.888C345.14 176.649 328.751 160.242 308.534 160.242C288.317 160.242 271.928 176.649 271.928 196.888C271.928 217.127 288.317 233.534 308.534 233.534Z" fill="#DBDBDB"/>
<path d="M268.601 196.888C268.626 205.027 271.105 213.18 275.837 219.822C280.621 226.538 287.216 231.615 294.947 234.478C302.684 237.345 311.436 237.613 319.366 235.376C327.042 233.212 334.12 228.665 339.187 222.49C344.508 216.004 347.696 208.177 348.355 199.801C348.997 191.636 346.976 183.241 342.736 176.24C338.641 169.475 332.486 163.863 325.273 160.6C317.468 157.069 308.847 156.059 300.439 157.74C292.619 159.304 285.28 163.412 279.764 169.165C274.203 174.965 270.341 182.498 269.135 190.463C268.812 192.595 268.607 194.731 268.601 196.888C268.596 198.63 270.135 200.299 271.928 200.219C273.735 200.138 275.25 198.755 275.256 196.888C275.26 195.953 275.291 195.021 275.361 194.09C275.396 193.63 275.439 193.17 275.491 192.712C275.524 192.412 275.411 191.862 275.486 192.687C275.461 192.414 275.577 192.056 275.622 191.784C275.927 189.93 276.374 188.101 276.96 186.317C277.215 185.541 277.506 184.781 277.8 184.02C278.083 183.292 277.491 184.711 277.807 183.999C277.897 183.797 277.985 183.594 278.077 183.392C278.29 182.924 278.512 182.459 278.745 182.001C279.572 180.371 280.521 178.803 281.581 177.316C281.707 177.137 281.835 176.961 281.965 176.784C282.105 176.594 282.384 176.008 281.972 176.763C282.17 176.399 282.527 176.061 282.794 175.743C283.353 175.074 283.937 174.424 284.541 173.796C285.146 173.168 285.774 172.562 286.421 171.979C286.745 171.687 287.075 171.401 287.409 171.121C287.577 170.981 287.745 170.843 287.915 170.704C288.028 170.613 288.142 170.523 288.256 170.433C288.538 170.213 288.486 170.253 288.1 170.553C288.253 170.268 288.892 169.966 289.158 169.778C289.516 169.527 289.877 169.28 290.245 169.042C291.04 168.522 291.855 168.034 292.689 167.579C293.398 167.193 294.118 166.828 294.85 166.488C295.05 166.395 295.251 166.305 295.454 166.215C295.523 166.185 295.589 166.157 295.657 166.127C295.988 165.984 295.929 166.01 295.474 166.204C295.747 165.924 296.551 165.777 296.922 165.642C298.679 165.004 300.484 164.501 302.316 164.141C302.762 164.053 303.21 163.975 303.659 163.903C303.859 163.872 304.135 163.783 304.336 163.803C303.513 163.728 304.062 163.842 304.361 163.808C305.281 163.703 306.203 163.635 307.128 163.6C309.072 163.527 311 163.632 312.932 163.835C313.734 163.92 312.158 163.712 312.955 163.837C313.18 163.872 313.406 163.905 313.631 163.942C314.078 164.015 314.526 164.098 314.97 164.188C315.889 164.375 316.801 164.598 317.704 164.854C318.526 165.089 319.34 165.352 320.143 165.646C320.561 165.797 320.972 165.962 321.386 166.124C322.113 166.407 320.696 165.814 321.408 166.13C321.678 166.25 321.947 166.368 322.213 166.492C323.874 167.261 325.476 168.156 327.002 169.165C327.366 169.407 327.727 169.655 328.084 169.908C328.3 170.063 328.844 170.316 328.962 170.556C328.852 170.471 328.744 170.386 328.634 170.301C328.749 170.391 328.864 170.481 328.977 170.571C329.147 170.708 329.316 170.844 329.485 170.984C329.877 171.309 330.262 171.641 330.641 171.982C331.992 173.198 333.252 174.512 334.41 175.913C334.549 176.081 334.686 176.251 334.822 176.421C334.867 176.478 334.912 176.536 334.957 176.593C335.177 176.874 335.137 176.823 334.837 176.436C335.122 176.589 335.423 177.229 335.611 177.496C336.115 178.212 336.593 178.946 337.044 179.696C337.496 180.449 337.922 181.218 338.32 182.003C338.52 182.396 338.711 182.793 338.897 183.194C338.99 183.394 339.08 183.595 339.17 183.799C339.23 183.934 339.288 184.068 339.346 184.205C339.155 183.749 339.129 183.689 339.267 184.024C339.942 185.763 340.53 187.523 340.957 189.342C341.147 190.152 341.31 190.966 341.445 191.787C341.481 192.012 341.515 192.239 341.55 192.464C341.673 193.26 341.466 191.683 341.551 192.487C341.608 193.022 341.668 193.556 341.708 194.093C341.854 196.032 341.847 197.982 341.689 199.92C341.651 200.379 341.599 200.837 341.551 201.295C341.466 202.098 341.674 200.521 341.55 201.319C341.515 201.544 341.481 201.77 341.445 201.995C341.298 202.89 341.117 203.779 340.904 204.659C340.693 205.531 340.45 206.394 340.175 207.249C340.039 207.674 339.894 208.095 339.743 208.513C339.608 208.884 339.461 209.689 339.182 209.962C339.237 209.832 339.292 209.704 339.346 209.574C339.288 209.709 339.23 209.846 339.17 209.981C339.08 210.182 338.99 210.384 338.897 210.585C338.713 210.985 338.52 211.383 338.32 211.776C337.889 212.626 337.425 213.457 336.931 214.27C336.513 214.954 336.072 215.627 335.611 216.284C335.423 216.55 335.122 217.19 334.837 217.343C334.922 217.233 335.007 217.125 335.092 217.015C335.002 217.13 334.912 217.245 334.822 217.358C334.641 217.586 334.458 217.811 334.27 218.034C333.105 219.429 331.836 220.736 330.478 221.944C330.152 222.234 329.821 222.518 329.485 222.795C329.316 222.935 329.147 223.071 328.977 223.208C328.912 223.26 328.333 223.636 328.797 223.351C329.267 223.063 328.673 223.441 328.611 223.486C328.436 223.616 328.258 223.744 328.08 223.871C327.664 224.168 327.243 224.456 326.816 224.734C325.283 225.735 323.674 226.619 322.009 227.379C321.807 227.471 321.604 227.559 321.403 227.649C320.691 227.965 322.108 227.372 321.381 227.656C320.967 227.817 320.556 227.982 320.138 228.134C319.3 228.438 318.45 228.712 317.591 228.955C316.724 229.2 315.849 229.411 314.965 229.591C314.521 229.681 314.073 229.764 313.626 229.838C313.401 229.874 313.175 229.908 312.95 229.943C312.581 229.994 312.649 229.986 313.155 229.916C313.004 229.934 312.852 229.953 312.699 229.971C310.772 230.189 308.829 230.256 306.89 230.171C306.043 230.134 305.198 230.068 304.356 229.971C304.057 229.938 303.508 230.051 304.331 229.976C304.13 229.994 303.854 229.908 303.654 229.876C303.13 229.793 302.609 229.699 302.09 229.593C300.26 229.221 298.459 228.708 296.709 228.059C296.393 227.942 295.704 227.814 295.469 227.574C295.599 227.629 295.727 227.684 295.857 227.739C295.722 227.681 295.586 227.622 295.451 227.562C295.25 227.472 295.048 227.382 294.847 227.289C294.048 226.919 293.263 226.52 292.493 226.093C291.726 225.668 290.975 225.215 290.24 224.736C289.874 224.496 289.511 224.251 289.153 223.999C288.975 223.873 288.797 223.746 288.621 223.616C288.428 223.475 287.609 223.033 288.423 223.48C287.701 223.085 287.027 222.349 286.416 221.799C285.714 221.168 285.037 220.508 284.384 219.825C283.834 219.245 283.3 218.649 282.787 218.036C282.523 217.718 282.163 217.38 281.965 217.017C282.376 217.771 282.098 217.185 281.958 216.995C281.785 216.76 281.614 216.524 281.448 216.285C280.396 214.789 279.456 213.217 278.639 211.581C278.443 211.187 278.251 210.788 278.068 210.387C277.977 210.185 277.889 209.982 277.799 209.781C277.483 209.068 278.075 210.487 277.792 209.759C277.469 208.929 277.155 208.098 276.882 207.25C276.306 205.461 275.87 203.627 275.577 201.77C275.546 201.57 275.458 201.294 275.478 201.092C275.403 201.917 275.516 201.367 275.483 201.067C275.431 200.609 275.388 200.149 275.353 199.69C275.283 198.759 275.251 197.826 275.248 196.891C275.243 195.149 273.72 193.48 271.92 193.56C270.13 193.636 268.594 195.021 268.601 196.888Z" fill="white"/>
<path d="M330.804 194.629H331.084C330.19 191.841 328.738 189.307 326.857 187.16C328.664 190.278 329.701 193.905 329.701 197.776C329.701 209.429 320.315 218.876 308.736 218.876C302.469 218.876 294.371 213.822 290.529 209.436C294.163 215.706 303.393 222.207 311.127 222.207C324.183 222.207 332.092 212.952 332.827 201.479L330.804 201.109V194.629Z" fill="#D3D3D3"/>
<path d="M327.503 195.222V201.052H328.668C328.668 199.018 328.347 197.059 327.756 195.222H327.503Z" fill="#C1C1C1"/>
<path d="M325.839 195.222C325.839 197.166 325.839 199.109 325.839 201.052C325.839 201.954 326.601 202.718 327.503 202.718C327.89 202.718 328.28 202.718 328.668 202.718C329.561 202.718 330.338 201.955 330.331 201.052C330.315 198.927 329.995 196.808 329.36 194.779C329.14 194.076 328.504 193.557 327.756 193.557C327.671 193.557 327.588 193.557 327.503 193.557C325.361 193.557 325.358 196.888 327.503 196.888C327.588 196.888 327.671 196.888 327.756 196.888C327.222 196.48 326.686 196.074 326.152 195.665C326.704 197.429 326.99 199.205 327.005 201.052C327.559 200.498 328.115 199.941 328.669 199.387C328.281 199.387 327.892 199.387 327.504 199.387C328.059 199.941 328.614 200.498 329.168 201.052C329.168 199.109 329.168 197.166 329.168 195.222C329.167 193.079 325.839 193.075 325.839 195.222Z" fill="#C1C1C1"/>
<path opacity="0.3" d="M337.643 196.988C337.533 198.507 336.07 199.72 334.293 199.72H328.245V202.718H336.789C338.638 202.718 340.149 201.406 340.149 199.803C340.149 198.456 339.079 197.318 337.643 196.988Z" fill="#AFAFAF"/>
<path d="M308.368 217.766C319.947 217.766 329.333 208.319 329.333 196.666C329.333 185.013 319.947 175.567 308.368 175.567C296.789 175.567 287.403 185.013 287.403 196.666C287.403 208.319 296.789 217.766 308.368 217.766Z" fill="#70574C"/>
<path d="M326.837 196.666C326.834 197.209 326.817 197.752 326.776 198.294C326.759 198.524 326.734 198.752 326.713 198.982C326.704 199.075 326.651 199.475 326.718 198.998C326.696 199.148 326.674 199.298 326.649 199.448C326.481 200.482 326.235 201.505 325.914 202.503C325.768 202.961 325.598 203.409 325.426 203.859C325.288 204.222 325.579 203.517 325.423 203.872C325.378 203.972 325.335 204.074 325.288 204.174C325.167 204.44 325.04 204.705 324.909 204.965C324.45 205.874 323.922 206.751 323.337 207.583C323.212 207.762 323.082 207.937 322.954 208.112C323.248 207.715 322.817 208.28 322.739 208.373C322.395 208.791 322.034 209.196 321.656 209.587C321.33 209.925 320.992 210.252 320.646 210.568C320.46 210.738 320.268 210.905 320.075 211.068C319.969 211.158 319.347 211.651 319.734 211.356C318.955 211.949 318.135 212.486 317.282 212.964C316.837 213.212 316.383 213.445 315.921 213.662C315.809 213.713 315.147 213.997 315.613 213.807C315.375 213.903 315.135 213.997 314.894 214.085C313.921 214.443 312.919 214.728 311.902 214.934C311.644 214.988 311.386 215.034 311.127 215.078C311.015 215.096 310.904 215.113 310.792 215.129C310.398 215.189 311.18 215.088 310.781 215.129C310.248 215.184 309.716 215.231 309.18 215.252C308.102 215.294 307.027 215.246 305.955 215.129C305.659 215.098 306.015 215.141 306.055 215.146C305.905 215.124 305.757 215.101 305.608 215.078C305.385 215.041 305.163 215.001 304.944 214.956C304.396 214.848 303.852 214.716 303.315 214.563C302.854 214.431 302.396 214.285 301.945 214.121C301.704 214.035 301.465 213.942 301.225 213.847C300.957 213.74 301.28 213.872 301.315 213.887C301.147 213.813 300.98 213.738 300.816 213.662C299.894 213.23 299.004 212.734 298.153 212.173C297.761 211.914 297.376 211.643 297.002 211.356C297.378 211.643 296.857 211.233 296.744 211.138C296.523 210.953 296.305 210.763 296.09 210.568C295.368 209.912 294.691 209.208 294.067 208.458C294.009 208.388 293.581 207.848 293.721 208.032C293.86 208.215 293.468 207.68 293.4 207.585C293.107 207.169 292.829 206.742 292.568 206.308C292.305 205.869 292.058 205.423 291.827 204.967C291.727 204.77 291.632 204.574 291.539 204.374C291.486 204.26 291.168 203.502 291.351 203.961C290.967 202.994 290.644 202.008 290.4 200.997C290.276 200.486 290.172 199.968 290.087 199.448C290.06 199.288 290.002 198.772 290.048 199.21C290.015 198.905 289.982 198.6 289.959 198.295C289.875 197.213 289.877 196.123 289.959 195.042C289.979 194.774 290.009 194.508 290.035 194.241C290.065 193.945 290.023 194.298 290.019 194.338C290.038 194.188 290.062 194.038 290.087 193.888C290.172 193.368 290.276 192.85 290.4 192.339C290.644 191.328 290.967 190.342 291.351 189.375C291.182 189.805 291.433 189.196 291.494 189.062C291.586 188.862 291.681 188.664 291.779 188.468C292.024 187.978 292.286 187.498 292.568 187.03C292.811 186.625 293.068 186.229 293.338 185.841C293.483 185.633 293.633 185.428 293.784 185.224C293.506 185.599 293.962 185.006 294.067 184.878C294.714 184.102 295.42 183.37 296.172 182.694C296.333 182.549 296.496 182.406 296.662 182.268C296.772 182.175 296.885 182.085 296.997 181.991C297.022 181.971 297.305 181.746 297.085 181.918C296.902 182.06 297.454 181.648 297.528 181.595C297.764 181.427 298.004 181.263 298.245 181.105C299.067 180.569 299.927 180.091 300.816 179.676C300.949 179.614 301.553 179.356 301.123 179.531C301.361 179.434 301.601 179.341 301.842 179.253C302.326 179.075 302.819 178.915 303.315 178.773C303.816 178.63 304.323 178.507 304.834 178.402C305.055 178.357 305.275 178.315 305.498 178.277C305.646 178.252 305.796 178.228 305.944 178.205C306.338 178.145 305.558 178.247 305.955 178.205C307.029 178.093 308.102 178.042 309.18 178.082C309.678 178.1 310.172 178.142 310.668 178.192C311.163 178.24 310.782 178.203 310.681 178.188C310.792 178.205 310.906 178.222 311.017 178.24C311.313 178.287 311.609 178.342 311.904 178.402C312.92 178.61 313.921 178.893 314.896 179.251C315.137 179.339 315.376 179.433 315.614 179.529C315.218 179.368 315.679 179.561 315.822 179.628C316.318 179.856 316.806 180.104 317.282 180.371C317.693 180.6 318.097 180.845 318.493 181.102C318.706 181.24 318.916 181.383 319.122 181.528C319.21 181.592 319.298 181.653 319.386 181.718C319.435 181.753 319.902 182.11 319.653 181.915C319.468 181.77 319.916 182.131 319.992 182.194C320.187 182.356 320.378 182.523 320.566 182.691C320.969 183.052 321.358 183.43 321.733 183.824C322.057 184.163 322.37 184.515 322.671 184.875C322.746 184.965 323.157 185.484 323.017 185.301C322.849 185.08 323.065 185.369 323.084 185.394C323.167 185.513 323.253 185.629 323.338 185.747C323.924 186.58 324.45 187.457 324.911 188.366C325.027 188.594 325.137 188.826 325.245 189.057C325.307 189.192 325.563 189.814 325.388 189.37C325.579 189.852 325.758 190.337 325.917 190.828C326.238 191.826 326.483 192.848 326.653 193.883C326.678 194.033 326.701 194.183 326.721 194.333C326.716 194.293 326.673 193.938 326.704 194.236C326.733 194.503 326.761 194.769 326.781 195.037C326.817 195.58 326.834 196.123 326.837 196.666C326.844 197.972 327.981 199.225 329.333 199.165C330.679 199.105 331.837 198.067 331.829 196.666C331.776 186.777 325.566 177.92 316.325 174.469C307.27 171.087 296.511 174.027 290.401 181.51C287.255 185.361 285.383 189.96 284.979 194.924C284.588 199.731 285.779 204.697 288.26 208.826C293.375 217.343 303.411 221.704 313.12 219.773C322.441 217.919 330.065 209.962 331.498 200.551C331.694 199.262 331.822 197.972 331.829 196.666C331.836 195.359 330.676 194.108 329.333 194.168C327.976 194.228 326.846 195.265 326.837 196.666Z" fill="white"/>
<path d="M336.661 199.886H327.669V194.056H336.661C338.262 194.056 339.573 195.369 339.573 196.971C339.573 198.574 338.262 199.886 336.661 199.886Z" fill="white" stroke="white" stroke-width="2" stroke-miterlimit="10"/>
<path d="M244.883 174.439H243.787V230.816C243.787 231.553 243.189 232.151 242.452 232.151H98.4647C98.2184 232.151 97.9788 232.123 97.7476 232.07C97.9306 233.647 99.27 234.873 100.896 234.873H244.883C245.62 234.873 246.218 234.275 246.218 233.537V175.777C246.219 175.039 245.622 174.439 244.883 174.439Z" fill="#D3D3D3"/>
<path d="M9.06637 230.132H52.4311C53.8354 230.132 54.9735 228.993 54.9735 227.587V168.446C54.9735 167.04 53.8354 165.9 52.4311 165.9H9.06637C7.66204 165.9 6.52393 167.04 6.52393 168.446V227.587C6.52393 228.993 7.66204 230.132 9.06637 230.132Z" fill="#D3D3D3"/>
<path d="M8.22287 229.145H51.5876C52.9919 229.145 54.13 228.005 54.13 226.599V167.458C54.13 166.052 52.9919 164.913 51.5876 164.913H8.22287C6.81853 164.913 5.68042 166.052 5.68042 167.458V226.599C5.68042 228.005 6.81853 229.145 8.22287 229.145Z" fill="white"/>
<path d="M45.7405 179.241H14.0714C13.7303 179.241 13.4541 178.965 13.4541 178.623C13.4541 178.282 13.7303 178.005 14.0714 178.005H45.7405C46.0816 178.005 46.3578 178.282 46.3578 178.623C46.3562 178.965 46.0799 179.241 45.7405 179.241Z" fill="#E8E8E8"/>
<path d="M45.719 181.795H14.0499C13.7088 181.795 13.4326 181.519 13.4326 181.177C13.4326 180.836 13.7088 180.559 14.0499 180.559H45.719C46.0601 180.559 46.3363 180.836 46.3363 181.177C46.3363 181.519 46.0601 181.795 45.719 181.795Z" fill="#E8E8E8"/>
<path d="M45.2446 175.7H14.5256C13.9233 175.7 13.4341 175.21 13.4341 174.607V170.288C13.4341 169.685 13.9233 169.195 14.5256 169.195H45.2446C45.847 169.195 46.3361 169.685 46.3361 170.288V174.607C46.3361 175.21 45.847 175.7 45.2446 175.7Z" fill="#AA0E19"/>
<path d="M45.2446 193.488H14.5256C13.9233 193.488 13.4341 192.998 13.4341 192.395V188.076C13.4341 187.473 13.9233 186.983 14.5256 186.983H45.2446C45.847 186.983 46.3361 187.473 46.3361 188.076V192.395C46.3361 192.998 45.847 193.488 45.2446 193.488Z" fill="#DBDBDB"/>
<path d="M45.2446 224.286H14.5256C13.9233 224.286 13.4341 223.796 13.4341 223.193V218.874C13.4341 218.271 13.9233 217.781 14.5256 217.781H45.2446C45.847 217.781 46.3361 218.271 46.3361 218.874V223.193C46.3361 223.796 45.847 224.286 45.2446 224.286Z" fill="#DBDBDB"/>
<path d="M45.719 184.347H14.0499C13.7088 184.347 13.4326 184.07 13.4326 183.729C13.4326 183.387 13.7088 183.111 14.0499 183.111H45.719C46.0601 183.111 46.3363 183.387 46.3363 183.729C46.3363 184.07 46.0601 184.347 45.719 184.347Z" fill="#E8E8E8"/>
<path d="M17.1315 206.111L19.1315 203.009C18.5558 202.64 17.8702 202.423 17.1348 202.423C15.0899 202.423 13.4326 204.082 13.4326 206.129C13.4326 208.177 15.0899 209.836 17.1348 209.836C19.1797 209.836 20.837 208.177 20.837 206.129C20.837 205.823 20.7987 205.523 20.7288 205.238L17.1315 206.111Z" fill="#E8E8E8"/>
<path d="M20.7287 205.252C20.4991 204.319 19.9167 203.528 19.1314 203.023L17.1313 206.124L20.7287 205.252Z" fill="#DBDBDB"/>
<path d="M31.1115 205.838L36.2579 204.734C35.6606 201.84 33.1331 199.657 30.0832 199.585L29.9102 206.093L33.0799 205.412L31.1115 205.838Z" fill="#FCB06B"/>
<path d="M31.1115 205.861L29.9119 206.119V206.118L29.9069 206.119L30.0799 199.61C30.0283 199.608 29.9784 199.606 29.9268 199.606C26.3611 199.606 23.4692 202.503 23.4692 206.076C23.4692 209.649 26.3594 212.546 29.9268 212.546C32.7738 212.546 35.1898 210.7 36.05 208.137L29.9119 206.121L31.1115 205.861Z" fill="#FFE3B0"/>
<path d="M31.1115 205.838L33.0816 205.413L29.9119 206.094L31.1115 205.838Z" fill="#E58B41"/>
<path d="M36.2497 204.734L33.0833 205.413L29.9119 206.096L36.05 208.112C36.2663 207.464 36.3845 206.771 36.3845 206.051C36.3828 205.6 36.3362 205.158 36.2497 204.734Z" fill="#E58B41"/>
<path d="M46.338 206.108C46.338 204.049 44.6708 202.38 42.6142 202.38C40.5643 202.38 38.902 204.037 38.8904 206.086H42.6358V209.836C44.6808 209.824 46.338 208.16 46.338 206.108Z" fill="#E8E8E8"/>
<path d="M38.8904 206.086C38.8904 206.093 38.8904 206.101 38.8904 206.108C38.8904 208.166 40.5576 209.836 42.6142 209.836C42.6209 209.836 42.6292 209.836 42.6358 209.836V206.086H38.8904Z" fill="#DBDBDB"/>
<path d="M67.022 166.099C67.022 166.912 67.6875 167.578 68.4995 167.578H70.2682C71.0802 167.578 71.7458 166.912 71.7458 166.099V148.627H67.022V166.099Z" fill="#D3D3D3"/>
<path d="M71.7343 130.728L67.0105 130.736L67.0336 146.157L71.7575 146.15L71.7343 130.728Z" fill="#D3D3D3"/>
<path d="M71.7458 146.155H67.022V148.628H71.7458V146.155Z" fill="#D3D3D3"/>
<path d="M71.7458 130.732L70.3049 128.212L68.4579 128.178L67.022 130.732H71.7458Z" fill="#D3D3D3"/>
<path d="M69.2334 126.803L68.458 128.18L70.3049 128.214L69.4996 126.803C69.4397 126.698 69.2916 126.699 69.2334 126.803Z" fill="#D3D3D3"/>
<path d="M65.9138 165.444C65.9138 166.257 66.5794 166.923 67.3914 166.923H69.1601C69.9721 166.923 70.6376 166.257 70.6376 165.444V147.972H65.9138V165.444Z" fill="#FCB06B"/>
<path d="M70.6262 130.074L65.9023 130.081L65.9255 145.502L70.6493 145.495L70.6262 130.074Z" fill="#AA0E19"/>
<path d="M70.6376 145.499H65.9138V147.972H70.6376V145.499Z" fill="#AA0E19"/>
<path d="M82.1916 176.737L81.3125 176.39L80.6353 178.108L81.5144 178.455L82.1916 176.737Z" fill="#D3D3D3"/>
<path d="M76.25 177.629C75.8989 178.52 76.1735 179.469 76.8607 179.741L78.3548 180.331C79.042 180.602 79.8906 180.096 80.2417 179.205L87.7792 160.079L83.7892 158.503L76.25 177.629Z" fill="#D3D3D3"/>
<path d="M89.7377 143.383L84.6223 156.42L88.615 157.99L93.7304 144.953L89.7377 143.383Z" fill="#D3D3D3"/>
<path d="M84.6094 156.417L83.7856 158.507L87.7758 160.083L88.5995 157.993L84.6094 156.417Z" fill="#D3D3D3"/>
<path d="M87.6959 166.163L88.1002 166.323L83.4496 178.125C83.2433 178.648 82.6526 178.905 82.1318 178.698L81.5261 178.46L86.0985 166.858C86.3481 166.225 87.0636 165.914 87.6959 166.163Z" fill="#D3D3D3"/>
<path d="M93.8475 138.801L89.7227 143.382L93.736 144.966L93.8475 138.801Z" fill="#D3D3D3"/>
<path d="M93.3066 139.509L93.733 139.678L94.0694 138.824C94.1027 138.737 94.061 138.639 93.9744 138.604L93.8629 138.561C93.7763 138.527 93.678 138.569 93.643 138.656L93.3066 139.509Z" fill="#D3D3D3"/>
<path d="M70.6376 130.078L69.1967 127.557L67.3514 127.524L65.9138 130.078H70.6376Z" fill="#F4F4F4"/>
<path d="M68.125 126.146L67.3496 127.524L69.1965 127.557L68.3912 126.146C68.3313 126.043 68.1832 126.043 68.125 126.146Z" fill="#565656"/>
<path d="M86.9989 165.258L87.4032 165.418L82.7526 177.219C82.5463 177.742 81.9556 177.999 81.4348 177.792L80.8291 177.554L85.4015 165.952C85.6511 165.319 86.3666 165.008 86.9989 165.258Z" fill="#565656"/>
<path d="M81.4944 175.831L80.6152 175.484L79.938 177.202L80.8172 177.549L81.4944 175.831Z" fill="#565656"/>
<path d="M75.5513 176.723C75.2002 177.614 75.4747 178.563 76.1619 178.835L77.6561 179.424C78.3433 179.696 79.1919 179.189 79.543 178.298L87.0805 159.172L83.0904 157.597L75.5513 176.723Z" fill="#FCB06B"/>
<path d="M89.039 142.475L83.9236 155.513L87.9163 157.083L93.0317 144.045L89.039 142.475Z" fill="#7C0A02"/>
<path d="M83.9117 155.511L83.0879 157.602L87.078 159.178L87.9018 157.087L83.9117 155.511Z" fill="#FFE3B0"/>
<path d="M93.1485 137.895L89.0254 142.475L93.0371 144.059L93.1485 137.895Z" fill="#E8E8E8"/>
<path d="M92.6094 138.604L93.0357 138.772L93.3721 137.918C93.4054 137.832 93.3638 137.733 93.2772 137.698L93.1656 137.655C93.079 137.622 92.9807 137.663 92.9458 137.75L92.6094 138.604Z" fill="#565656"/>
<path d="M201.73 159.422V142.893C201.73 142.464 201.382 142.114 200.951 142.114H173.053C172.623 142.114 172.274 142.462 172.274 142.893V164.479C172.274 164.909 172.622 165.259 173.053 165.259H195.495V160.202C195.495 159.772 195.843 159.422 196.274 159.422H201.73Z" fill="#D3D3D3"/>
<path d="M201.73 159.422H195.494V165.259H199.424C200.697 165.259 201.728 164.226 201.728 162.952V159.422H201.73Z" fill="#D3D3D3"/>
<path d="M199.905 157.9V141.273C199.905 140.898 199.6 140.593 199.226 140.593H171.128C170.753 140.593 170.449 140.898 170.449 141.273V163.057C170.449 163.432 170.753 163.737 171.128 163.737H193.669V157.9H199.905Z" fill="#FFE3B0"/>
<path d="M193.668 157.9V163.737L199.905 157.9H193.668Z" fill="white"/>
<path d="M194.495 145.212H175.959C175.41 145.212 174.961 144.763 174.961 144.213V144.181C174.961 143.631 175.41 143.182 175.959 143.182H194.495C195.044 143.182 195.494 143.631 195.494 144.181V144.213C195.494 144.763 195.044 145.212 194.495 145.212Z" fill="white"/>
<path d="M194.495 154.753H175.959C175.41 154.753 174.961 154.304 174.961 153.754V153.672C174.961 153.123 175.41 152.673 175.959 152.673H194.495C195.044 152.673 195.494 153.123 195.494 153.672V153.754C195.494 154.304 195.044 154.753 194.495 154.753Z" fill="white"/>
<path d="M194.495 149.983H175.959C175.41 149.983 174.961 149.533 174.961 148.983V148.902C174.961 148.352 175.41 147.902 175.959 147.902H194.495C195.044 147.902 195.494 148.352 195.494 148.902V148.983C195.494 149.533 195.044 149.983 194.495 149.983Z" fill="white"/>
<path d="M190.287 159.982H175.959C175.41 159.982 174.961 159.532 174.961 158.983V158.901C174.961 158.351 175.41 157.902 175.959 157.902H190.287C190.836 157.902 191.285 158.351 191.285 158.901V158.983C191.285 159.532 190.836 159.982 190.287 159.982Z" fill="white"/>
<path d="M243.494 153.925V137.397C243.494 136.967 243.146 136.617 242.715 136.617H214.817C214.388 136.617 214.038 136.965 214.038 137.397V158.983C214.038 159.412 214.386 159.762 214.817 159.762H237.26V154.705C237.26 154.275 237.607 153.925 238.038 153.925H243.494Z" fill="#D3D3D3"/>
<path d="M243.494 153.926H237.258V159.762H241.188C242.461 159.762 243.492 158.73 243.492 157.455V153.926H243.494Z" fill="#D3D3D3"/>
<path d="M241.669 152.403V135.776C241.669 135.401 241.364 135.096 240.99 135.096H212.892C212.517 135.096 212.213 135.401 212.213 135.776V157.56C212.213 157.935 212.517 158.24 212.892 158.24H235.432V152.403H241.669Z" fill="#FCB06B"/>
<path d="M235.432 152.403V158.24L241.669 152.403H235.432Z" fill="white"/>
<path d="M235.924 139.715H222.032C221.298 139.715 220.698 139.265 220.698 138.716V138.684C220.698 138.134 221.298 137.685 222.032 137.685H235.924C236.658 137.685 237.258 138.134 237.258 138.684V138.716C237.258 139.265 236.658 139.715 235.924 139.715Z" fill="white"/>
<path d="M236.259 149.257H217.723C217.174 149.257 216.725 148.807 216.725 148.257V148.176C216.725 147.626 217.174 147.176 217.723 147.176H236.259C236.808 147.176 237.258 147.626 237.258 148.176V148.257C237.258 148.807 236.808 149.257 236.259 149.257Z" fill="white"/>
<path d="M236.259 144.486H217.723C217.174 144.486 216.725 144.036 216.725 143.486V143.405C216.725 142.855 217.174 142.405 217.723 142.405H236.259C236.808 142.405 237.258 142.855 237.258 143.405V143.486C237.258 144.036 236.808 144.486 236.259 144.486Z" fill="white"/>
<path d="M232.051 154.485H217.723C217.174 154.485 216.725 154.036 216.725 153.486V153.404C216.725 152.855 217.174 152.405 217.723 152.405H232.051C232.6 152.405 233.05 152.855 233.05 153.404V153.486C233.05 154.036 232.6 154.485 232.051 154.485Z" fill="white"/>
<path d="M316.814 47.0532H316.123C315.739 47.0532 315.398 47.3035 315.284 47.6706L298.464 101.267C297.408 104.578 294.329 106.828 290.85 106.828L50.9667 106.919C50.4107 106.919 49.864 106.861 49.336 106.749C48.6726 106.608 48.1166 107.263 48.3408 107.904C49.4739 111.092 52.4922 113.22 55.8773 113.22L211.192 113.162L294.42 112.661C296.461 112.427 296.695 112.193 297.896 111.681C298.788 111.302 299.174 110.977 299.732 110.554C300.288 110.131 300.433 110.086 301.143 109.197C301.736 108.456 302.299 107.747 302.755 106.594L320.708 52.3434C321.528 49.7217 319.566 47.0532 316.814 47.0532Z" fill="#D3D3D3"/>
<path d="M319.676 38.1657L18.5454 38.2803L22.344 30.752C23.164 29.1289 24.825 28.1045 26.6425 28.1022L311.63 27.9946C313.41 27.9946 315.038 28.9956 315.842 30.5859L319.676 38.1657Z" fill="#7A7A7A"/>
<path d="M290.151 106.349L50.268 106.44C46.8829 106.442 43.8646 104.309 42.7316 101.115L21.4656 40.2661L316.755 40.1538L297.763 100.778C296.707 104.097 293.628 106.349 290.151 106.349Z" fill="#DBDBDB"/>
<path d="M290.151 102.841C286.689 102.843 283.225 102.843 279.763 102.845C270.64 102.848 261.515 102.852 252.392 102.855C239.506 102.859 226.617 102.864 213.731 102.869C198.978 102.873 184.226 102.88 169.47 102.885C154.795 102.89 140.119 102.897 125.441 102.901C112.636 102.906 99.8343 102.911 87.0298 102.915C78.066 102.918 69.1045 102.922 60.1407 102.925C57.6527 102.925 55.1647 102.927 52.6767 102.927C51.4899 102.927 49.9831 103.011 49.1421 102.787C47.3246 102.296 46.4532 101.171 45.8084 99.3232C45.2547 97.7376 44.6987 96.1496 44.1451 94.5639C42.0916 88.6867 40.0358 82.8072 37.9823 76.93C33.8543 65.1172 29.7263 53.2996 25.596 41.4821C25.346 40.7665 25.096 40.0508 24.8461 39.3328C23.72 40.8132 22.594 42.2936 21.4657 43.7741C24.1125 43.7741 26.7594 43.7717 29.4086 43.7717C36.5479 43.7694 43.6895 43.767 50.8288 43.7647C61.456 43.76 72.0855 43.7577 82.7126 43.753C95.5895 43.7483 108.469 43.7436 121.346 43.739C135.547 43.7343 149.746 43.7273 163.948 43.7226C178.184 43.7179 192.423 43.7109 206.66 43.7062C220.025 43.7016 233.392 43.6969 246.757 43.6899C257.976 43.6852 269.196 43.6805 280.414 43.6782C288.537 43.6758 296.66 43.6711 304.783 43.6688C308.598 43.6665 312.441 43.7998 316.253 43.6641C316.419 43.6571 316.587 43.6641 316.756 43.6641C315.63 42.1837 314.504 40.7033 313.378 39.2229C311.013 46.7699 308.647 54.3193 306.283 61.8664C302.813 72.9402 299.344 84.0163 295.873 95.0901C295.434 96.4934 294.997 97.8989 294.553 99.3022C293.85 101.524 292.336 102.785 290.151 102.841C285.65 102.958 285.633 109.976 290.151 109.857C295.291 109.721 299.517 106.531 301.155 101.674C301.423 100.878 301.657 100.072 301.907 99.2718C303.302 94.8165 304.699 90.3636 306.093 85.9083C309.857 73.899 313.618 61.8897 317.382 49.8804C318.3 46.9477 319.218 44.0173 320.138 41.0845C320.825 38.8955 318.97 36.6433 316.76 36.6433C314.113 36.6433 311.467 36.6456 308.817 36.6456C301.678 36.648 294.536 36.6503 287.397 36.6527C276.77 36.6573 266.14 36.6597 255.513 36.6644C242.636 36.669 229.757 36.6737 216.88 36.6784C202.679 36.6831 188.48 36.6901 174.278 36.6948C160.042 36.6994 145.803 36.7065 131.566 36.7111C118.201 36.7158 104.834 36.7205 91.4685 36.7275C80.2503 36.7322 69.0298 36.7369 57.8116 36.7392C49.6887 36.7415 41.5659 36.7462 33.4431 36.7486C29.6212 36.7509 25.7946 36.6877 21.9726 36.7532C21.8044 36.7556 21.6385 36.7532 21.4703 36.7532C19.3211 36.7532 17.3283 39.0124 18.0923 41.1944C21.3115 50.409 24.533 59.6259 27.7523 68.8404C31.5438 79.692 35.3354 90.5413 39.127 101.393C40.9282 106.547 45.0725 109.915 50.6442 109.943C52.1978 109.95 53.7513 109.941 55.3025 109.941C62.888 109.939 70.4712 109.936 78.0567 109.932C90.0668 109.927 102.077 109.922 114.085 109.918C128.52 109.913 142.957 109.906 157.392 109.901C172.419 109.897 187.445 109.89 202.471 109.885C216.109 109.88 229.748 109.875 243.384 109.868C253.698 109.864 264.015 109.861 274.329 109.857C279.379 109.854 284.433 109.852 289.483 109.852C289.705 109.852 289.927 109.852 290.151 109.852C294.66 109.857 294.667 102.841 290.151 102.841Z" fill="#333333"/>
<path d="M150.529 102.894L208.384 102.873L184.214 43.7134L129.632 43.7344L150.529 102.894Z" fill="#E8E8E8"/>
<path d="M50.2262 102.932L98.1173 102.913L76.2836 43.7529L26.374 43.7716L46.0187 99.8937C46.486 101.531 48.1236 102.934 50.2262 102.932Z" fill="#E8E8E8"/>
<path d="M130.893 102.902L141.102 102.899L119.636 43.7368L109.541 43.7415L130.893 102.902Z" fill="#E8E8E8"/>
<path d="M56.0407 36.7463L46.9297 36.7487L49.2612 28.0955L58.3722 28.0908L56.0407 36.7463Z" fill="#AFAFAF"/>
<path d="M284.283 36.6574L275.172 36.6621L272.831 28.0089L281.942 28.0066L284.283 36.6574Z" fill="#AFAFAF"/>
<path d="M61.1803 36.7439H57.9097L60.2411 28.0907L63.5118 28.0884L61.1803 36.7439Z" fill="#AFAFAF"/>
<path d="M271.434 36.6646H269.799L267.458 28.0112H269.093L271.434 36.6646Z" fill="#AFAFAF"/>
<path d="M290.591 36.6551L287.086 36.6575L284.746 28.0042H288.25L290.591 36.6551Z" fill="#AFAFAF"/>
<path d="M204.503 129.535L133.788 129.56C130.092 129.563 127.093 126.562 127.093 122.862L127.088 109.918L211.189 109.885L211.194 122.83C211.194 126.534 208.199 129.535 204.503 129.535Z" fill="#7A7A7A"/>
<path d="M211.192 118.089H127.09V121.597H211.192V118.089Z" fill="#AFAFAF"/>
<path d="M211.189 109.904H127.088V113.178H211.189V109.904Z" fill="#565656"/>
</svg>
