<svg width="265" height="326" viewBox="0 0 265 326" fill="none" xmlns="http://www.w3.org/2000/svg">
<g clip-path="url(#clip0)">
<g clip-path="url(#clip1)">
<path d="M179.919 268.302H155.919C153.709 268.302 151.919 270.092 151.919 272.302V276.302C151.919 285.126 159.094 292.301 167.919 292.301C176.744 292.301 183.919 285.126 183.919 276.302V272.302C183.919 270.092 182.129 268.302 179.919 268.302Z" fill="#DBDBDB"/>
<path d="M167.914 268.302H155.919C153.709 268.302 151.919 270.092 151.919 272.302V276.302C151.919 285.126 159.094 292.296 167.914 292.301V268.302Z" fill="#8C8C8C"/>
<path d="M230.904 61.2511C212.209 43.6764 187.719 34.8766 162.039 36.4916C115.234 39.4015 77.4186 78.4457 75.9586 125.375C74.8786 160.149 93.1486 192.164 123.629 208.933C131.209 213.103 135.914 221.118 135.914 229.848V260.302C135.914 269.127 143.089 276.302 151.914 276.302H183.914C192.739 276.302 199.914 269.127 199.914 260.302V229.848C199.914 221.123 204.654 213.093 212.299 208.883C241.669 192.679 259.914 161.804 259.914 128.305C259.914 103.015 249.344 78.5757 230.904 61.2511Z" fill="#FDCE72"/>
<path d="M167.914 192.303C203.26 192.303 231.914 163.65 231.914 128.304C231.914 92.9589 203.26 64.3057 167.914 64.3057C132.567 64.3057 103.914 92.9589 103.914 128.304C103.914 163.65 132.567 192.303 167.914 192.303Z" fill="#FFE3B0"/>
<path d="M181.904 152.304C176.589 152.304 173.869 149.204 171.889 146.939C170.144 144.949 169.449 144.304 167.889 144.304C166.339 144.304 165.649 144.949 163.909 146.939C162.044 149.074 159.219 152.304 153.899 152.304C148.589 152.304 145.764 149.074 143.894 146.939C142.154 144.949 141.464 144.304 139.914 144.304C137.704 144.304 135.914 142.514 135.914 140.304C135.914 138.094 137.704 136.304 139.914 136.304C145.224 136.304 148.049 139.534 149.919 141.669C151.659 143.659 152.349 144.304 153.899 144.304C155.449 144.304 156.144 143.659 157.884 141.669C159.749 139.534 162.574 136.304 167.889 136.304C173.204 136.304 175.924 139.404 177.904 141.669C179.649 143.659 180.344 144.304 181.904 144.304C183.459 144.304 184.154 143.659 185.899 141.669C187.769 139.534 190.594 136.304 195.914 136.304C198.124 136.304 199.914 138.094 199.914 140.304C199.914 142.514 198.124 144.304 195.914 144.304C194.354 144.304 193.659 144.949 191.914 146.939C190.049 149.079 187.224 152.304 181.904 152.304Z" fill="white"/>
<path d="M155.914 228.302C154.074 228.302 152.419 227.027 152.009 225.152L132.009 133.154C131.539 130.994 132.909 128.864 135.069 128.394C137.239 127.919 139.359 129.294 139.829 131.454L159.829 223.453C160.299 225.612 158.929 227.742 156.769 228.212C156.479 228.272 156.194 228.302 155.914 228.302Z" fill="#565656"/>
<path d="M179.924 228.302C179.644 228.302 179.359 228.277 179.069 228.212C176.914 227.737 175.544 225.612 176.009 223.453L196.009 131.454C196.484 129.299 198.589 127.924 200.769 128.394C202.924 128.869 204.294 130.994 203.829 133.154L183.829 225.152C183.419 227.022 181.764 228.302 179.924 228.302Z" fill="#565656"/>
<path d="M135.229 224.302C135.654 226.097 135.914 227.947 135.914 229.847V260.302C135.914 269.127 143.089 276.301 151.914 276.301H183.914C192.739 276.301 199.914 269.127 199.914 260.302V229.847C199.914 227.952 200.179 226.102 200.604 224.302H135.229Z" fill="#DBDBDB"/>
<path d="M167.914 224.302H135.229C135.654 226.097 135.914 227.947 135.914 229.847V260.302C135.914 269.127 143.089 276.301 151.914 276.301H167.914V224.302Z" fill="#8C8C8C"/>
<path d="M199.914 236.302H167.914V244.302H199.914V236.302Z" fill="#8C8C8C"/>
<path d="M199.914 252.302H167.914V260.302H199.914V252.302Z" fill="#8C8C8C"/>
<path d="M167.914 236.302H135.914V244.302H167.914V236.302Z" fill="#565656"/>
<path d="M167.914 252.302H135.914V260.302H167.914V252.302Z" fill="#565656"/>
</g>
<path d="M104.979 192.036L100.675 192.087C96.9952 192.129 94.018 195.171 94.0595 198.843L94.3052 220.198L111.993 219.994L111.747 198.64C113.148 183.949 115.382 184.267 104.979 192.036Z" fill="#CCA69F"/>
<path d="M96.1113 221.036L110.867 219.246C114.501 218.806 116.46 216.175 115.226 213.4C114.434 211.626 114.086 209.724 114.198 207.804L114.217 207.488C114.278 206.437 114.029 205.399 113.493 204.465C113.269 204.08 113.177 203.65 113.218 203.214L113.56 199.7C113.4 198.381 111.948 197.464 110.34 197.662L93.517 199.703C91.7556 199.917 90.2239 200.7 89.1804 201.793C87.8785 203.15 87.4987 204.934 88.0125 206.549L88.0955 206.81C88.5039 208.097 88.8262 207.737 88.673 209.091L88.4816 210.795C88.4465 211.11 88.5071 211.422 88.6539 211.703C89.174 212.684 89.3815 213.77 89.2602 214.859L89.1868 215.525C88.9539 217.631 90.1792 219.656 92.4321 220.567C93.5202 221.013 94.7902 221.195 96.1113 221.036Z" fill="#AA0E19"/>
<path d="M74.926 185.42L75.8068 191.972C75.877 192.826 75.1654 193.186 74.7346 193.186H74.3198C73.8858 193.186 73.1742 192.826 73.2476 191.972L74.1283 185.42C74.2113 184.468 74.8463 184.468 74.926 185.42Z" fill="#AA0E19"/>
<path d="M74.4569 184.904C74.8975 184.904 75.2547 184.548 75.2547 184.108C75.2547 183.668 74.8975 183.312 74.4569 183.312C74.0163 183.312 73.6592 183.668 73.6592 184.108C73.6592 184.548 74.0163 184.904 74.4569 184.904Z" fill="#B22222"/>
<path d="M118.286 172.5C117.97 174.281 117.6 176.042 117.178 177.775C119.559 178.304 122.182 175.87 123.248 172.239C122.536 172.437 121.786 172.545 121.014 172.535L118.286 172.5Z" fill="#FFCFC2"/>
<path d="M113.981 172.443C114.08 175.16 115.264 177.326 117.14 177.769C117.153 177.772 117.166 177.772 117.178 177.775C117.6 176.046 117.97 174.281 118.286 172.5L113.981 172.443Z" fill="#FFCFC2"/>
<path d="M120.551 163.346C120.133 163.247 119.706 163.247 119.281 163.323C119.253 165.136 119.112 167.057 118.822 169.118C118.662 170.248 118.484 171.379 118.283 172.5L121.008 172.535C121.783 172.545 122.53 172.44 123.241 172.239C123.299 172.039 123.356 171.838 123.404 171.634C124.352 167.649 123.072 163.938 120.551 163.346Z" fill="#FFCFC2"/>
<path d="M113.981 172.443L110.254 170.054C110.733 176.654 110.506 186.354 108.476 193.065C108.713 190.157 107.009 187.245 104.086 186.022L72.871 172.981C73.2348 171.968 71.234 170.682 68.828 169.493C71.2308 187.468 80.5423 205.345 92.8468 205.956C105.212 206.571 113.343 193.502 117.175 177.772C117.162 177.769 117.15 177.769 117.137 177.766C115.264 177.326 114.08 175.16 113.981 172.443Z" fill="#FFCFC2"/>
<path d="M72.871 172.985L104.086 186.025C107.009 187.245 108.713 190.157 108.477 193.068C110.506 186.357 111.384 179.005 110.902 172.405L75.9982 171.949C72.4434 171.902 69.4439 169.506 68.4674 166.27C68.5599 167.343 68.6844 168.423 68.828 169.5C71.234 170.688 73.2348 171.972 72.871 172.985Z" fill="#FFCFC2"/>
<path d="M68.3558 164.862C68.3877 165.33 68.426 165.798 68.4674 166.267C69.4439 169.506 72.4435 171.902 75.9983 171.946L110.902 172.402C110.257 163.55 109.048 152.971 102.063 151.034C93.4372 148.642 78.7106 147.374 69.2205 152.732C68.3653 155.965 68.0303 159.947 68.3558 164.862Z" fill="#FFCFC2"/>
<path d="M101.59 152.175C107.398 154.551 109.893 162.696 110.768 170.879C110.86 171.752 111.601 172.411 112.478 172.421L113.981 172.44C113.946 171.503 114.042 170.5 114.281 169.478C115.066 166.155 117.15 163.702 119.281 163.32C119.604 143.307 106.766 138.022 92.6905 138.618C82.4218 139.054 67.6346 142.192 68.1707 160.922C70.832 157.303 74.9005 152.337 83.912 150.566C88.2933 149.709 92.9043 148.623 101.59 152.175Z" fill="#604B46"/>
<path d="M77.6065 131.791C77.5363 137.175 79.2562 144.686 92.4703 141.736C100.477 139.949 109.239 145.074 107.589 132.183C106.903 126.828 101.003 122.347 92.7256 122.238C84.4449 122.13 77.6767 126.408 77.6065 131.791Z" fill="#604B46"/>
<path opacity="0.51" d="M68.3367 178.247C68.4388 181.728 71.9393 185.29 76.1259 185.165C80.3094 185.041 83.5929 181.279 83.4908 177.798C83.3887 174.316 79.9105 171.596 75.7271 171.72C71.5436 171.844 68.2345 174.765 68.3367 178.247Z" fill="#D8D8D8"/>
<path opacity="0.51" d="M88.6826 176.304C88.7847 179.785 92.2853 183.346 96.4719 183.222C100.659 183.098 103.939 179.336 103.837 175.854C103.735 172.373 100.256 169.653 96.073 169.777C91.8896 169.901 88.5773 172.825 88.6826 176.304Z" fill="#D8D8D8"/>
<path d="M88.4305 176.116C88.5358 179.683 92.1799 183.331 96.5357 183.203C100.891 183.076 104.312 179.218 104.207 175.651C104.102 172.083 100.483 169.296 96.1272 169.427C91.7715 169.557 88.322 172.551 88.4305 176.116Z" stroke="#565656" stroke-width="3" stroke-miterlimit="10"/>
<path d="M68.327 178.893C68.4291 182.375 71.9297 185.936 76.1163 185.812C80.2998 185.688 83.5833 181.926 83.4812 178.444C83.3791 174.963 79.9009 172.242 75.7174 172.367C71.534 172.491 68.2249 175.412 68.327 178.893Z" stroke="#565656" stroke-width="3" stroke-miterlimit="10"/>
<path d="M83.2228 175.552C83.2228 175.552 85.5969 173.242 88.6922 175.622" stroke="#565656" stroke-width="3" stroke-miterlimit="10"/>
<path d="M102.797 172.688L110.439 168.404L117.756 164.301" stroke="#565656" stroke-width="3" stroke-miterlimit="10"/>
<path d="M114.281 169.481C114.038 170.503 113.946 171.506 113.981 172.443L118.286 172.5C118.487 171.379 118.665 170.248 118.825 169.117C119.112 167.056 119.253 165.136 119.285 163.323C117.15 163.705 115.069 166.158 114.281 169.481Z" fill="#FFCFC2"/>
<path d="M50.2658 284.539L50.3041 284.456C54.679 288.288 61.0196 287.212 64.4404 281.956L87.5274 246.506C90.9482 241.253 90.1664 233.819 85.7915 229.987C81.4166 226.155 79.3456 217.022 71.6138 232.57L51.137 269.345C44.5252 281.007 45.8877 280.707 50.2658 284.539Z" fill="#7C0A02"/>
<path d="M89.1995 313.408L126.107 312.201C137.18 312.074 149.813 303.03 149.685 291.977L145.505 248.385C140.518 226.253 128.21 211.171 107.596 211.41L95.923 211.543C81.0273 216.885 74.7091 223.66 70.9532 237.278C69.1471 243.83 68.3366 250.618 68.4164 257.413L68.8344 293.544C68.962 304.597 78.1267 313.536 89.1995 313.408Z" fill="#AA0E19"/>
<path d="M144.765 287.913C151.37 284.906 154.609 275.987 151.957 268.093L141.807 237.842C139.158 229.948 131.586 225.948 124.981 228.955C118.375 231.962 115.136 240.881 117.788 248.774L127.939 279.025C130.587 286.922 138.159 290.92 144.765 287.913Z" fill="#AA0E19"/>
<path d="M94.3435 300.705L94.4169 300.648C96.7495 307.165 103.128 310.156 108.684 307.229L146.169 287.467C151.725 284.539 154.36 276.812 152.028 270.294C149.695 263.777 143.243 260.843 137.687 263.771L102.027 286.486C96.4719 289.413 92.0109 294.191 94.3435 300.705Z" fill="#AA0E19"/>
<path d="M124.869 243.92C123.328 239.747 122.913 235.188 123.481 231.219C121.458 235.233 120.883 240.833 122.223 246.016C122.412 246.745 122.568 247.487 122.677 248.239L122.83 249.271C123.289 252.38 124.266 255.336 125.692 257.932L125.778 258.088C125.973 258.442 126.155 258.805 126.327 259.174L127.473 261.64C128.408 263.653 129.008 265.889 129.231 268.205L129.333 269.262L129.4 269.485L133.057 266.112L124.869 243.92Z" fill="#7C0A02"/>
<path d="M101.204 295.836L101.125 295.887C98.2184 290.442 102.822 286.225 108.718 283.537L129.48 272.187L128.017 268.632L124.096 270.521C123.082 271.011 122.196 271.646 121.491 272.393C120.73 273.199 119.761 273.874 118.645 274.375L113.333 276.768C112.481 277.152 111.711 277.636 111.055 278.205L110.554 278.637C109.891 279.213 109.11 279.703 108.243 280.091L100.79 283.413C94.8894 286.102 91.9337 290.305 94.8404 295.75L94.9196 295.699C97.4493 300.441 108.345 305.145 113.661 300.955C110.584 300.098 102.049 302.296 101.204 295.836Z" fill="#7C0A02"/>
<path d="M134.372 269.501L132.661 264.978L127.262 269.332L128.42 272.521L134.372 269.501Z" fill="#7C0A02"/>
<path d="M76.1277 298.952C76.0963 298.7 76.0547 298.449 75.9961 298.203C75.6593 296.774 76.8059 295.62 78.337 294.883C78.5677 294.772 79.9482 294.343 79.8426 294.134C79.7566 293.962 78.4623 294.227 78.1317 294.171C77.0978 293.995 80.4332 292.582 81.7938 292.187C88.1572 290.343 94.4861 291.343 100.959 290.369C101.196 290.331 101.518 290.278 101.88 290.552L104.977 299.306C105.066 299.552 104.9 299.82 104.62 299.888C99.1652 301.195 95.4959 301.683 91.0153 302.565C88.8025 302.998 85.6876 303.667 81.9269 304.672C80.6415 305.014 79.2469 304.683 78.3821 303.777C77.1177 302.441 76.2951 300.31 76.1277 298.952Z" fill="#FFCFC2"/>
<path d="M5.64893 324.054H83.7365L101.479 306.458C101.702 305.977 101.351 305.426 100.818 305.426H24.3324C24.0484 305.426 23.7899 305.591 23.6718 305.846L5.64893 324.054Z" fill="#8C8C8C"/>
<path d="M5.49253 324.41L82.074 325.379C83.1142 325.379 83.9631 324.528 83.9631 323.493L80.4019 269.711C80.4019 268.673 79.5499 267.826 78.5128 267.826L1.92815 266.854C0.887876 266.854 0.0390625 267.704 0.0390625 268.74L3.60025 322.522C3.60025 323.56 4.45225 324.41 5.49253 324.41Z" fill="#DBDBDB"/>
<path d="M36.0402 294.643C35.153 291.713 37.358 289.884 40.6129 289.556C43.4561 289.27 46.2546 291.608 46.462 294.315C46.7301 297.771 44.7548 300.629 41.9085 300.903C38.2292 301.256 36.5124 299.428 36.0402 294.643Z" fill="#F7F9FA"/>
<path d="M119.699 177.234L120.8 184.917C120.89 185.917 120.002 186.338 119.46 186.338H118.943C118.401 186.338 117.513 185.917 117.603 184.917L118.704 177.234C118.806 176.113 119.6 176.113 119.699 177.234Z" fill="#AA0E19"/>
<path d="M119.202 176.654C119.783 176.654 120.255 176.183 120.255 175.603C120.255 175.022 119.783 174.552 119.202 174.552C118.62 174.552 118.149 175.022 118.149 175.603C118.149 176.183 118.62 176.654 119.202 176.654Z" fill="#AA0E19"/>
</g>
<defs>
<clipPath id="clip0">
<rect width="264" height="325" fill="white" transform="translate(0.0390625 0.378906)"/>
</clipPath>
<clipPath id="clip1">
<rect width="184" height="256" fill="white" transform="translate(75.9137 36.3013)"/>
</clipPath>
</defs>
</svg>
