<svg width="238" height="370" viewBox="0 0 238 370" fill="none" xmlns="http://www.w3.org/2000/svg">
<path d="M193.341 177.868C184.926 167.163 182.323 154.046 178.216 141.538C174.233 129.421 168.867 118.52 156.3 112.686C145.6 107.716 134.827 102.824 123.591 99.4302C116.233 97.2078 108.933 93.1415 100.781 94.6083C100.187 96.1487 101.324 96.4717 101.945 97.1297C116.251 112.273 130.476 127.503 144.892 142.549C158.009 156.243 170.356 170.928 188.878 177.918C191.449 179.702 193.46 181.267 189.326 183.872C185.136 186.498 181.232 189.595 177.376 192.7C175.31 194.35 173.602 194.439 171.745 192.653C169.505 187.09 167.358 181.488 164.978 175.977C160.038 164.527 153.295 154.448 140.181 151.769C125.706 148.811 111.89 143.973 97.895 139.459C91.8131 137.49 86.1069 133.592 79.0264 133.786C87.7546 157.095 93.826 159.986 106.43 166.768C116.973 172.448 128.174 176.885 139.187 181.658C149.335 186.052 159.007 191.569 169.692 194.735C169.935 195.658 170.648 197.225 170.372 197.421C165.097 201.179 161.249 207.141 154.114 208.013C146.494 204.577 141.026 198.529 135.137 192.888C127.576 185.653 120.581 177.236 108.572 177.296C91.8269 177.386 75.2523 178.476 58.79 184.036C59.97 185.495 61.0525 186.515 62.7893 187.093C74.7176 191.011 86.5021 195.468 98.5754 198.884C110.801 202.351 122.386 208.027 135.14 209.674C140.745 212.672 147.277 208.839 152.861 212.073C147.168 216.004 141.28 219.696 137.057 225.358C136.582 225.495 136.097 225.641 135.622 225.777C131.519 223.335 127.171 221.21 123.329 218.412C103.583 203.949 83.8037 206.329 63.8125 217.823C62.454 218.606 61.078 219.117 61.2772 220.784C61.5273 222.901 63.4487 222.082 64.7237 222.297C67.349 222.726 69.9657 223.183 72.6053 223.461C91.9322 225.53 110.853 232.02 131.082 228.62C129.657 230.693 128.377 232.536 127.106 234.37C129.166 234.449 132.247 232.805 131.738 237.219C122.517 257.383 108.481 275.803 107.547 301.31C115.077 294.655 120.889 289.687 126.517 284.49C135.466 276.214 141.87 266.726 141.886 253.812C141.903 245.757 140.864 237.894 139.618 229.999C140.807 224.071 148.41 217.357 153.241 217.983C152.281 222.448 151.218 226.906 150.391 231.386C148.211 243.265 146.77 255.329 143.842 267.015C139.701 283.492 139.066 299 151.303 312.814C152.629 311.214 153.714 309.443 154.222 307.238C157.198 294.301 161.569 281.839 166.348 269.468C168.548 263.744 171.622 258.313 171.508 251.559C171.26 236.99 164.719 225.147 156.976 213.632C163.229 206.705 170.07 200.588 178.916 197.127C173.982 209.954 174.326 223.279 175.468 236.591C177.321 258.114 179.445 279.6 181.701 301.083C182.129 305.102 181.16 309.558 184.122 313.792C185.198 312.34 186.018 311.47 186.562 310.448C194.034 296.38 199.265 281.495 204.092 266.322C208.42 252.705 206.159 240.969 199.341 228.975C193.465 218.635 184.484 209.788 182.968 197.184C182.011 189.562 189.048 189.163 192.849 185.439C195.121 190.503 191.418 196.253 196.119 200.172C196.939 203.446 197.378 206.873 198.634 209.974C208.035 233.15 216.031 256.828 224.512 280.342C228.215 290.587 232.205 300.721 236.056 310.906C239.945 290.63 240.835 270.669 239.267 250.528C238.368 239.089 234.764 229.01 228.424 219.53C220.384 207.497 210.116 197.402 200.902 186.382C199.704 184.942 196.275 183.682 198.293 181.366C200.175 179.214 202.663 181.047 204.7 182.546C215.131 190.202 225.507 197.935 236.11 205.351C245.446 211.885 254.496 219.263 268.389 219.663C256.72 202.476 250.347 181.916 226.418 178.998C220.551 176.026 213.98 176.919 206.106 176.019C213.591 171.038 219.633 166.834 225.861 162.897C242.527 152.396 259.28 142.015 275.985 131.588C287.166 126.365 297.716 120.127 307.502 112.53C295.321 116.355 284.822 123.353 274.004 129.74C251.672 141.529 230.741 155.589 209.662 169.417C207.726 170.679 205.67 174.622 204.451 168.926C206.299 161.464 208.821 154.199 209.77 146.473C211.413 132.974 199.531 110.127 186.407 103.256C188.511 120.834 190.67 138.043 192.556 155.27C193.225 161.415 195.145 167.279 198.372 172.182C201.293 176.614 199.526 177.889 196.134 179.533C195.244 178.967 194.297 178.422 193.341 177.868Z" fill="#548936"/>
</svg>
