<svg width="241" height="404" viewBox="0 0 241 404" fill="none" xmlns="http://www.w3.org/2000/svg">
<path d="M144.996 145.384C144.956 145.363 144.936 145.353 144.896 145.332C144.895 145.382 144.879 145.438 144.878 145.488C144.918 145.509 144.948 145.549 144.988 145.57C144.984 145.505 144.995 145.434 144.996 145.384Z" fill="#78AA57"/>
<path d="M137.82 105.536C126.294 80.2019 102.954 69.8548 79.3454 59.9754C78.1927 59.4927 76.2128 58.2406 75.1858 60.5141C74.4123 62.2744 76.1412 62.8405 77.0434 63.6359C90.8331 75.851 98.7575 91.9926 106.329 108.23C114.475 125.699 127.622 137.569 144.9 145.347C146.82 131.306 143.562 118.16 137.82 105.536Z" fill="#78AA57"/>
<path d="M206.457 220.072C218.513 210.934 233.135 208.254 247.099 203.919C260.64 199.719 272.848 193.945 279.559 180.096C285.293 168.305 290.916 156.433 294.906 144.031C297.519 135.894 302.169 127.877 300.699 118.79C298.997 118.098 298.617 119.368 297.884 120.05C280.79 135.665 263.601 151.193 246.611 166.925C231.152 181.238 214.606 194.698 206.488 215.135C204.454 217.961 202.671 220.159 199.866 215.524C197.027 210.833 193.667 206.441 190.291 202.104C188.487 199.78 188.434 197.883 190.452 195.844C196.671 193.453 202.944 191.178 209.096 188.625C221.909 183.341 233.23 176.034 236.452 161.529C240.013 145.518 245.645 130.264 250.93 114.805C253.226 108.084 257.664 101.814 257.587 93.9659C231.533 103.239 228.213 109.935 220.437 123.789C213.928 135.393 208.794 147.759 203.287 159.894C198.21 171.077 191.896 181.721 188.181 193.519C187.148 193.781 185.405 194.534 185.189 194.22C181.112 188.307 174.569 183.911 173.735 175.987C177.682 167.593 184.516 161.628 190.899 155.19C199.087 146.931 208.56 139.312 208.718 125.963C208.927 107.372 208.039 88.9456 202.175 70.5851C200.535 71.8716 199.378 73.0545 198.703 74.9667C194.129 88.1533 188.961 101.146 184.937 114.491C180.851 128.005 174.325 140.763 172.253 154.903C168.815 161.071 172.957 168.395 169.258 174.529C164.998 168.142 161.007 161.554 154.801 156.75C154.648 156.216 154.51 155.678 154.362 155.159C157.143 150.647 159.587 145.86 162.781 141.65C179.22 119.985 176.948 97.987 164.57 75.5865C163.719 74.0593 163.184 72.5315 161.329 72.7212C158.976 72.9692 159.838 75.1087 159.587 76.52C159.063 79.4328 158.514 82.32 158.145 85.25C155.471 106.672 147.914 127.563 151.313 150.069C149.032 148.446 147.025 147.003 144.998 145.55C144.874 147.836 146.637 151.287 141.751 150.642C119.534 140.054 99.3415 124.147 71.0231 122.671C78.2755 131.137 83.6879 137.69 89.3446 144.016C98.3607 154.102 108.778 161.363 123.133 161.614C132.077 161.77 140.836 160.769 149.615 159.512C156.181 160.939 163.497 169.501 162.697 174.848C157.753 173.705 152.826 172.457 147.861 171.454C134.716 168.821 121.337 167.028 108.41 163.56C90.1818 158.663 72.9861 157.699 57.4007 171.038C59.1564 172.527 61.1012 173.774 63.5424 174.38C77.8393 177.912 91.607 182.977 105.268 188.492C111.576 191.049 117.55 194.545 125.061 194.54C141.262 194.522 154.512 187.468 167.47 179.075C175.039 186.125 181.705 193.845 185.393 203.726C171.242 198.033 156.43 198.176 141.631 199.198C117.695 200.874 93.7694 202.846 69.8818 204.989C65.4129 205.393 60.4845 204.246 55.7088 207.46C57.3079 208.666 58.2581 209.613 59.3839 210.221C74.8686 218.752 91.3075 224.833 108.069 230.462C123.097 235.509 136.189 233.199 149.644 225.847C161.252 219.498 171.234 209.703 185.272 208.224C193.755 207.295 194.074 215.116 198.133 219.403C192.475 221.832 186.155 217.614 181.713 222.77C178.056 223.632 174.244 224.06 170.786 225.391C144.867 235.403 118.408 243.873 92.1365 252.881C80.6887 256.8 69.3465 261.051 57.9715 265.146C80.425 269.816 102.575 271.171 124.966 269.769C137.689 268.974 148.95 265.148 159.597 258.288C173.122 249.583 184.53 238.353 196.935 228.322C198.55 227.01 200.016 223.233 202.558 225.521C204.917 227.651 202.834 230.377 201.13 232.616C192.424 244.068 183.645 255.445 175.198 267.082C167.76 277.333 159.398 287.246 158.683 302.669C177.999 290.01 200.958 283.318 204.645 256.798C208.057 250.339 207.189 243.041 208.345 234.302C213.741 242.692 218.296 249.484 222.548 256.473C233.894 275.156 245.104 293.932 256.369 312.675C261.957 325.181 268.693 337.006 276.943 347.985C272.928 334.396 265.357 322.62 258.459 310.497C245.773 285.498 230.555 262.019 215.6 238.373C214.226 236.196 209.898 233.842 216.246 232.592C224.498 234.765 232.513 237.712 241.081 238.886C256.042 240.942 281.645 228.151 289.52 213.716C269.957 215.735 250.804 217.839 231.635 219.632C224.793 220.274 218.238 222.289 212.75 225.779C207.775 228.941 206.393 226.95 204.625 223.167C205.207 222.166 205.824 221.121 206.457 220.072Z" fill="#78AA57"/>
</svg>
