<svg width="199" height="274" viewBox="0 0 199 274" fill="none" xmlns="http://www.w3.org/2000/svg">
<path d="M102.517 130.113C102.537 130.125 102.568 130.13 102.594 130.15C102.558 130.183 102.527 130.201 102.492 130.234C102.461 130.229 102.425 130.215 102.394 130.21C102.44 130.171 102.481 130.146 102.517 130.113Z" fill="#78AA57"/>
<path d="M131.81 116.058C153.202 110.98 169.349 119.244 185.315 127.851C186.104 128.27 187.721 128.805 186.612 130.393C185.756 131.619 184.69 130.92 183.806 130.78C170.214 128.667 156.351 131.58 142.577 134.733C127.752 138.115 114.641 136.207 102.614 130.147C111.127 122.74 121.142 118.586 131.81 116.058Z" fill="#78AA57"/>
<path d="M28.5093 129.842C29.7761 119.016 25.7359 109.708 23.0568 99.9976C20.4612 90.5884 19.4285 81.2068 25.94 71.2099C31.4852 62.6929 37.1225 54.1912 43.7597 46.3699C48.1101 41.2391 51.5806 35.0281 58.1995 31.7305C59.3319 32.3551 58.6422 33.1422 58.4934 33.8641C54.9276 50.4118 51.4795 66.9714 47.8013 83.5159C44.4614 98.569 42.1186 113.835 31.7895 127.59C30.7267 129.994 29.9779 131.977 34.1673 131.432C38.4078 130.88 42.6612 130.765 46.8789 130.66C49.1256 130.608 50.4126 129.78 50.9619 127.741C50.0762 123.206 49.0835 118.7 48.3203 114.139C46.7353 104.642 47.065 95.0679 55.4046 86.6984C64.6122 77.4704 72.4871 67.4444 80.6436 57.5198C84.187 53.2111 86.5702 47.9075 91.8139 44.3882C96.0286 63.0279 92.9074 67.9049 86.8182 78.4935C81.7092 87.3477 75.5508 95.8091 69.6892 104.351C64.2882 112.231 59.7427 120.549 53.3941 127.952C53.6281 128.645 53.8302 129.954 54.1211 129.933C59.6698 129.513 65.18 131.156 70.7785 128.023C74.7764 122.024 76.0135 115.542 77.7513 109.088C79.9733 100.81 81.2633 92.1035 90.0455 85.978C102.291 77.4437 114.867 69.6025 129.381 64.5425C129.181 66.0336 128.861 67.2091 127.847 68.4478C120.928 76.9533 114.363 85.7045 107.111 93.9755C99.7721 102.356 93.9106 111.754 85.3566 119.302C82.6276 124.004 76.1276 125.026 73.527 129.85C79.4529 129.323 85.4233 128.546 91.0742 129.824C91.4869 129.659 91.9047 129.503 92.3072 129.345C94.1952 125.755 96.4003 122.234 97.9202 118.56C105.756 99.6374 121.243 90.9365 141.033 87.6594C142.38 87.4409 143.619 87.0409 144.233 88.1624C145.008 89.5751 143.244 90.0662 142.411 90.845C140.69 92.4478 138.984 94.0765 137.19 95.605C124.052 106.783 113.191 120.433 96.9048 128.743C98.8895 129.269 100.649 129.742 102.414 130.2C100.95 131.309 97.9556 131.89 100.325 134.308C116.187 141.84 134.78 145.83 147.026 160.856C138.522 160.673 132.026 160.639 125.579 160.364C115.307 159.925 106.329 157.446 100.459 149.606C96.793 144.716 93.9773 139.401 91.314 133.97C87.7566 130.973 79.1708 130.792 75.9351 133.651C78.6605 135.88 81.4518 138.033 84.0959 140.334C91.0786 146.431 97.5894 153.032 105.034 158.63C115.531 166.519 123.022 175.618 120.379 190.289C118.697 189.993 117.091 189.476 115.725 188.393C107.689 182.058 98.8474 176.732 89.7516 171.651C85.5496 169.309 80.8458 167.582 77.8583 163.412C71.4248 154.421 70.8293 143.875 71.2373 132.906C63.5401 131.901 55.7713 131.701 47.7478 134.127C57.1613 139.393 62.9623 147.672 68.1681 156.343C76.5883 170.372 84.7948 184.529 92.8841 198.744C94.4018 201.401 97.122 203.62 96.8865 207.711C95.4444 207.377 94.4529 207.266 93.5878 206.927C81.7671 202.209 71.1875 195.846 60.7894 189.093C51.4579 183.04 47.7762 174.749 47.3069 163.952C46.8976 154.643 49.4208 144.673 44.819 136.228C42.0658 131.109 36.7495 134.461 32.2893 134.16C32.9332 138.405 38.2337 139.998 36.593 144.788C37.481 147.199 38.7105 149.512 39.1958 152.036C42.8656 170.942 47.7741 189.449 52.2645 208.088C54.219 216.216 55.9135 224.417 57.7253 232.583C45.6865 222.251 35.9784 210.573 27.9932 197.526C23.4538 190.111 21.5206 182.134 21.8282 173.124C22.218 161.686 25.1257 150.278 26.8484 138.852C27.0742 137.357 28.9944 134.839 26.4795 134.466C24.1282 134.112 23.1571 136.509 22.3418 138.473C18.2101 148.478 14.1501 158.511 9.78821 168.455C5.95024 177.218 2.69159 186.35 -7.25255 193.72C-6.53582 177.28 -11.2385 161.523 4.89018 147.468C7.81256 142.652 13.0146 139.825 18.3387 135.238C10.6321 136.044 4.30286 136.59 -2.01966 137.401C-18.9359 139.571 -35.8514 141.858 -52.7723 144.09C-63.2922 146.658 -73.818 148.269 -84.3868 148.675C-73.768 144.746 -62.9431 143.613 -52.1726 141.95C-30.5454 137.657 -8.9054 135.466 12.7281 133.057C14.7185 132.829 18.0053 134.171 16.3052 130.076C11.5798 126.487 6.43344 123.373 2.24556 119.158C-5.07675 111.799 -6.7819 91.8125 -0.332076 80.9031C6.1132 92.666 12.3427 104.229 18.781 115.68C21.0785 119.758 22.3472 124.31 22.2121 128.939C22.0947 133.135 23.9732 132.997 27.181 132.265C27.6257 131.484 28.0598 130.662 28.5093 129.842Z" fill="#78AA57"/>
</svg>
