<svg width="292" height="426" viewBox="0 0 292 426" fill="none" xmlns="http://www.w3.org/2000/svg">
<path d="M118.601 247.575C118.638 247.57 118.69 247.572 118.727 247.568C118.713 247.51 118.699 247.451 118.67 247.387C118.623 247.37 118.57 247.368 118.523 247.351C118.547 247.431 118.577 247.495 118.601 247.575Z" fill="#365B1E"/>
<path d="M144.39 285.297C167.968 306.081 196.795 306.001 225.677 305.338C227.09 305.307 229.719 305.686 229.707 302.864C229.701 300.699 227.656 300.906 226.35 300.499C206.497 294.247 190.881 281.273 175.589 268.046C159.125 253.804 140.097 247.624 118.703 247.56C123.216 262.895 132.646 274.93 144.39 285.297Z" fill="#365B1E"/>
<path d="M20.7931 198.902C12.6095 213.874 -1.22155 223.337 -13.6081 234.234C-25.6054 244.794 -35.5183 256.349 -36.0396 273.706C-36.4859 288.485 -36.807 303.309 -35.1722 317.929C-34.1018 327.503 -35.1852 337.919 -29.4717 346.59C-27.4036 346.515 -27.5927 345.045 -27.1407 344.006C-16.751 320.058 -6.22043 296.162 4.00299 272.136C13.3096 250.273 24.1383 228.808 23.0526 204.02C23.8391 200.179 24.651 197.091 29.6936 200.571C34.7872 204.105 40.282 207.077 45.7626 209.991C48.6842 211.558 49.6295 213.482 48.4875 216.502C43.1833 221.825 37.7868 227.06 32.6104 232.517C21.8554 243.853 13.5683 256.589 16.9529 273.021C20.6883 291.158 21.9313 309.463 23.6366 327.814C24.3687 335.793 22.6929 344.289 26.4109 352.352C48.9631 330.809 49.298 322.388 50.8936 304.521C52.2355 289.575 51.8213 274.481 51.8853 259.438C51.9411 245.579 53.5256 231.715 51.9005 217.843C52.8443 217.107 54.2979 215.513 54.6603 215.735C61.5943 219.961 70.3628 221.458 74.8897 229.25C74.69 239.724 70.4194 249.005 66.8257 258.571C62.2202 270.849 55.9723 283.057 61.9683 296.866C70.3356 316.117 79.7717 334.68 94.3037 350.909C95.4026 348.831 96.0438 347.081 95.8521 344.795C94.4799 329.119 93.8011 313.343 91.7782 297.747C89.7402 281.951 90.5636 265.804 86.1666 250.296C86.8563 242.359 79.2151 236.721 80.1868 228.694C87.5255 233.317 94.6856 238.282 103.295 240.358C103.687 240.839 104.094 241.325 104.486 241.805C103.697 247.737 103.394 253.794 102.065 259.6C95.1444 289.481 107.648 311.1 130.759 328.473C132.332 329.652 133.6 330.986 135.423 329.935C137.738 328.604 135.846 326.793 135.465 325.218C134.664 321.982 133.899 318.741 132.916 315.563C125.763 292.272 123.903 267.271 110.003 245.636C113.095 246.256 115.85 246.823 118.59 247.385C117.665 244.972 114.25 242.231 119.588 240.643C147.374 241.332 175.528 248.43 205.382 236.937C193.997 231.539 185.403 227.289 176.637 223.365C162.683 217.132 148.59 214.428 133.701 220.773C124.41 224.722 115.862 229.794 107.379 235.12C99.9607 236.672 88.4721 231.218 86.8091 225.344C92.4276 224.249 98.0899 223.277 103.66 222.023C118.425 218.681 133.038 214.397 147.949 212.012C168.98 208.664 187.164 201.755 197.044 180.846C194.546 180.107 191.969 179.73 189.177 180.23C172.801 183.176 156.283 184.28 139.669 184.87C131.987 185.155 124.212 184.289 116.485 187.748C99.8191 195.214 89.4001 208.586 79.952 223.184C68.884 219.391 58.4587 214.522 50.1047 206.035C67.3204 205.4 82.5069 198.437 97.2825 190.561C121.17 177.82 144.882 164.785 168.524 151.599C172.944 149.126 178.557 148.046 181.974 142.546C179.771 142.022 178.363 141.506 176.917 141.383C157.017 139.705 137.284 141.012 117.417 142.926C99.5897 144.648 87.1813 153.038 76.7244 166.804C67.709 178.671 61.9469 193.379 48.1702 201.337C39.8597 206.195 35.9265 198.283 29.7605 195.739C34.4736 190.625 42.9277 192.059 45.1234 184.711C48.4919 182.153 52.224 179.958 55.1777 176.983C77.2448 154.729 100.584 133.846 123.495 112.487C133.474 103.172 143.182 93.5799 153.018 84.1234C127.734 89.6342 104.293 98.4444 81.8576 110.176C69.1197 116.849 59.2831 125.968 51.4871 137.946C41.5895 153.14 35.0232 169.946 26.8716 185.994C25.8041 188.084 26.0451 192.657 22.3798 191.472C18.9705 190.364 19.8551 186.594 20.5774 183.509C24.2523 167.716 28.0425 151.948 31.3561 136.076C34.2772 122.099 38.3128 108.034 31.9176 91.8273C17.8714 113.743 -2.67558 131.218 5.77106 160.23C5.2416 168.455 9.51367 175.587 12.3618 185.104C2.92838 178.933 -4.89798 174.043 -12.5087 168.806C-32.8337 154.776 -53.0645 140.587 -73.3238 126.475C-84.8608 116.165 -97.2557 107.082 -110.839 99.5483C-100.421 111.7 -87.1752 120.35 -74.4762 129.668C-49.8694 149.593 -23.3384 166.784 2.99988 184.259C5.40898 185.869 10.9674 186.295 5.00509 190.507C-4.50555 192.053 -14.1225 192.728 -23.4933 195.442C-39.8593 200.2 -60.3237 225.15 -61.764 243.659C-42.5468 232.573 -23.781 221.605 -4.86072 210.942C1.89062 207.143 7.69958 202.042 11.7572 195.908C15.4237 190.357 17.7649 191.765 21.3323 194.864C21.1204 196.168 20.9596 197.527 20.7931 198.902Z" fill="#365B1E"/>
</svg>
