<svg width="200" height="224" viewBox="0 0 200 224" fill="none" xmlns="http://www.w3.org/2000/svg">
<path d="M92.4382 95.774C92.4175 95.7777 92.3877 95.7789 92.367 95.7826C92.3779 95.8141 92.3888 95.8456 92.4088 95.8796C92.4362 95.8872 92.466 95.886 92.4933 95.8936C92.4758 95.8508 92.4558 95.8168 92.4382 95.774Z" fill="#365B1E"/>
<path d="M75.9645 76.0583C61.5936 65.5601 45.3057 66.7271 29.0167 68.2163C28.2197 68.2885 26.7147 68.1826 26.864 69.7324C26.976 70.9209 28.1215 70.7275 28.8799 70.9007C40.4147 73.5614 49.8929 80.0795 59.2011 86.7495C69.2226 93.9311 80.2874 96.5843 92.3809 95.7865C89.059 87.5387 83.1238 81.2954 75.9645 76.0583Z" fill="#365B1E"/>
<path d="M150.164 118.7C154.035 110.157 161.376 104.42 167.827 97.9523C174.076 91.6842 179.096 84.9508 178.517 75.3966C178.026 67.2614 177.461 59.106 175.801 51.139C174.714 45.9217 174.802 40.1586 171.137 35.6181C169.972 35.7397 170.153 36.5396 169.949 37.1282C165.283 50.6871 160.535 64.2232 155.966 77.8189C151.807 90.1907 146.768 102.403 148.629 115.976C148.378 118.117 148.075 119.845 145.05 118.13C141.993 116.387 138.738 114.968 135.494 113.581C133.764 112.834 133.133 111.814 133.627 110.111C136.356 106.981 139.143 103.895 141.793 100.695C147.301 94.05 151.343 86.7312 148.603 77.8373C145.579 68.0199 143.955 58.0136 142.068 48.0002C141.252 43.646 141.772 38.9138 139.265 34.6295C127.604 47.3417 127.838 51.9802 127.836 61.8564C127.83 70.1186 128.824 78.3936 129.545 86.659C130.211 94.2734 130.014 101.951 131.63 109.508C131.134 109.948 130.393 110.88 130.177 110.773C126.045 108.721 121.014 108.241 118.064 104.137C117.649 98.376 119.596 93.1113 121.145 87.7171C123.13 80.7933 126.046 73.8441 121.963 66.4927C116.265 56.244 109.998 46.4156 100.968 38.0667C100.452 39.2513 100.177 40.2375 100.401 41.4857C101.965 50.0429 103.143 58.6822 105.071 67.1698C107.018 75.767 107.366 84.6684 110.631 93.0161C110.641 97.4022 115.243 100.201 115.098 104.649C110.718 102.395 106.422 99.9467 101.452 99.1419C101.206 98.8932 100.951 98.642 100.706 98.3934C100.853 95.1042 100.719 91.7652 101.178 88.5247C103.585 71.8415 95.4301 60.4534 81.4948 51.8109C80.5463 51.2243 79.7625 50.5412 78.7854 51.1895C77.5438 52.0108 78.7042 52.9316 78.9988 53.7822C79.6148 55.5286 80.2101 57.2788 80.9254 58.9865C86.1405 71.5012 88.4499 85.1615 97.3946 96.5038C95.6163 96.2839 94.0304 96.0796 92.4536 95.8778C93.0983 97.1674 95.1659 98.54 92.2292 99.62C76.4911 100.324 60.2232 97.5219 43.9297 104.997C50.6355 107.519 55.706 109.519 60.8578 111.333C69.0574 114.213 77.1583 115.15 85.2535 111.084C90.3053 108.553 94.8813 105.434 99.407 102.178C103.521 101.037 110.289 103.585 111.524 106.747C108.404 107.567 105.253 108.322 102.168 109.228C93.9919 111.638 85.949 114.561 77.6422 116.451C65.9249 119.11 55.9962 123.613 51.4652 135.483C52.914 135.791 54.3893 135.899 55.942 135.515C65.0489 133.259 74.3284 132.009 83.6878 131.038C88.0149 130.582 92.4525 130.755 96.6452 128.554C105.688 123.804 110.903 116.052 115.508 107.666C121.954 109.319 128.091 111.587 133.24 115.923C123.542 116.943 115.31 121.359 107.356 126.261C94.4974 134.19 81.7531 142.274 69.0554 150.437C66.6819 151.968 63.5642 152.779 61.9098 155.934C63.1815 156.136 64.0032 156.365 64.8265 156.376C76.1571 156.523 87.2436 155.036 98.3751 153.211C108.363 151.57 114.954 146.479 120.17 138.509C124.668 131.64 127.184 123.336 134.569 118.428C139.021 115.436 141.643 119.629 145.255 120.787C142.849 123.779 137.999 123.321 137.128 127.443C135.353 128.979 133.355 130.329 131.835 132.079C120.484 145.162 108.345 157.542 96.4724 170.167C91.3015 175.673 86.2979 181.32 81.2151 186.897C95.2271 182.885 108.031 177.133 120.12 169.815C126.983 165.653 132.083 160.261 135.886 153.378C140.715 144.646 143.579 135.159 147.379 126.027C147.877 124.837 147.51 122.335 149.641 122.843C151.624 123.319 151.314 125.424 151.061 127.147C149.779 135.965 148.431 144.774 147.357 153.621C146.41 161.412 144.837 169.295 149.267 177.948C156.102 165.363 166.834 154.964 160.6 139.357C160.486 134.818 157.712 131.067 155.623 125.95C161.265 128.972 165.935 131.354 170.499 133.934C182.692 140.849 194.84 147.855 207 154.817C214.039 160.031 221.501 164.537 229.557 168.146C223.057 161.878 215.136 157.642 207.49 153.018C192.581 143.032 176.722 134.623 160.957 126.05C159.514 125.259 156.352 125.242 159.509 122.696C164.806 121.476 170.207 120.731 175.367 118.875C184.376 115.624 194.686 101.122 194.568 90.8994C184.265 97.7373 174.212 104.493 164.056 111.087C160.432 113.437 157.406 116.465 155.421 119.992C153.629 123.184 152.235 122.502 150.063 120.939C150.117 120.214 150.139 119.461 150.164 118.7Z" fill="#365B1E"/>
</svg>
