<svg width="251" height="154" viewBox="0 0 251 154" fill="none" xmlns="http://www.w3.org/2000/svg">
<g clip-path="url(#clip0)">
<path d="M124.527 153.647C123.702 153.647 122.882 153.432 122.159 153.014L114.62 148.558C113.495 147.932 114.043 147.706 114.416 147.576C115.92 147.056 116.219 146.938 117.824 146.028C117.994 145.932 118.214 145.972 118.384 146.074L124.176 149.507C124.385 149.626 124.685 149.626 124.877 149.507L147.454 136.485C147.663 136.366 147.799 136.123 147.799 135.875V109.841C147.799 109.587 147.663 109.35 147.449 109.22L124.883 96.2087C124.674 96.0844 124.397 96.0844 124.188 96.2087L101.627 109.226C101.407 109.35 101.271 109.598 101.271 109.841V135.875C101.271 136.123 101.413 136.36 101.627 136.479L107.81 140.048C111.167 141.725 113.218 139.749 113.218 137.767V112.06C113.218 111.699 113.512 111.411 113.874 111.411H116.739C117.095 111.411 117.395 111.699 117.395 112.06V137.767C117.395 142.239 114.953 144.809 110.709 144.809C109.404 144.809 108.375 144.809 105.51 143.397L99.5872 139.992C98.1235 139.144 97.2192 137.569 97.2192 135.875V109.841C97.2192 108.147 98.1235 106.571 99.5872 105.73L122.164 92.6961C123.594 91.8886 125.493 91.8886 126.912 92.6961L149.489 105.73C150.953 106.577 151.862 108.153 151.862 109.841V135.875C151.862 137.569 150.953 139.139 149.489 139.992L126.912 153.014C126.183 153.432 125.363 153.647 124.527 153.647Z" fill="#DBDBDB"/>
<path d="M131.5 135.705C121.622 135.705 119.553 131.176 119.553 127.37C119.553 127.009 119.842 126.721 120.203 126.721H123.119C123.447 126.721 123.719 126.952 123.769 127.274C124.21 130.244 125.521 131.741 131.5 131.741C136.259 131.741 138.282 130.668 138.282 128.144C138.282 126.692 137.706 125.614 130.314 124.885C124.137 124.275 120.316 122.909 120.316 117.973C120.316 113.421 124.154 110.705 130.596 110.705C137.83 110.705 141.407 113.212 141.859 118.594C141.876 118.781 141.809 118.956 141.684 119.097C141.56 119.227 141.39 119.306 141.204 119.306H138.276C137.971 119.306 137.706 119.091 137.644 118.798C136.943 115.675 135.23 114.675 130.591 114.675C125.397 114.675 124.792 116.482 124.792 117.838C124.792 119.481 125.504 119.955 132.518 120.881C139.458 121.796 142.752 123.095 142.752 127.969C142.752 132.893 138.655 135.705 131.5 135.705Z" fill="#DBDBDB"/>
<path d="M164.052 108.401C164.052 110.795 162.097 112.749 159.701 112.749C157.327 112.749 155.349 110.818 155.349 108.401C155.349 105.939 157.378 104.053 159.701 104.053C162.052 104.053 164.052 105.939 164.052 108.401ZM156.056 108.39C156.056 110.417 157.689 112.049 159.695 112.049C161.724 112.049 163.357 110.383 163.357 108.39C163.357 106.368 161.701 104.753 159.695 104.753C157.712 104.759 156.056 106.345 156.056 108.39ZM158.068 105.961H159.752C160.328 105.961 161.458 105.961 161.458 107.249C161.458 108.147 160.882 108.328 160.537 108.446C161.204 108.491 161.249 108.932 161.345 109.553C161.391 109.943 161.464 110.609 161.6 110.841H160.565C160.543 110.609 160.379 109.367 160.379 109.299C160.311 109.022 160.215 108.887 159.87 108.887H159.017V110.841H158.068V105.961ZM158.989 108.102H159.746C160.368 108.102 160.481 107.667 160.481 107.413C160.481 106.746 160.017 106.746 159.769 106.746H158.989V108.102Z" fill="#DDDDDD"/>
<path fill-rule="evenodd" clip-rule="evenodd" d="M54.6134 51.7821C54.6134 50.743 54.0652 49.7886 53.1667 49.269L29.2274 35.5068C28.8205 35.2696 28.3684 35.1454 27.9107 35.1284C27.8711 35.1284 27.6959 35.1284 27.662 35.1284C27.2042 35.1454 26.7521 35.2696 26.3396 35.5068L2.40598 49.269C1.51306 49.7886 0.959229 50.743 0.959229 51.7821L1.01009 88.8504C1.01009 89.3643 1.27571 89.8443 1.73347 90.0984C2.17993 90.3638 2.72811 90.3638 3.16892 90.0984L17.3934 81.9608C18.292 81.4243 18.8402 80.4869 18.8402 79.4534V62.139C18.8402 61.1056 19.3884 60.1512 20.2813 59.6373L26.3396 56.153C26.7917 55.8932 27.2833 55.7633 27.7863 55.7633C28.278 55.7633 28.7866 55.8932 29.2218 56.153L35.2744 59.6373C36.173 60.1512 36.7211 61.1056 36.7211 62.139V79.4534C36.7211 80.4812 37.275 81.4299 38.1679 81.9608L52.3868 90.0984C52.8332 90.3638 53.3871 90.3638 53.8335 90.0984C54.2743 89.8443 54.5512 89.3643 54.5512 88.8504L54.6134 51.7821Z" fill="#DBDBDB"/>
<path fill-rule="evenodd" clip-rule="evenodd" d="M169.783 0.827236C169.336 0.578759 168.788 0.584406 168.347 0.844178C167.907 1.10395 167.635 1.57832 167.635 2.09221V38.7991C167.635 39.1605 167.443 39.4937 167.132 39.6744C166.821 39.8551 166.432 39.8551 166.121 39.6744L160.125 36.224C159.232 35.7101 158.13 35.7101 157.237 36.224L133.292 50.0314C132.399 50.5453 131.845 51.4997 131.845 52.5331V80.1593C131.845 81.1928 132.399 82.1471 133.292 82.661L157.237 96.4798C158.13 96.9937 159.232 96.9937 160.13 96.4798L184.081 82.661C184.974 82.1415 185.528 81.1928 185.528 80.1593V11.2972C185.528 10.2524 184.962 9.28677 184.047 8.77287L169.783 0.827236ZM167.562 71.0842C167.562 71.344 167.426 71.5812 167.2 71.7111L158.977 76.4491C158.757 76.579 158.48 76.579 158.254 76.4491L150.031 71.7111C149.805 71.5812 149.67 71.344 149.67 71.0842V61.5969C149.67 61.3372 149.805 61.1 150.031 60.9701L158.254 56.2264C158.48 56.0965 158.751 56.0965 158.977 56.2264L167.2 60.9701C167.42 61.1 167.562 61.3372 167.562 61.5969V71.0842Z" fill="#DBDBDB"/>
<path fill-rule="evenodd" clip-rule="evenodd" d="M249.524 61.3485C250.417 60.8289 250.965 59.8802 250.965 58.8524V52.1548C250.965 51.127 250.417 50.1726 249.524 49.6531L225.731 35.8513C224.839 35.3318 223.731 35.3318 222.832 35.8457L198.893 49.6531C198 50.167 197.446 51.1214 197.446 52.1548V79.7697C197.446 80.8088 198.006 81.7688 198.904 82.2827L222.691 95.8304C223.567 96.333 224.641 96.3386 225.528 95.8473L239.916 87.8565C240.374 87.6024 240.657 87.1224 240.662 86.6028C240.668 86.0833 240.391 85.5976 239.939 85.3379L215.847 71.5248C215.395 71.265 215.118 70.7906 215.118 70.2711V61.6139C215.118 61.1 215.395 60.62 215.842 60.3602L223.341 56.0401C223.787 55.7803 224.336 55.7803 224.782 56.0401L232.281 60.3602C232.728 60.62 233.005 61.0944 233.005 61.6139V68.4244C233.005 68.944 233.282 69.4184 233.728 69.6781C234.175 69.9379 234.728 69.9323 235.175 69.6725L249.524 61.3485Z" fill="#DBDBDB"/>
<path fill-rule="evenodd" clip-rule="evenodd" d="M223.929 60.0552C224.098 59.9536 224.313 59.9536 224.482 60.0552L229.077 62.7038C229.247 62.8054 229.354 62.9861 229.354 63.1838V68.4865C229.354 68.6842 229.247 68.8649 229.077 68.9666L224.482 71.6151C224.313 71.7167 224.098 71.7167 223.929 71.6151L219.34 68.9666C219.17 68.8649 219.063 68.6842 219.063 68.4865V63.1838C219.063 62.9861 219.17 62.8054 219.34 62.7038L223.929 60.0552Z" fill="#DBDBDB"/>
<path fill-rule="evenodd" clip-rule="evenodd" d="M91.6364 36.1392C92.5237 35.6253 93.6201 35.6253 94.5017 36.1392L118.254 49.8337C119.142 50.3476 119.69 51.2907 119.69 52.3185V79.7357C119.69 80.7579 119.142 81.7066 118.254 82.2205L94.5017 95.9263C93.6144 96.4402 92.518 96.4402 91.6308 95.9263L67.8837 82.2205C66.9964 81.7066 66.4482 80.7635 66.4482 79.7357V52.3185C66.4482 51.2963 66.9964 50.3476 67.8837 49.8337L91.6364 36.1392Z" fill="#DDDDDD"/>
<path d="M94.5075 36.1392C93.6203 35.6253 92.5239 35.6253 91.6423 36.1392L67.8896 49.8337C67.0023 50.3476 66.4541 51.2907 66.4541 52.3185V79.7357C66.4541 80.7579 67.0023 81.7066 67.8896 82.2205L91.6423 95.9263C92.5296 96.4402 93.6259 96.4402 94.5132 95.9263L118.26 82.2205C119.148 81.7066 119.696 80.7635 119.696 79.7357V52.3185C119.696 51.2963 119.148 50.3476 118.26 49.8337L94.5075 36.1392Z" fill="#8C8C8C"/>
<path d="M91.6074 36.1404L67.8321 49.8349C66.9448 50.3488 66.3401 51.2918 66.3401 52.3196V79.7369C66.3401 80.4032 66.5887 81.0301 67.007 81.5327L93.738 35.8411C93.0259 35.666 92.2573 35.7676 91.6074 36.1404Z" fill="#8C8C8C"/>
<path d="M93.8906 96.1691C94.0828 96.1069 94.2693 96.0279 94.4501 95.9262L118.146 82.2204C119.034 81.7065 119.469 80.7635 119.469 79.7357V52.3184C119.469 51.6295 119.265 50.9801 118.864 50.4718L93.8906 96.1691Z" fill="#8C8C8C"/>
<path opacity="0.66" d="M118.135 49.8389L94.4895 36.1388C94.2521 36.0032 93.9978 35.9072 93.7379 35.8395L67.0068 81.5311C67.2329 81.8022 67.5042 82.0393 67.815 82.2144L91.6016 95.9202C92.3081 96.3268 93.1332 96.4059 93.8848 96.163L118.858 50.4714C118.666 50.2229 118.429 50.0027 118.135 49.8389Z" fill="#8C8C8C"/>
<path d="M68.1033 49.6813L67.8321 49.8337C66.9448 50.3476 66.3401 51.2907 66.3401 52.3185V79.7358C66.3401 80.7579 66.9278 81.7066 67.8151 82.2205L91.6018 95.9263C92.2404 96.2934 92.975 96.395 93.6702 96.2313L68.1033 49.6813Z" fill="#8C8C8C"/>
<path d="M119.463 52.318C119.463 51.2902 119.022 50.3472 118.135 49.8333L94.4896 36.1388C94.2805 36.0202 94.0601 35.9298 93.8284 35.8621L119.463 79.6223V52.318Z" fill="#8C8C8C"/>
<path d="M94.45 95.9263L118.146 82.2205C119.033 81.7066 119.469 80.7635 119.469 79.7358V79.6285L93.834 35.8682C93.0936 35.6592 92.2911 35.7496 91.613 36.1449L68.1089 49.6869L93.6814 96.2369C93.9414 96.1692 94.2013 96.0675 94.45 95.9263Z" fill="#8C8C8C"/>
</g>
<defs>
<clipPath id="clip0">
<rect width="250" height="153" fill="white" transform="translate(0.959229 0.646484)"/>
</clipPath>
</defs>
</svg>
