<svg width="175" height="156" viewBox="0 0 175 156" fill="none" xmlns="http://www.w3.org/2000/svg">
<g clip-path="url(#clip0)">
<path d="M174.959 78.1642C174.959 66.6341 160.524 55.7071 138.393 48.931C143.5 26.3675 141.23 8.416 131.229 2.66869C128.923 1.32055 126.228 0.681962 123.284 0.681962V8.59338C124.916 8.59338 126.228 8.91268 127.327 9.51579C132.151 12.283 134.243 22.8197 132.612 36.3721C132.222 39.7069 131.583 43.2192 130.803 46.8024C123.852 45.0995 116.262 43.7868 108.282 42.9353C103.494 36.3721 98.5283 30.4119 93.5275 25.1967C105.09 14.4471 115.943 8.55791 123.32 8.55791V0.646484C113.566 0.646484 100.798 7.60002 87.8883 19.6623C74.9784 7.67098 62.2104 0.788393 52.457 0.788393V8.69981C59.7986 8.69981 70.6869 14.5536 82.2491 25.2322C77.2837 30.4474 72.3184 36.3721 67.6013 42.9353C59.5858 43.7868 51.9959 45.0994 45.0444 46.8378C44.2287 43.2901 43.6258 39.8488 43.2002 36.5494C41.5332 22.9971 43.5903 12.4604 48.3783 9.6577C49.4423 9.01911 50.8255 8.73529 52.457 8.73529V0.823871C49.4778 0.823871 46.7823 1.46246 44.4415 2.8106C34.4753 8.55791 32.2409 26.4739 37.3836 48.9665C15.3233 55.7781 0.959229 66.6696 0.959229 78.1642C0.959229 89.6943 15.3942 100.621 37.5255 107.397C32.4183 129.961 34.6881 147.912 44.6898 153.66C46.9951 155.008 49.6906 155.646 52.6698 155.646C62.4232 155.646 75.1912 148.693 88.1011 136.631C101.011 148.622 113.779 155.505 123.532 155.505C126.512 155.505 129.207 154.866 131.548 153.518C141.514 147.771 143.748 129.855 138.606 107.362C160.595 100.586 174.959 89.6588 174.959 78.1642ZM128.781 54.5009C127.469 59.0775 125.838 63.7959 123.993 68.5144C122.539 65.6762 121.014 62.8381 119.347 59.9999C117.716 57.1617 115.978 54.3945 114.24 51.6982C119.276 52.4432 124.135 53.3656 128.781 54.5009ZM112.538 92.2842C109.771 97.0736 106.934 101.615 103.99 105.836C98.7057 106.298 93.3502 106.546 87.9592 106.546C82.6037 106.546 77.2483 106.298 71.9992 105.872C69.0554 101.65 66.1826 97.1445 63.4162 92.3906C60.7207 87.7431 58.2735 83.0246 56.0391 78.2707C58.2381 73.5167 60.7207 68.7628 63.3808 64.1152C66.1472 59.3258 68.9845 54.7847 71.9282 50.5629C77.2128 50.1017 82.5683 49.8534 87.9592 49.8534C93.3147 49.8534 98.6702 50.1017 103.919 50.5275C106.863 54.7493 109.736 59.2549 112.502 64.0088C115.198 68.6563 117.645 73.3748 119.879 78.1287C117.645 82.8827 115.198 87.6366 112.538 92.2842ZM123.993 87.6721C125.909 92.4261 127.54 97.18 128.888 101.792C124.242 102.927 119.347 103.885 114.276 104.63C116.013 101.898 117.751 99.0958 119.383 96.2221C121.014 93.384 122.539 90.5103 123.993 87.6721ZM88.0302 125.526C84.7318 122.121 81.4333 118.324 78.1704 114.174C81.3624 114.316 84.6254 114.422 87.9238 114.422C91.2576 114.422 94.556 114.351 97.7835 114.174C94.5915 118.324 91.2931 122.121 88.0302 125.526ZM61.6429 104.63C56.6066 103.885 51.7477 102.963 47.1015 101.828C48.4138 97.251 50.0452 92.5325 51.8895 87.814C53.3437 90.6522 54.8687 93.4904 56.5357 96.3286C58.2026 99.1667 59.905 101.934 61.6429 104.63ZM87.8528 30.8021C91.1512 34.2079 94.4496 38.004 97.7126 42.1548C94.5206 42.0129 91.2576 41.9065 87.9592 41.9065C84.6254 41.9065 81.3269 41.9775 78.0995 42.1548C81.2915 38.004 84.5899 34.2079 87.8528 30.8021ZM61.6074 51.6982C59.8695 54.43 58.1317 57.2327 56.5002 60.1063C54.8687 62.9445 53.3437 65.7827 51.8895 68.6208C49.9743 63.8669 48.3428 59.113 46.9951 54.5009C51.6413 53.4011 56.5357 52.4432 61.6074 51.6982ZM29.51 96.1157C16.9547 90.7586 8.83285 83.7341 8.83285 78.1642C8.83285 72.5943 16.9547 65.5343 29.51 60.2127C32.5601 58.9001 35.894 57.7293 39.3343 56.6296C41.3559 63.5831 44.0159 70.8204 47.3143 78.2352C44.0514 85.6144 41.4268 92.8163 39.4407 99.7344C35.9295 98.6346 32.5956 97.4284 29.51 96.1157ZM48.5911 146.813C43.7676 144.045 41.6751 133.509 43.3066 119.956C43.6967 116.622 44.3351 113.109 45.1154 109.526C52.0669 111.229 59.6567 112.542 67.6368 113.393C72.4248 119.956 77.3901 125.917 82.3909 131.132C70.8288 141.881 59.9759 147.771 52.5989 147.771C51.0028 147.735 49.6551 147.416 48.5911 146.813ZM132.718 119.779C134.385 133.331 132.328 143.868 127.54 146.671C126.476 147.309 125.093 147.593 123.461 147.593C116.12 147.593 105.232 141.739 93.6694 131.061C98.6347 125.846 103.6 119.921 108.317 113.358C116.333 112.506 123.923 111.194 130.874 109.455C131.69 113.038 132.328 116.48 132.718 119.779ZM146.373 96.1157C143.323 97.4284 139.989 98.5991 136.549 99.6989C134.527 92.7454 131.867 85.508 128.569 78.0933C131.832 70.714 134.456 63.5121 136.442 56.5941C139.954 57.6939 143.287 58.9001 146.408 60.2127C158.964 65.5698 167.086 72.5943 167.086 78.1642C167.05 83.7341 158.928 90.7941 146.373 96.1157Z" fill="#DBDBDB"/>
<path d="M87.9236 94.3774C96.8752 94.3774 104.132 87.1185 104.132 78.1643C104.132 69.21 96.8752 61.9512 87.9236 61.9512C78.972 61.9512 71.7153 69.21 71.7153 78.1643C71.7153 87.1185 78.972 94.3774 87.9236 94.3774Z" fill="#8C8C8C"/>
</g>
<defs>
<clipPath id="clip0">
<rect width="174" height="155" fill="white" transform="translate(0.959229 0.646484)"/>
</clipPath>
</defs>
</svg>
