<svg width="652" height="597" viewBox="0 0 652 597" fill="none" xmlns="http://www.w3.org/2000/svg">
<path d="M116.492 480.382C116.485 480.395 116.472 480.408 116.466 480.428C116.492 480.435 116.511 480.435 116.537 480.441C116.551 480.428 116.564 480.409 116.577 480.395C116.544 480.389 116.518 480.389 116.492 480.382Z" fill="#78AA57"/>
<path d="M98.787 482.285C87.3147 486.55 82.0487 496.469 76.9643 506.518C76.7113 507.011 76.1017 507.842 77.068 508.355C77.8138 508.751 78.1186 508.011 78.4948 507.641C84.2861 501.974 91.6143 499 98.9686 496.19C106.881 493.158 112.503 487.763 116.453 480.428C110.376 479.143 104.507 480.155 98.787 482.285Z" fill="#78AA57"/>
<path d="M151.181 455.753C147.549 450.177 146.836 443.685 145.37 437.421C143.95 431.351 141.803 425.814 135.941 422.432C130.947 419.549 125.915 416.706 120.603 414.57C117.121 413.168 113.748 410.876 109.715 411.24C109.358 411.961 109.903 412.168 110.175 412.519C116.492 420.504 122.756 428.534 129.125 436.479C134.916 443.711 140.299 451.391 149.009 455.591C150.182 456.571 151.09 457.422 148.97 458.506C146.823 459.603 144.793 460.946 142.783 462.284C141.713 462.998 140.876 462.965 140.046 462.018C139.19 459.213 138.392 456.389 137.471 453.611C135.552 447.827 132.711 442.634 126.446 440.757C119.533 438.693 113.022 435.746 106.407 432.948C103.534 431.734 100.927 429.585 97.4771 429.371C100.726 441.089 103.56 442.757 109.39 446.606C114.274 449.82 119.54 452.468 124.689 455.26C129.436 457.837 133.904 460.94 138.963 462.939C139.047 463.4 139.32 464.192 139.177 464.277C136.453 465.88 134.326 468.613 130.818 468.73C127.257 466.731 124.858 463.55 122.231 460.55C118.865 456.701 115.817 452.306 109.974 451.819C101.829 451.144 93.7221 450.962 85.4859 452.962C85.9982 453.721 86.4782 454.267 87.3018 454.617C92.9374 457.038 98.4758 459.713 104.202 461.894C110 464.108 115.389 467.373 121.524 468.723C124.125 470.424 127.465 468.84 130.039 470.651C127.108 472.32 124.086 473.865 121.79 476.442C121.55 476.487 121.31 476.539 121.077 476.585C119.183 475.222 117.16 474.001 115.415 472.469C106.427 464.582 96.7118 464.887 86.4976 469.619C85.8037 469.944 85.1098 470.132 85.1357 470.957C85.1681 471.995 86.1344 471.684 86.744 471.839C88.0022 472.158 89.2603 472.495 90.5314 472.748C99.8377 474.592 108.768 478.558 118.749 477.773C117.964 478.721 117.27 479.564 116.57 480.402C117.568 480.532 119.138 479.863 118.703 481.986C113.366 491.405 105.752 499.766 104.215 512.14C108.158 509.225 111.2 507.057 114.151 504.772C118.852 501.13 122.374 496.787 122.931 490.503C123.282 486.582 123.113 482.706 122.841 478.818C123.671 475.981 127.653 473.04 129.974 473.553C129.319 475.689 128.613 477.805 128.016 479.954C126.446 485.641 125.24 491.451 123.314 497.014C120.597 504.856 119.631 512.373 124.987 519.624C125.694 518.904 126.304 518.086 126.641 517.034C128.638 510.867 131.297 504.992 134.144 499.169C135.461 496.482 137.186 493.969 137.419 490.672C137.919 483.563 135.24 477.526 131.972 471.586C135.305 468.483 138.898 465.802 143.347 464.491C140.403 470.522 140.001 477.026 139.988 483.55C139.968 494.106 140.085 504.661 140.273 515.21C140.305 517.184 139.65 519.313 140.908 521.501C141.492 520.838 141.927 520.449 142.238 519.975C146.466 513.451 149.651 506.427 152.64 499.247C155.325 492.807 154.728 486.997 151.92 480.863C149.501 475.572 145.519 470.885 145.312 464.686C145.169 460.94 148.606 461.037 150.617 459.395C151.505 461.959 149.462 464.595 151.577 466.705C151.836 468.334 151.907 470.022 152.387 471.58C155.967 483.265 158.853 495.138 161.972 506.946C163.334 512.094 164.839 517.197 166.279 522.318C169.035 512.613 170.319 502.934 170.41 493.067C170.462 487.458 169.132 482.401 166.46 477.513C163.068 471.307 158.503 465.952 154.489 460.193C153.963 459.44 152.355 458.681 153.431 457.642C154.437 456.668 155.565 457.675 156.499 458.493C161.246 462.667 165.967 466.88 170.805 470.944C175.066 474.527 179.158 478.506 185.896 479.298C180.948 470.431 178.737 460.148 167.219 457.701C164.495 456 161.259 456.156 157.472 455.377C161.317 453.273 164.443 451.482 167.641 449.839C176.195 445.444 184.781 441.115 193.354 436.752C199.016 434.694 204.412 432.104 209.49 428.832C203.4 430.17 197.998 433.123 192.472 435.765C181.11 440.543 170.332 446.49 159.495 452.313C158.496 452.845 157.329 454.676 156.979 451.845C158.192 448.294 159.735 444.867 160.52 441.147C161.895 434.649 157.089 423.016 150.999 419.108C151.272 427.755 151.59 436.22 151.778 444.691C151.843 447.71 152.524 450.651 153.885 453.169C155.118 455.455 154.197 456 152.485 456.655C152.057 456.37 151.622 456.058 151.181 455.753Z" fill="#78AA57"/>
<path d="M64.9081 437.966C64.895 437.966 64.8819 438.005 64.8885 438.012C64.895 438.012 64.9669 438.025 64.9604 438.031C64.9538 438.038 64.9604 438.031 64.9604 438.031C64.9538 438.038 64.9931 437.986 64.9931 437.986C64.9931 437.986 64.9211 437.973 64.9081 437.966C64.9081 437.96 64.9081 437.966 64.9081 437.966Z" fill="#365B1E"/>
<path d="M45.5302 439.258C33.3639 447.002 23.7593 456.558 14.265 466.958C13.7981 467.471 13.3117 468.035 13.9732 468.327C14.6347 468.62 14.8876 468.074 15.4583 467.691C24.2003 461.797 33.6882 457.642 43.7857 454.396C53.8766 451.151 59.8625 447.535 64.8431 437.992C57.9947 436.057 51.6003 435.395 45.5302 439.258Z" fill="#365B1E"/>
<path d="M99.1823 416.264C97.2432 411.026 98.7089 405.274 98.4949 400.068C98.2809 394.862 96.7698 391.304 92.9046 388.019C89.6102 385.221 85.9136 382.644 82.3402 380.015C79.9991 378.288 77.5347 376.542 74.5969 376.029C74.1883 376.295 74.6423 376.828 74.759 377.068C77.5153 382.722 82.0808 392.966 84.4415 397.757C86.5881 402.119 96.2899 414.298 97.2627 415.862C96.893 417.478 98.3846 417.693 96.692 418.627C94.9994 419.562 92.5804 420.802 90.9267 421.854C90.0447 422.412 88.8773 422.548 88.5855 421.477C87.9046 418.997 88.1445 416.258 87.8138 413.635C87.1263 408.176 86.186 404.054 80.9459 401.314C75.1611 398.289 69.6811 395.004 64.5643 390.915C62.3399 389.136 60.6472 387.169 58.0661 385.942C58.3061 392.31 59.4021 397.147 63.4359 402.171C66.8147 406.371 71.3867 410.37 75.453 413.681C79.5192 416.992 82.8655 419.926 87.3728 422.341C87.3598 422.321 87.3728 422.341 87.3728 422.341C87.4117 422.548 87.5284 423.47 87.3857 423.555C84.6425 425.281 82.457 427.086 79.1755 427.352C75.8875 424.84 74.1235 421.769 72.0288 418.18C69.3439 413.577 67.327 409.241 62.1518 406.696C54.9402 403.145 47.0672 399.029 39.2136 396.816C39.5444 397.627 39.6027 398.029 40.2837 398.724C44.979 403.476 48.8571 408.611 53.7729 413.395C58.6822 418.179 63.7082 423.146 70.161 426.223C71.8148 427.683 76.6462 428.586 78.1767 429.105C79.1236 429.423 78.1767 429.105 78.1767 429.105C78.3648 432.805 72.4698 432.539 70.0832 434.22C69.9146 434.337 69.5709 434.428 69.3698 434.272C67.4372 432.779 65.362 430.689 63.7407 428.884C55.4072 419.614 48.3707 414.843 36.3342 412.85C35.5171 412.714 35.1474 412.551 34.9139 413.298C34.6869 414.044 35.4976 414.285 36.0294 414.784C37.1254 415.81 37.7544 416.193 39.0255 417.394C48.3318 426.164 53.4292 433.558 67.1065 435.311C66.4255 436.233 65.6927 437.103 64.9793 437.992C66.5228 438.187 67.4372 438.05 67.4048 439.92C60.3748 453.974 60.9002 454.409 60.7899 469.58C63.371 467.088 65.6279 465.328 68.41 462.881C72.8394 458.986 74.104 455.195 73.2804 449.073C72.7681 445.263 72.0223 440.809 71.3997 436.901C72.4438 433.876 75.0055 431.851 78.2675 432.052C77.5606 434.117 77.0418 436.259 76.6397 438.394C75.5632 444.049 75.7772 450.17 75.7707 455.727C75.7513 463.569 77.1391 468.555 82.1651 474.469C82.6515 473.774 82.9953 473.144 83.1639 472.3C84.1496 467.347 85.531 461.849 86.0952 456.98C86.3546 454.734 86.9512 450.131 86.7502 448.723C86.3157 445.678 80.3947 431.241 80.1807 430.351C84.649 430.533 87.2236 425.84 91.0045 423.938C88.1899 429.423 87.1069 435.681 87.8786 441.569C89.1238 451.092 91.3741 459.512 92.9176 468.788C93.2094 470.522 93.177 472.132 94.2082 473.67C94.4416 473.248 94.8307 472.768 94.9929 472.333C97.2692 466.341 98.8256 460.583 99.9216 454.241C100.901 448.547 99.9281 443.906 97.6388 438.498C95.6673 433.837 92.3858 429.52 92.8139 424.184C93.0733 420.958 95.9138 421.029 98.002 419.51C97.9437 421.49 97.1849 424.21 97.7361 425.911C98.0344 426.755 97.7361 425.911 97.7361 425.911C98.0409 426.852 97.7296 429.131 98.0798 430.403C100.674 439.946 104.027 449.82 107.393 459.174C108.858 463.251 110.279 466.834 111.803 470.801C112.976 463.043 113.34 455.623 112.678 447.781C112.302 443.322 111.102 439.18 109.131 435.149C106.634 430.027 103.372 425.509 100.985 420.289C100.674 419.608 99.6298 418.829 100.609 418.108C101.588 417.388 102.302 418.18 102.937 418.946C106.186 422.828 109.105 426.268 112.905 429.787C116.251 432.883 119.332 435.642 124.053 436.583C120.687 429.41 119.014 422.678 111.433 418.965C109.247 417.543 106.751 417.05 104.286 416.329C107.068 415.102 110.142 413.564 112.937 412.564C120.421 409.896 127.724 407.481 135.26 405.157C139.942 404.235 144.443 402.97 148.885 401.21C143.93 401.587 139.475 403.06 134.663 404.307C124.987 406.819 115.596 409.877 106.29 413.934C105.434 414.304 104.26 415.33 104.494 413.311C105.927 410.169 107.905 408.202 109.163 404.742C111.362 398.692 109.961 391.817 105.518 386.909C104.61 393.505 103.43 400.178 102.023 406.696C101.523 409.02 100.972 412.103 101.828 414.122C102.684 416.141 100.629 417.011 100.012 417.193C100.012 417.193 100.317 417.102 100.012 417.193C99.7076 417.284 100.012 417.193 100.012 417.193C99.98 416.673 99.338 416.686 99.1823 416.264Z" fill="#365B1E"/>
<path d="M93.2167 358.424C93.2036 358.431 93.184 358.437 93.1709 358.444C93.184 358.463 93.197 358.483 93.2167 358.503C93.2363 358.503 93.2559 358.496 93.2755 358.496C93.2559 358.47 93.2363 358.45 93.2167 358.424Z" fill="#548936"/>
<path d="M78.7347 348.07C67.3337 343.623 56.8082 347.525 46.3411 351.647C45.8288 351.848 44.8171 352.062 45.1997 353.094C45.4916 353.886 46.2114 353.536 46.7432 353.51C54.8367 353.133 62.2818 355.788 69.6425 358.58C77.5674 361.585 85.3496 361.293 93.1773 358.443C89.4742 353.432 84.4158 350.29 78.7347 348.07Z" fill="#548936"/>
<path d="M135.487 363.117C136.473 356.535 140.26 351.212 143.327 345.558C146.298 340.079 148.373 334.515 146.239 328.089C144.423 322.616 142.556 317.144 140 312.009C138.327 308.646 137.329 304.686 134.079 302.278C133.334 302.583 133.6 303.096 133.574 303.537C132.983 313.703 132.335 323.869 131.816 334.041C131.343 343.299 130.26 352.614 133.976 361.547C134.203 363.059 134.319 364.299 132.011 363.702C129.676 363.092 127.27 362.741 124.877 362.41C123.599 362.228 122.996 361.65 123.009 360.391C124.235 357.729 125.506 355.087 126.667 352.393C129.079 346.798 130.402 341.02 126.965 335.457C123.171 329.316 120.266 322.778 117.186 316.287C115.85 313.463 115.324 310.126 112.886 307.672C107.529 318.591 108.534 321.72 110.344 328.478C111.855 334.132 114.027 339.605 116.018 345.123C117.854 350.206 119.131 355.496 121.582 360.359C121.336 360.755 121.018 361.534 120.856 361.501C117.756 360.884 114.351 361.514 111.654 359.268C110.324 355.405 110.642 351.433 110.674 347.447C110.713 342.331 111.362 337.021 107.322 332.769C101.686 326.842 95.7519 321.311 88.268 317.319C88.1448 318.228 88.1448 318.955 88.5209 319.766C91.1215 325.323 93.4821 331.01 96.3096 336.45C99.1696 341.961 101.031 347.985 104.714 353.075C105.525 356.074 109.073 357.113 109.792 360.183C106.491 359.476 103.21 358.619 99.7857 359.015C99.5782 358.891 99.3642 358.768 99.1567 358.645C98.6508 356.366 97.9504 354.107 97.6586 351.803C96.1864 339.929 88.722 333.691 77.95 330.432C77.2172 330.211 76.5752 329.893 76.0499 330.523C75.3819 331.321 76.3157 331.73 76.6659 332.256C77.3923 333.334 78.1057 334.418 78.8904 335.45C84.6233 343.019 88.6506 351.926 96.6274 357.983C95.4147 358.171 94.3317 358.333 93.2551 358.495C93.9166 359.255 95.5314 359.8 93.7934 361.099C83.5468 364.578 72.3079 365.76 62.9368 373.978C67.8201 374.426 71.5297 374.828 75.2587 375.088C81.1926 375.497 86.7051 374.595 91.2966 370.271C94.163 367.577 96.608 364.572 98.9945 361.482C101.498 359.917 106.427 360.372 107.821 362.3C105.914 363.455 103.975 364.572 102.107 365.779C97.1592 368.986 92.3926 372.517 87.2628 375.393C80.0253 379.444 74.3053 384.417 73.4947 393.401C74.5064 393.336 75.4986 393.128 76.4519 392.57C82.0422 389.292 87.9308 386.669 93.9231 384.222C96.6923 383.086 99.6495 382.359 102.01 380.054C107.101 375.082 109.118 368.785 110.616 362.17C115.169 362.072 119.63 362.455 123.82 364.442C117.614 366.987 112.996 371.576 108.651 376.445C101.628 384.319 94.7078 392.278 87.8335 400.282C86.5494 401.782 84.6428 402.931 84.1304 405.404C85.0059 405.3 85.5896 405.3 86.1343 405.151C93.6312 403.093 100.668 399.964 107.672 396.595C113.956 393.57 117.367 388.831 119.345 382.385C121.051 376.828 121.187 370.667 125.156 365.902C127.542 363.007 130.039 365.377 132.633 365.48C131.596 367.986 128.314 368.596 128.496 371.583C127.607 372.972 126.537 374.277 125.856 375.763C120.772 386.877 115.039 397.66 109.526 408.559C107.127 413.311 104.864 418.128 102.535 422.912C111.038 417.498 118.424 411.123 125.052 403.814C128.813 399.659 131.187 394.998 132.432 389.564C134.015 382.67 134.164 375.633 134.994 368.661C135.104 367.753 134.404 366.11 135.902 366.052C137.296 366 137.478 367.499 137.627 368.726C138.399 375.004 139.125 381.288 140.039 387.546C140.844 393.057 141.252 398.75 145.759 403.827C147.958 393.914 153.127 384.754 146.155 375.263C145.247 372.18 142.731 370.141 140.416 367.038C144.689 368.032 148.204 368.772 151.687 369.668C160.993 372.076 170.286 374.556 179.58 377.003C185.176 379.23 190.922 380.892 196.895 381.826C191.461 378.775 185.462 377.386 179.573 375.679C167.913 371.686 155.915 368.953 143.95 366.091C142.854 365.825 140.766 366.415 142.381 364.072C145.649 362.228 149.073 360.69 152.134 358.437C157.478 354.497 161.616 342.61 159.664 335.638C154.125 342.279 148.736 348.816 143.25 355.263C141.291 357.561 139.851 360.209 139.19 363.001C138.593 365.526 137.549 365.325 135.83 364.669C135.733 364.163 135.61 363.643 135.487 363.117Z" fill="#548936"/>
<path d="M526.902 103.166C526.889 103.153 526.882 103.147 526.869 103.134C526.863 103.153 526.85 103.173 526.843 103.193C526.856 103.206 526.863 103.225 526.876 103.238C526.882 103.212 526.895 103.186 526.902 103.166Z" fill="#78AA57"/>
<path d="M529.035 86.7359C527.68 75.4275 519.871 68.5009 511.901 61.7236C511.512 61.3926 510.896 60.659 510.215 61.4185C509.696 62.0093 510.299 62.4442 510.552 62.8662C514.411 69.3383 515.5 76.6155 516.441 83.8861C517.452 91.7085 521.104 97.9665 526.869 103.14C529.353 97.9016 529.71 92.3707 529.035 86.7359Z" fill="#78AA57"/>
<path d="M541.597 139.909C547.421 137.838 553.445 138.604 559.418 138.643C565.21 138.682 570.677 137.942 575.002 133.372C578.692 129.483 582.35 125.549 585.437 121.207C587.46 118.357 590.262 115.805 590.813 112.079C590.236 111.599 589.931 112.047 589.561 112.222C580.975 116.195 572.363 120.122 563.802 124.154C556.013 127.821 547.907 131.022 542.219 137.987C541.078 138.838 540.112 139.474 539.593 137.319C539.068 135.138 538.302 133.008 537.524 130.899C537.109 129.769 537.323 129.022 538.361 128.477C541.078 128.315 543.802 128.204 546.513 127.971C552.155 127.497 557.466 126.049 560.514 120.791C563.88 114.988 567.959 109.736 571.928 104.361C573.653 102.024 576.157 100.128 577.097 97.0576C565.806 97.4471 563.685 99.6478 558.945 104.088C554.976 107.808 551.448 111.995 547.803 116.046C544.444 119.778 540.669 123.148 537.764 127.289C537.33 127.263 536.558 127.341 536.512 127.192C535.656 124.381 533.652 121.856 534.307 118.662C536.882 115.877 540.28 114.397 543.562 112.676C547.771 110.469 552.401 108.671 554.113 103.484C556.493 96.2591 558.426 88.9625 558.413 81.0752C557.615 81.3738 557.019 81.6919 556.519 82.354C553.108 86.9306 549.489 91.3579 546.273 96.0644C543.011 100.829 538.893 104.997 536.337 110.255C534.236 112.235 534.943 115.604 532.745 117.539C531.876 114.52 531.136 111.456 529.314 108.814C529.32 108.587 529.333 108.36 529.34 108.139C530.981 106.724 532.524 105.159 534.288 103.913C543.367 97.499 545.203 88.6379 543.153 78.3682C543.011 77.6671 542.991 77.0049 542.245 76.8491C541.299 76.6544 541.37 77.5957 541.097 78.115C540.533 79.1861 539.963 80.2442 539.457 81.3413C535.767 89.365 530.241 96.5772 528.782 105.776C528.095 104.861 527.492 104.049 526.882 103.231C526.551 104.108 526.811 105.672 524.988 104.815C517.647 97.934 511.752 89.2287 500.909 85.1454C502.686 89.3455 503.983 92.5719 505.403 95.7398C507.666 100.79 510.825 104.912 516.382 106.789C519.845 107.957 523.38 108.652 526.953 109.249C529.333 110.619 531.123 114.864 530.15 116.851C528.367 115.792 526.603 114.695 524.794 113.689C520.001 111.034 515.014 108.678 510.409 105.724C503.918 101.556 497.342 99.0505 489.624 102.322C490.124 103.121 490.727 103.848 491.602 104.387C496.732 107.535 501.466 111.216 506.103 115.059C508.243 116.838 510.137 118.941 513.062 119.869C519.372 121.869 525.403 120.759 531.486 119.09C533.562 122.777 535.202 126.614 535.416 130.924C530.611 126.952 524.826 125.173 518.938 123.738C509.411 121.427 499.852 119.233 490.286 117.11C488.496 116.714 486.719 115.656 484.462 116.318C484.936 116.987 485.188 117.474 485.552 117.85C490.526 123.096 496.174 127.503 502.005 131.775C507.232 135.605 512.614 136.326 518.762 135.125C524.067 134.086 529.165 131.502 534.813 132.664C538.231 133.352 537.388 136.442 538.439 138.617C535.935 138.864 533.996 136.436 531.629 137.897C530.099 137.78 528.562 137.475 527.051 137.565C515.721 138.26 504.372 138.286 493.029 138.546C488.087 138.656 483.146 138.909 478.21 139.097C486.375 143.7 494.832 146.972 503.723 149.198C508.775 150.464 513.633 150.367 518.626 149.01C524.969 147.29 530.799 144.323 536.869 141.947C537.66 141.636 538.698 140.344 539.405 141.551C540.06 142.674 538.912 143.479 537.972 144.141C533.166 147.53 528.341 150.88 523.613 154.372C519.45 157.449 514.969 160.28 512.783 166.207C521.869 163.662 531.636 163.896 536.35 154.009C538.477 151.912 539.042 148.958 540.572 145.693C541.636 149.633 542.57 152.847 543.361 156.099C545.469 164.791 547.511 173.503 549.58 182.208C550.209 187.778 551.37 193.225 553.225 198.528C553.342 192.731 551.85 187.201 550.663 181.618C548.815 170.296 545.793 159.254 542.894 148.179C542.628 147.16 541.234 145.706 543.86 146.005C546.804 147.874 549.561 150.016 552.751 151.535C558.322 154.191 569.872 152.373 574.723 147.718C566.857 146.082 559.139 144.531 551.454 142.856C548.711 142.259 545.91 142.233 543.341 142.915C541.013 143.531 540.721 142.583 540.501 140.889C540.851 140.571 541.221 140.24 541.597 139.909Z" fill="#78AA57"/>
<path d="M599.744 129.62C599.757 129.62 599.75 129.581 599.744 129.581C599.737 129.581 599.678 129.594 599.678 129.587C599.678 129.581 599.678 129.587 599.678 129.587C599.678 129.581 599.665 129.633 599.665 129.633C599.672 129.627 599.737 129.614 599.744 129.62C599.75 129.62 599.744 129.62 599.744 129.62Z" fill="#548936"/>
<path d="M614.335 122.472C621.3 112.618 625.703 102.173 629.757 91.1177C629.958 90.5724 630.152 89.9817 629.549 89.9622C628.946 89.9427 628.92 90.4491 628.602 90.9295C623.706 98.265 617.675 104.491 610.898 110.21C604.114 115.929 600.632 120.622 599.802 129.587C605.703 128.899 610.859 127.387 614.335 122.472Z" fill="#548936"/>
<path d="M580.1 157.287C583.258 160.728 583.952 165.642 585.761 169.602C587.57 173.562 589.866 175.834 593.9 177.152C597.337 178.275 601.014 179.093 604.607 179.995C606.968 180.586 609.426 181.157 611.858 180.625C612.085 180.293 611.572 180.021 611.404 179.872C607.48 176.373 600.703 169.894 597.357 166.934C594.315 164.24 582.953 157.891 581.701 156.995C581.474 155.625 580.255 155.937 581.267 154.671C582.279 153.412 583.757 151.685 584.704 150.348C585.21 149.633 586.072 149.16 586.637 149.893C587.953 151.594 588.628 153.788 589.717 155.716C591.98 159.721 594.01 162.61 598.933 163.071C604.367 163.577 609.646 164.382 614.899 165.921C617.182 166.59 619.115 167.576 621.501 167.706C619.296 162.857 616.916 159.455 612.201 156.852C608.258 154.671 603.453 153.029 599.257 151.756C595.061 150.484 591.539 149.276 587.292 148.835C587.305 148.848 587.292 148.835 587.292 148.835C587.194 148.686 586.818 148.011 586.896 147.9C588.472 145.693 589.594 143.603 592.045 142.356C595.385 143.259 597.72 145.07 600.483 147.186C604.023 149.9 606.948 152.607 611.76 152.938C618.466 153.399 625.859 154.08 632.643 153.308C632.13 152.782 631.955 152.49 631.209 152.172C626.073 149.984 621.443 147.238 616.125 145.096C610.807 142.954 605.353 140.701 599.38 140.37C597.636 139.766 593.615 140.604 592.266 140.688C591.429 140.74 592.266 140.688 592.266 140.688C590.949 137.884 595.593 136.222 596.909 134.164C597 134.021 597.24 133.846 597.447 133.898C599.412 134.443 601.689 135.397 603.511 136.28C612.895 140.805 619.854 142.265 629.796 139.993C630.47 139.838 630.807 139.844 630.749 139.195C630.691 138.546 629.984 138.611 629.42 138.396C628.252 137.948 627.636 137.851 626.274 137.332C616.293 133.495 610.009 129.399 598.874 132.379C599.108 131.45 599.399 130.542 599.665 129.626C598.407 129.964 597.746 130.36 597.175 128.899C598.161 115.793 597.623 115.624 592.901 103.848C591.695 106.594 590.502 108.671 589.127 111.45C586.935 115.87 587.155 119.207 589.73 123.68C591.332 126.465 593.323 129.678 595.041 132.502C595.197 135.177 593.848 137.559 591.261 138.435C591.15 136.611 590.878 134.794 590.515 133.008C589.555 128.295 587.454 123.628 585.703 119.317C583.232 113.248 580.579 109.827 574.814 106.847C574.658 107.535 574.594 108.132 574.73 108.84C575.534 112.988 576.208 117.675 577.317 121.622C577.83 123.446 578.822 127.192 579.425 128.224C580.729 130.444 589.879 139.74 590.327 140.357C586.812 141.636 586.306 146.083 583.984 148.757C584.425 143.622 583.277 138.435 580.819 134.125C576.844 127.146 572.434 121.349 568.296 114.663C567.525 113.41 567.038 112.157 565.754 111.294C565.709 111.696 565.56 112.19 565.566 112.579C565.702 117.941 566.318 122.888 567.486 128.14C568.53 132.853 570.754 136.137 574.237 139.597C577.24 142.577 581.15 144.875 582.506 149.14C583.329 151.717 581.105 152.568 579.97 154.398C579.386 152.847 579.114 150.497 578.147 149.361C577.648 148.803 578.147 149.361 578.147 149.361C577.616 148.731 577.129 146.868 576.461 145.992C571.429 139.435 565.709 132.853 560.145 126.685C557.719 123.998 555.488 121.674 553.05 119.09C554.6 125.465 556.668 131.321 559.665 137.182C561.364 140.513 563.608 143.337 566.409 145.829C569.963 148.997 573.919 151.464 577.421 154.742C577.875 155.171 578.932 155.443 578.4 156.307C577.869 157.17 577.071 156.787 576.332 156.398C572.59 154.424 569.237 152.685 565.19 151.172C561.623 149.835 558.361 148.679 554.412 149.445C559.288 153.924 562.713 158.605 569.762 159.072C571.902 159.481 573.99 159.066 576.124 158.845C574.36 160.682 572.466 162.844 570.618 164.506C565.67 168.946 560.787 173.133 555.689 177.32C552.362 179.521 549.275 181.923 546.396 184.701C550.112 182.832 553.095 180.287 556.416 177.788C563.108 172.776 569.405 167.427 575.32 161.338C575.865 160.78 576.448 159.618 576.909 161.247C576.799 164.129 575.884 166.285 576.007 169.362C576.221 174.743 579.483 179.618 584.477 182.007C583.089 176.613 581.889 171.075 580.917 165.59C580.573 163.636 580.022 161.072 578.718 159.78C577.415 158.488 578.731 157.164 579.153 156.826C579.153 156.826 578.945 156.995 579.153 156.826C579.36 156.657 579.153 156.826 579.153 156.826C579.354 157.222 579.84 157.014 580.1 157.287Z" fill="#548936"/>
<path d="M568.206 504.253C568.219 504.253 568.232 504.253 568.252 504.253C568.245 504.233 568.239 504.213 568.232 504.194C568.212 504.187 568.199 504.187 568.18 504.181C568.193 504.207 568.199 504.226 568.206 504.253Z" fill="#548936"/>
<path d="M576.513 517.411C584.269 524.772 594.069 525.084 603.894 525.201C604.38 525.207 605.262 525.369 605.294 524.409C605.32 523.668 604.62 523.72 604.186 523.565C597.512 521.202 592.369 516.593 587.33 511.906C581.909 506.862 575.521 504.525 568.251 504.252C569.587 509.53 572.641 513.736 576.513 517.411Z" fill="#548936"/>
<path d="M535.559 486.51C532.595 491.509 527.777 494.567 523.438 498.13C519.229 501.584 515.721 505.401 515.332 511.302C514.995 516.327 514.709 521.371 515.085 526.363C515.332 529.634 514.832 533.166 516.668 536.191C517.375 536.191 517.323 535.685 517.491 535.334C521.318 527.304 525.189 519.293 528.957 511.237C532.388 503.908 536.337 496.728 536.272 488.276C536.59 486.978 536.902 485.939 538.568 487.186C540.254 488.445 542.09 489.523 543.912 490.587C544.885 491.152 545.183 491.821 544.755 492.84C542.887 494.593 540.987 496.306 539.165 498.098C535.371 501.831 532.401 506.063 533.341 511.698C534.385 517.917 534.586 524.168 534.937 530.433C535.092 533.153 534.418 536.029 535.579 538.82C543.503 531.757 543.724 528.888 544.489 522.831C545.131 517.761 545.17 512.613 545.378 507.491C545.566 502.772 546.279 498.072 545.897 493.333C546.227 493.093 546.74 492.574 546.856 492.652C549.159 494.171 552.122 494.787 553.562 497.494C553.367 501.058 551.798 504.161 550.462 507.381C548.744 511.503 546.474 515.586 548.341 520.364C550.948 527.018 553.932 533.451 558.666 539.145C559.061 538.45 559.308 537.859 559.269 537.08C558.997 531.725 558.958 526.35 558.465 521.014C557.965 515.606 558.445 510.127 557.142 504.791C557.473 502.097 554.943 500.084 555.378 497.364C557.816 499.02 560.19 500.799 563.089 501.61C563.218 501.779 563.348 501.948 563.478 502.116C563.141 504.129 562.966 506.187 562.434 508.147C559.716 518.235 563.698 525.746 571.338 531.939C571.857 532.361 572.272 532.828 572.907 532.491C573.712 532.062 573.089 531.426 572.979 530.887C572.745 529.777 572.525 528.661 572.233 527.57C570.093 519.553 569.762 511.023 565.3 503.493C566.344 503.746 567.272 503.966 568.199 504.187C567.914 503.356 566.785 502.382 568.621 501.902C578.05 502.467 587.532 505.219 597.817 501.662C594.017 499.688 591.144 498.137 588.219 496.702C583.556 494.411 578.802 493.327 573.66 495.307C570.456 496.54 567.486 498.163 564.541 499.877C561.999 500.318 558.167 498.319 557.674 496.306C559.6 496.001 561.532 495.735 563.445 495.378C568.504 494.417 573.523 493.132 578.621 492.502C585.813 491.613 592.071 489.477 595.683 482.479C594.84 482.2 593.971 482.038 593.018 482.174C587.421 482.979 581.792 483.161 576.137 483.167C573.523 483.167 570.891 482.784 568.225 483.868C562.466 486.212 558.77 490.639 555.371 495.495C551.655 494.073 548.173 492.288 545.436 489.302C551.292 489.289 556.539 487.101 561.656 484.595C569.931 480.545 578.147 476.39 586.345 472.177C587.875 471.391 589.795 471.086 591.027 469.256C590.288 469.054 589.814 468.86 589.321 468.801C582.583 467.996 575.858 468.204 569.081 468.619C563.004 468.989 558.685 471.697 554.956 476.267C551.746 480.201 549.606 485.134 544.826 487.685C541.947 489.237 540.702 486.504 538.64 485.563C540.306 483.881 543.16 484.466 543.996 481.992C545.17 481.161 546.467 480.454 547.505 479.48C555.281 472.17 563.465 465.335 571.513 458.337C575.022 455.286 578.439 452.137 581.896 449.034C573.238 450.612 565.158 453.325 557.395 457.058C552.985 459.174 549.528 462.167 546.733 466.146C543.179 471.197 540.741 476.844 537.777 482.206C537.388 482.908 537.414 484.466 536.182 484.018C535.034 483.602 535.384 482.33 535.669 481.285C537.109 475.949 538.594 470.625 539.911 465.263C541.071 460.537 542.615 455.798 540.643 450.203C535.604 457.499 528.399 463.199 530.916 473.177C530.63 475.968 531.999 478.448 532.848 481.726C529.722 479.512 527.115 477.753 524.599 475.877C517.861 470.859 511.162 465.789 504.45 460.739C500.656 457.09 496.551 453.851 492.03 451.125C495.422 455.39 499.819 458.486 504.015 461.81C512.135 468.886 520.941 475.053 529.671 481.317C530.475 481.895 532.355 482.109 530.274 483.472C527.025 483.888 523.75 483.998 520.533 484.816C514.91 486.244 507.653 494.489 506.94 500.773C513.607 497.228 520.118 493.723 526.681 490.315C529.022 489.101 531.058 487.432 532.511 485.394C533.828 483.55 534.606 484.057 535.78 485.154C535.702 485.582 535.63 486.043 535.559 486.51Z" fill="#548936"/>
<path d="M376.503 168.212C388.501 168.212 398.228 158.476 398.228 146.465C398.228 134.455 388.501 124.718 376.503 124.718C364.504 124.718 354.777 134.455 354.777 146.465C354.777 158.476 364.504 168.212 376.503 168.212Z" fill="#E58B41"/>
<path d="M558.724 402.561C558.724 404.177 558.698 405.787 558.666 407.39C558.698 405.787 558.724 404.177 558.724 402.561Z" fill="#FFE3B0"/>
<path d="M426.685 206.935C410.265 236.751 361.386 281.764 337.579 259.744C321.255 244.651 327.06 224.17 331.742 213.005C346.009 187.687 370.705 213.991 383.624 207.162C396.211 200.508 391.036 180.916 402.184 170.316C402.625 169.894 403.079 169.485 403.488 169.037C409.039 163.026 424 163.331 431.614 174.055C443.035 190.141 434.169 193.348 426.685 206.935Z" fill="#E58B41"/>
<path d="M610.956 339.858C623.168 373.089 582.719 423.47 572.512 418.407C566.273 415.317 574.451 393.102 565.339 352.244C560.748 331.678 555.838 324.583 559.068 319.15C565.845 307.75 601.78 314.878 610.956 339.858Z" fill="#E58B41"/>
<path d="M538.393 412.973C534.281 418.368 522.498 420.393 520.721 416.057C520.682 415.966 520.695 415.869 520.663 415.771C519.813 412.934 523.918 374.335 525.488 364C526.441 357.716 529.281 351.497 526.603 344.818C525.695 342.558 523.853 339.663 526.246 337.82C527.991 336.476 530.754 337.183 533.438 337.203C533.678 337.203 533.912 337.32 534.152 337.378C542.356 339.332 548.627 343.578 552.875 349.875C547.751 325.752 539.392 301.278 528.348 277.915C514.605 248.852 501.732 230.337 471.161 220.139C451.705 213.647 420.622 228.663 397.878 253.246C381.665 270.774 361.587 281.472 338.214 272.072C329.323 268.495 323.947 259.738 320.056 252.597C300.762 217.192 401.64 42.8004 221.48 142.239C152.089 180.54 95.019 274.669 164.411 327.9C222.661 372.582 145.604 316.215 141.712 401.256C141.421 407.598 141.453 413.876 141.777 420.082H141.803H540.695C539.807 417.459 539.119 414.823 538.938 412.162C538.776 412.447 538.594 412.714 538.393 412.973Z" fill="#FCB06B"/>
<path d="M188.698 102.861C221.643 85.8593 271.086 97.8104 280.995 128.879C289.011 154.015 274.776 174.749 261.144 175.223C248.342 175.665 240.443 159.669 224.191 158.962C207.939 158.254 201.039 188.486 183.717 187.376C170.059 186.506 157.809 169.426 156.019 153.541C153.405 130.295 173.321 110.8 188.698 102.861Z" fill="#E58B41"/>
<path d="M118.054 269.144C139.724 269.144 157.29 251.927 157.29 230.688C157.29 209.449 139.724 192.231 118.054 192.231C96.3852 192.231 78.8188 209.449 78.8188 230.688C78.8188 251.927 96.3852 269.144 118.054 269.144Z" fill="#E58B41"/>
<path d="M463.528 430.994C466.745 429.936 469.851 428.456 473.223 428.021C475.954 427.664 477.601 426.418 478.126 423.353C478.554 420.835 485.26 399.406 485.921 397.017C486.609 395.738 500.04 391.324 502.147 390.642C503.367 392.771 485.396 433.461 485.234 433.506C484.423 436.506 474.806 440.082 474.728 439.505C474.637 438.823 475.143 438.57 475.526 438.252C476.842 437.161 478.561 436.577 479.916 434.37C474.708 435.493 470.117 436.506 465.512 437.466C464.617 437.655 461.907 436.116 460.973 434.136C461.154 432.481 461.939 431.52 463.528 430.994Z" fill="#EAC3B9"/>
<path d="M515.851 426.95C510.812 426.515 511.343 422.555 511.168 418.92C511.006 415.583 511.415 412.077 509.333 409.15C509.262 409.052 509.164 408.981 509.048 408.948C508.14 408.669 507.238 408.384 506.33 408.092C505.999 407.988 505.857 407.605 506.025 407.306C507.997 403.755 508.204 398.451 505.461 393.589C505.435 393.544 505.416 393.492 505.403 393.433C505.143 392.142 504.754 390.681 504.223 389.091C503.775 387.766 503.25 386.468 502.601 385.221C502.504 385.033 502.296 384.916 502.082 384.929C500.403 385.033 499.359 384.332 498.678 382.411C495.779 374.257 492.419 366.298 489.462 358.164C489.06 357.054 488.976 355.334 487.186 355.834C487.03 355.879 486.901 355.99 486.836 356.139C484.864 360.547 479.721 373.64 483.399 389.519C485.441 398.341 489.436 404.722 492.394 408.585C492.478 408.689 492.517 408.825 492.504 408.955C491.946 415.914 491.829 422.899 491.375 429.865C491.168 433.026 492.53 434.246 495.189 434.766C500.96 435.895 506.641 434.733 512.342 434.039C512.524 434.019 512.679 433.909 512.764 433.747C513.814 431.663 514.865 429.579 515.915 427.495C515.993 427.339 516 427.157 515.915 427.008C515.889 426.976 515.87 426.95 515.851 426.95Z" fill="#AA0E19"/>
<path d="M486.933 355.918C489.696 359.495 490.377 364.085 492.186 368.135C492.186 368.135 495.669 376.613 498.438 384.352C506.583 407.105 507.673 427.034 511.006 426.943C511.784 426.924 512.893 425.814 514.177 420.387C513.153 417.498 503.898 391.109 500.098 371.556C497.238 356.833 498.963 352.432 499.034 351.497C499.313 348.031 499.968 344.649 501.187 341.396C501.239 341.195 501.207 341.02 501.077 340.864C498.47 342.162 495.532 342.435 493.023 344.175C488.93 347.012 488.412 351.699 486.933 355.918Z" fill="#AA0E19"/>
<path d="M540.326 414.466C540.313 414.336 540.339 414.2 540.391 414.077C543.302 407.442 536.739 392.784 528.737 352.043C528.056 348.583 527.504 345.629 527.096 343.396C527.044 343.117 526.837 342.889 526.564 342.811C524.735 342.292 522.9 341.734 521.065 341.351C520.786 341.292 520.494 341.403 520.319 341.636C519.774 342.37 519.08 343.175 518.224 344.123C516.279 346.265 514.145 348.213 511.492 349.368C507.738 351.004 505.935 350.231 504.268 346.336C503.671 344.941 503.263 343.454 502.407 342.195C502.082 341.721 501.376 341.779 501.129 342.292C499.761 345.11 498.464 348.485 497.575 352.4C494.255 367.025 498.859 379.45 501.175 384.676C501.181 384.689 501.188 384.709 501.194 384.722C501.791 386.37 502.381 388.039 502.958 389.74C505.448 397.049 507.491 404.164 509.171 411.013C509.171 411.013 509.177 411.013 509.177 411.019C509.566 415.245 510.072 419.471 510.02 423.691C509.981 427.203 511.064 427.988 514.015 427.138C514.262 427.066 514.528 427.073 514.8 427.112C515.539 427.203 516.285 427.229 517.024 427.183C524.846 426.703 533.283 426.125 541.078 425.651C541.467 425.625 541.772 425.307 541.778 424.918C541.843 421.373 540.695 417.978 540.326 414.466Z" fill="#F4F4F4"/>
<path d="M506.415 351.841C506.894 351.679 507.31 351.614 507.595 351.588C507.076 350.543 506.551 349.498 506.032 348.453C506 348.524 505.74 349.082 505.228 349.167C504.696 349.251 504.3 348.745 504.125 348.524C503.671 347.946 503.665 347.271 503.671 347.018C502.951 347.849 502.225 348.68 501.505 349.511C502.095 352.919 502.757 353.789 503.302 353.834C504.035 353.899 504.553 352.484 506.415 351.841Z" fill="#F4F4F4"/>
<path d="M556.13 403.859C554.379 409.085 551.299 414.564 548.996 419.439C548.906 419.64 548.782 419.854 548.64 420.088H557.985C558.089 418.835 558.18 417.576 558.257 416.316C558.283 415.946 558.303 415.583 558.329 415.213C558.394 414.142 558.452 413.064 558.497 411.986C558.53 411.266 558.556 410.545 558.582 409.825C558.608 409.02 558.64 408.208 558.659 407.397C558.698 405.793 558.718 404.177 558.718 402.567C558.718 400.152 558.672 397.718 558.595 395.271C557.946 398.114 557.109 400.951 556.13 403.859Z" fill="#FCB06B"/>
<path d="M540.799 420.367V420.387C540.968 421.886 541.415 423.418 541.266 424.892L541.26 424.996C541.26 425.022 541.253 425.041 541.253 425.067C541.091 426.989 543.692 427.735 544.587 426.028C544.716 425.781 544.846 425.535 544.976 425.281C545.67 423.931 547.654 421.692 548.64 420.088H540.708C540.741 420.179 540.767 420.276 540.799 420.367Z" fill="#AA0E19"/>
<path d="M558.64 365.065C558.666 365.227 558.698 365.39 558.724 365.558C558.724 365.377 558.692 365.214 558.64 365.065Z" fill="#AA0E19"/>
<path d="M556.13 403.859C557.109 400.951 557.946 398.114 558.601 395.264C558.283 385.695 557.343 375.906 555.832 366.006C555.521 366.208 555.229 366.506 554.963 366.954C548.037 378.84 541.175 390.727 541.285 405.333C541.298 406.982 541.149 408.676 540.28 410.163C539.774 410.786 539.379 411.493 538.951 412.168C539.132 414.83 539.82 417.466 540.708 420.088H548.64C548.782 419.855 548.906 419.64 548.996 419.439C551.299 414.564 554.379 409.085 556.13 403.859Z" fill="#AA0E19"/>
<path d="M534.158 337.385C533.918 337.326 533.685 337.216 533.445 337.209C530.767 337.19 527.997 336.482 526.253 337.826C523.86 339.67 525.702 342.565 526.609 344.824C529.288 351.497 526.447 357.723 525.494 364.007C523.925 374.341 519.82 412.941 520.669 415.778C520.695 415.869 520.689 415.972 520.727 416.063C522.498 420.406 534.282 418.381 538.4 412.98C538.594 412.72 538.776 412.447 538.951 412.175C538.834 410.448 538.931 408.708 539.321 406.955V406.936C539.398 406.56 539.483 406.183 539.599 405.8C539.645 405.657 539.671 405.508 539.677 405.359C539.768 403.294 539.677 401.217 539.762 399.146V399.127C539.8 397.646 539.924 396.205 540.241 394.777C542.609 384.131 548.076 374.711 554.236 365.591C554.723 364.877 555.131 364.338 555.521 363.981C554.768 359.3 553.886 354.594 552.888 349.881C548.64 343.578 542.369 339.339 534.158 337.385Z" fill="#AA0E19"/>
<path d="M554.236 365.591C548.075 374.712 542.608 384.131 540.241 394.777C539.924 396.205 539.8 397.64 539.761 399.127V399.146C539.677 401.21 539.768 403.294 539.677 405.359C539.671 405.508 539.645 405.657 539.599 405.8C539.483 406.183 539.398 406.56 539.32 406.936V406.956C538.925 408.708 538.834 410.448 538.951 412.175C539.385 411.5 539.781 410.792 540.28 410.169C541.143 408.682 541.298 406.988 541.285 405.339C541.175 390.726 548.037 378.847 554.963 366.96C555.222 366.513 555.514 366.214 555.832 366.013C555.728 365.338 555.631 364.662 555.52 363.987C555.131 364.338 554.723 364.877 554.236 365.591Z" fill="#700612"/>
<path d="M522.725 329.874C522.615 328.173 522.427 326.478 522.206 324.784C520.974 326.978 518.088 329.439 514.314 331.25C510.144 333.256 506.038 333.924 503.6 333.21C503.639 333.47 503.665 333.723 503.691 333.976C504.132 337.105 503.068 339.462 500.708 341.156C505.014 343.96 502.582 352.088 507.647 350.92C512.219 349.861 523.51 341.611 526.279 336.852C526.48 336.508 527.064 336.443 527.466 336.248C524.418 335.515 522.958 333.444 522.725 329.874Z" fill="#FFCFC2"/>
<path d="M497.569 347.304C497.329 348.556 496.226 352.536 496.959 352.945C497.711 353.36 498.269 352.64 498.807 352.192C499.735 351.426 500.591 350.582 501.505 349.803C502.446 348.998 503.568 348.336 503.691 346.901C503.678 346.713 503.658 346.525 503.645 346.33C503.101 344.467 503.302 342.454 502.686 340.604C502.569 340.273 502.459 339.936 502.342 339.604C500.027 341.714 497.809 343.883 497.569 347.304Z" fill="#DBDBDB"/>
<path d="M511.265 352.569C511.616 353.276 511.953 353.99 512.323 354.691C514.184 358.19 514.164 358.151 517.407 355.769C518.834 354.717 527.764 344.051 531.973 340.884C533.691 339.592 536.642 338.027 537.116 338.19C535.04 337.469 529.988 335.528 526.772 333.178C520.591 339.053 515.883 343.558 509.703 349.433C509.326 350.978 510.215 351.822 511.265 352.569Z" fill="#DBDBDB"/>
<path d="M520.228 395.647C508.12 397.341 498.302 397.296 491.492 396.926C487.212 396.692 483.84 396.394 481.083 396.166L481.466 407.631L527.265 415.2C531.402 413.278 534.327 409.578 534.359 405.865C534.411 400.477 528.374 394.615 520.228 395.647Z" fill="#FFCFC2"/>
<path d="M481.077 396.167C481.077 396.167 466.349 403.95 464.52 412.954C462.691 421.958 481.466 407.605 481.466 407.605L481.077 396.167Z" fill="#FFCFC2"/>
<path d="M517.867 331.802C522.213 329.192 522.407 327.907 522.206 324.791C522.057 323.635 522.083 321.655 521.921 320.5C519.411 324.94 514.988 329.049 509.878 329.926L503.457 331.023C503.302 331.049 503.146 331.068 502.99 331.088C503.295 331.587 503.619 333.886 503.736 334.703C504.242 336.346 505.922 335.917 507.485 335.697C512.031 335.048 514.625 333.749 517.867 331.802Z" fill="#DBB6AF"/>
<path d="M529.593 457.09H472.147C461.939 457.09 453.664 448.807 453.664 438.589C453.664 428.371 461.939 420.088 472.147 420.088H549.943C552.641 420.088 554.833 422.276 554.833 424.983V431.825C554.833 445.776 543.529 457.09 529.593 457.09Z" fill="#FFE3B0"/>
<path d="M504.249 354.522C504.249 355.237 505.332 355.821 505.87 355.821C506.408 355.821 506.843 355.237 506.843 354.522C506.843 353.808 506.408 353.224 505.87 353.224C505.332 353.224 504.249 353.802 504.249 354.522Z" fill="#DBDBDB"/>
<path d="M504.852 357.301C504.404 357.697 504.67 358.729 504.981 359.08C505.293 359.43 505.909 359.398 506.35 359.008C506.797 358.612 506.907 358.009 506.596 357.658C506.285 357.308 505.299 356.905 504.852 357.301Z" fill="#DBDBDB"/>
<path d="M506.382 361.021C505.883 360.884 505.286 361.488 505.189 361.839C505.098 362.189 505.429 362.585 505.928 362.715C506.428 362.851 506.914 362.67 507.005 362.319C507.102 361.968 506.888 361.151 506.382 361.021Z" fill="#DBDBDB"/>
<path d="M579.431 307.133H429.065C423.67 307.133 419.292 302.752 419.292 297.351V138.396C419.292 132.995 423.67 128.613 429.065 128.613H579.431C584.827 128.613 589.205 132.995 589.205 138.396V297.351C589.205 302.752 584.827 307.133 579.431 307.133Z" fill="#FFF9F0"/>
<path d="M462.503 174.25C462.503 178.573 462.451 182.903 462.523 187.227C462.581 190.466 461.278 192.108 457.873 192.082C449.04 192.011 440.207 192.004 431.374 192.089C428.456 192.115 427.366 190.849 427.386 188.019C427.457 178.989 427.477 169.959 427.379 160.935C427.347 157.884 428.761 156.177 431.621 156.125C440.823 155.969 450.032 156.034 459.241 155.989C462.147 155.976 462.516 157.852 462.503 160.137C462.477 164.843 462.503 169.543 462.503 174.25Z" fill="#AA0E19"/>
<path d="M427.412 223.963C427.405 219.821 427.529 215.673 427.367 211.538C427.237 208.272 428.274 206.714 431.835 206.779C440.674 206.948 449.52 206.922 458.359 206.799C461.608 206.753 462.594 208.175 462.555 211.226C462.445 219.886 462.432 228.552 462.562 237.212C462.607 240.458 461.693 242.048 458.106 241.977C449.267 241.802 440.421 241.841 431.582 241.958C428.326 242.003 427.295 240.555 427.386 237.517C427.509 233.006 427.412 228.481 427.412 223.963Z" fill="#FFE3B0"/>
<path d="M427.412 274.831C427.405 270.683 427.529 266.535 427.373 262.393C427.25 259.108 428.333 257.583 431.874 257.641C440.72 257.797 449.572 257.739 458.424 257.667C461.258 257.641 462.549 258.745 462.523 261.66C462.452 270.514 462.458 279.375 462.51 288.236C462.529 291.664 460.824 292.865 457.594 292.839C448.936 292.761 440.272 292.735 431.608 292.845C428.378 292.884 427.295 291.469 427.386 288.405C427.516 283.88 427.418 279.356 427.412 274.831Z" fill="#FFE3B0"/>
<path d="M512.193 143.466C495.267 143.466 478.347 143.466 461.42 143.466C457.665 143.466 452.412 143.668 452.445 139.227C452.477 134.586 457.62 134.372 461.783 134.378C495.442 134.436 529.106 134.411 562.765 134.417C563.893 134.417 565.021 134.411 566.15 134.462C569.198 134.592 570.566 136.702 570.709 139.266C570.858 141.967 568.783 143.22 566.292 143.395C563.861 143.564 561.409 143.473 558.964 143.473C543.367 143.466 527.783 143.466 512.193 143.466Z" fill="#FFE3B0"/>
<path d="M525.228 283.783C508.295 283.783 491.363 283.809 474.43 283.744C472.75 283.738 469.994 284.666 469.851 281.965C469.696 279.083 472.452 279.271 474.488 279.271C508.542 279.252 542.602 279.245 576.656 279.278C578.401 279.278 580.956 278.713 580.923 281.543C580.891 284.361 578.336 283.744 576.598 283.751C559.47 283.803 542.349 283.783 525.228 283.783Z" fill="#FFE3B0"/>
<path d="M526.045 183.065C509.281 183.065 492.517 183.104 475.753 183.007C473.969 182.994 470.895 184.143 470.921 180.943C470.947 178.112 473.826 178.554 475.811 178.547C509.528 178.521 543.244 178.521 576.961 178.547C578.77 178.547 581.436 178.125 581.578 180.54C581.753 183.598 578.816 183.013 576.902 183.02C559.95 183.091 542.998 183.065 526.045 183.065Z" fill="#FFE3B0"/>
<path d="M525.838 220.392C542.771 220.392 559.697 220.366 576.63 220.425C578.355 220.431 581.17 219.672 581.293 222.145C581.423 224.748 578.679 224.885 576.572 224.885C542.712 224.898 508.847 224.898 474.987 224.904C472.75 224.904 470.253 224.411 470.435 221.885C470.636 219.107 508.905 220.392 525.838 220.392Z" fill="#FFE3B0"/>
<path d="M525.235 274.779C508.496 274.779 491.758 274.799 475.02 274.747C473.275 274.74 470.48 275.428 470.363 272.987C470.247 270.391 472.996 270.261 475.091 270.261C509.132 270.248 543.173 270.248 577.214 270.267C578.867 270.267 581.04 270.066 580.923 272.533C580.794 275.37 578.303 274.701 576.572 274.708C559.457 274.753 542.343 274.74 525.228 274.74C525.235 274.753 525.235 274.766 525.235 274.779Z" fill="#FFE3B0"/>
<path d="M525.942 288.295C542.693 288.295 559.451 288.269 576.202 288.334C577.888 288.34 580.644 287.432 580.774 290.132C580.917 293.04 578.102 292.787 576.105 292.787C542.596 292.82 509.093 292.813 475.584 292.807C474.086 292.807 472.529 292.891 471.278 291.826C469.741 290.515 469.618 289.184 471.758 288.581C473.165 288.185 474.741 288.301 476.239 288.301C492.815 288.288 509.378 288.295 525.942 288.295Z" fill="#FFE3B0"/>
<path d="M525.702 241.945C508.944 241.951 492.186 241.977 475.428 241.906C473.755 241.899 470.993 242.815 470.869 240.095C470.733 237.173 473.522 237.452 475.532 237.452C509.048 237.42 542.557 237.42 576.072 237.42C577.577 237.42 579.133 237.349 580.379 238.4C581.935 239.718 582.013 241.049 579.886 241.646C578.478 242.042 576.903 241.932 575.404 241.932C558.835 241.945 542.271 241.938 525.702 241.945Z" fill="#FFE3B0"/>
<path d="M525.831 174.042C509.281 174.048 492.737 174.1 476.194 173.977C474.3 173.964 470.941 175.36 470.947 171.822C470.954 169.056 473.917 169.524 475.895 169.524C509.177 169.498 542.459 169.504 575.742 169.53C577.726 169.53 580.703 169.069 580.722 171.789C580.748 175.288 577.389 173.958 575.476 173.97C558.925 174.081 542.382 174.035 525.831 174.042Z" fill="#FFE3B0"/>
<path d="M526.052 187.571C542.79 187.564 559.522 187.538 576.26 187.61C577.94 187.616 580.69 186.72 580.787 189.453C580.891 192.368 578.096 192.063 576.098 192.063C542.628 192.095 509.158 192.095 475.688 192.063C473.703 192.063 470.811 192.413 470.902 189.564C470.999 186.441 474.067 187.648 475.85 187.636C492.582 187.532 509.314 187.571 526.052 187.571Z" fill="#FFE3B0"/>
<path d="M526.11 229.429C542.849 229.429 559.593 229.403 576.332 229.474C577.979 229.481 580.852 228.526 580.781 231.331C580.696 234.687 577.901 233.045 576.014 233.038C554.762 232.973 533.503 232.798 512.251 232.973C500.429 233.077 470.597 233.7 470.979 230.863C471.265 228.741 473.742 229.429 475.318 229.422C492.244 229.377 509.177 229.396 526.104 229.396C526.11 229.409 526.11 229.422 526.11 229.429Z" fill="#FFE3B0"/>
<path d="M474.832 263.912C472.808 263.886 470.312 263.86 470.13 261.063C469.935 258.005 472.452 257.395 474.741 257.375C487.484 257.278 500.228 257.31 512.978 257.336C515.442 257.343 517.712 258.115 517.556 261.05C517.394 264.127 514.8 264.127 512.498 264.133C506.499 264.153 500.5 264.14 494.508 264.14" fill="#FCB06B"/>
<path d="M489.78 206.429C494.657 206.429 499.534 206.416 504.404 206.435C506.648 206.448 508.73 206.987 508.704 209.72C508.678 212.323 506.713 213.174 504.443 213.187C494.508 213.225 484.566 213.232 474.631 213.18C472.186 213.167 469.981 212.395 470.046 209.428C470.104 206.5 472.575 206.513 474.592 206.468C479.65 206.357 484.715 206.429 489.78 206.429Z" fill="#FCB06B"/>
<path d="M503.38 156.618C512.232 156.618 521.078 156.586 529.93 156.638C532.304 156.651 535.468 156.19 535.43 159.767C535.391 163.149 532.265 163.084 529.878 163.084C511.616 163.123 493.354 163.091 475.091 163.006C472.912 162.993 470.143 163.136 470.169 159.806C470.195 156.463 472.97 156.722 475.143 156.709C484.56 156.631 493.97 156.677 503.386 156.677C503.38 156.657 503.38 156.638 503.38 156.618Z" fill="#FCB06B"/>
<path d="M429.669 140.948C430.743 140.948 431.614 140.076 431.614 139C431.614 137.925 430.743 137.053 429.669 137.053C428.594 137.053 427.723 137.925 427.723 139C427.723 140.076 428.594 140.948 429.669 140.948Z" fill="#AA0E19"/>
<path d="M436.154 140.948C437.229 140.948 438.1 140.076 438.1 139C438.1 137.925 437.229 137.053 436.154 137.053C435.08 137.053 434.208 137.925 434.208 139C434.208 140.076 435.08 140.948 436.154 140.948Z" fill="#FFE3B0"/>
<path d="M442.639 140.948C443.714 140.948 444.585 140.076 444.585 139C444.585 137.925 443.714 137.053 442.639 137.053C441.565 137.053 440.694 137.925 440.694 139C440.694 140.076 441.565 140.948 442.639 140.948Z" fill="#6AB539"/>
<path d="M485.714 309.47C486.628 324.823 485.941 340.552 504.417 334.989C514.054 332.087 522.089 322.863 522.089 322.863C522.089 322.863 522.342 317.033 520.41 310.373C517.148 299.123 510.26 284.75 504.313 284.763C494.845 284.776 484.76 293.371 485.714 309.47Z" fill="#FFCFC2"/>
<path d="M521.006 302.102C520.701 298.376 516.343 301.603 514.229 303.485C520.773 305.037 520.429 312.145 517.31 314.969C512.608 319.234 516.207 319.623 519.722 320.363C520.474 320.519 521.311 320.922 522.122 320.974C522.122 320.974 522.213 319.279 522.187 318.637C521.986 313.755 522.738 309.256 521.324 304.219C521.162 303.634 521.058 302.7 521.006 302.102Z" fill="#382B26"/>
<path d="M481.693 302.232C482.056 302.505 483.139 302.94 483.593 302.985C489.923 303.557 496.22 303.044 502.504 302.252C504.793 301.966 505.623 302.141 505.896 305.219C506.006 306.471 506.596 313.541 508.133 313.534C510.85 313.528 510.332 308.127 510.61 306.952C511.265 304.167 513.769 303.219 515.87 304.057C516.026 304.121 517.057 304.738 517.167 304.745C517.978 304.823 517.459 304.628 517.997 305.244C519.132 306.556 520.02 306.238 520.688 304.725C521.583 303.141 520.63 301.226 521.356 299.61C521.447 299.409 521.577 299.227 521.726 299.064C523.853 296.676 525.727 293.456 523.808 290.853C521.415 287.607 519.391 283.64 515.863 281.556C512.063 279.31 507.958 278.927 504.106 281.725C503.217 282.374 502.647 282.004 501.816 281.647C495.519 278.914 490.403 280.31 486.408 285.919C485.772 286.808 485.279 286.971 484.352 286.867C481.362 286.536 479.008 287.717 477.938 290.775C476.777 294.111 477.062 297.409 479.462 300.116C480.279 301.051 480.688 301.479 481.693 302.232Z" fill="#382B26"/>
<path d="M212.939 198.295C214.379 194.465 217.129 192.355 218.796 189.596C219.58 188.291 219.931 187.045 219.924 185.578C219.879 176.866 219.892 168.147 219.898 159.429C219.898 155.859 224.418 155.314 224.418 155.314L270.632 154.794C270.632 154.794 275.95 155.567 275.956 159.767C275.963 169.465 275.969 179.151 275.963 188.849C275.963 192.569 271.345 193.238 271.345 193.238L231.649 193.173C231.649 193.173 221.909 194.147 217.473 196.36C216.253 196.964 214.937 197.444 212.939 198.295Z" fill="#FFF9F0"/>
<path d="M265.106 173.925C266.196 174.444 267.292 174.944 268.368 175.483C271.053 176.827 271.014 179.17 270.768 181.501C270.541 183.636 268.479 183.292 267.019 183.539C263.829 184.078 260.593 184.032 257.402 183.559C255.878 183.331 253.692 183.701 253.511 181.364C253.336 179.034 253.264 176.677 256.04 175.411C257.136 174.899 258.238 174.386 259.334 173.873C261.267 173.711 263.193 173.652 265.106 173.925Z" fill="#AA0E19"/>
<path d="M259.918 172.984C258.316 171.153 258.064 169.011 258.252 166.771C258.427 164.759 259.802 163.616 261.793 163.759C263.738 163.895 265.703 164.519 265.982 166.907C266.241 169.089 265.716 171.069 264.484 172.906C262.584 174.938 262.026 174.951 259.918 172.984Z" fill="#AA0E19"/>
<path d="M232.966 167.55C231.066 167.55 229.159 167.596 227.259 167.537C225.955 167.498 225.067 166.843 225.06 165.557C225.054 164.252 225.981 163.597 227.265 163.59C231.066 163.551 234.872 163.577 238.679 163.629C239.905 163.642 240.969 164.058 241.014 165.447C241.059 166.914 240.08 167.518 238.673 167.557C236.773 167.609 234.872 167.57 232.966 167.57C232.966 167.563 232.966 167.563 232.966 167.55Z" fill="#FCB06B"/>
<path d="M235.929 175.541C239.159 175.541 242.395 175.541 245.625 175.535C246.643 175.535 247.687 175.678 247.681 176.846C247.674 177.976 246.662 178.203 245.638 178.203C239.081 178.203 232.518 178.209 225.962 178.203C224.892 178.203 223.99 177.852 224.055 176.716C224.107 175.691 225.054 175.541 225.955 175.541C229.276 175.541 232.603 175.548 235.929 175.541Z" fill="#FFE3B0"/>
<path d="M235.625 182.468C232.68 182.468 229.73 182.462 226.785 182.468C225.618 182.475 224.198 182.546 224.081 181.17C223.951 179.612 225.475 179.787 226.578 179.787C232.849 179.767 239.12 179.774 245.391 179.774C246.468 179.774 247.733 179.774 247.687 181.118C247.642 182.377 246.403 182.462 245.314 182.462C242.084 182.462 238.854 182.462 235.618 182.462C235.625 182.462 235.625 182.468 235.625 182.468Z" fill="#FFE3B0"/>
<path d="M310.341 248.059C308.901 244.229 306.151 242.12 304.485 239.361C303.7 238.056 303.35 236.809 303.356 235.342C303.402 226.631 303.389 217.912 303.382 209.194C303.382 205.624 298.862 205.078 298.862 205.078L252.648 204.565C252.648 204.565 247.331 205.338 247.324 209.538C247.318 219.237 247.311 228.922 247.318 238.621C247.318 242.34 251.935 243.009 251.935 243.009L291.631 242.944C291.631 242.944 301.372 243.918 305.808 246.131C307.027 246.742 308.343 247.209 310.341 248.059Z" fill="#FFF9F0"/>
<path d="M258.174 223.703C257.084 224.222 255.988 224.722 254.912 225.261C252.227 226.605 252.266 228.948 252.512 231.278C252.739 233.414 254.802 233.07 256.261 233.317C259.451 233.856 262.688 233.81 265.878 233.336C267.402 233.109 269.588 233.479 269.769 231.142C269.945 228.812 270.016 226.455 267.24 225.189C266.144 224.676 265.042 224.164 263.946 223.651C262.02 223.482 260.094 223.424 258.174 223.703Z" fill="#F47B2A"/>
<path d="M263.369 222.749C264.97 220.918 265.223 218.776 265.035 216.536C264.86 214.524 263.485 213.381 261.494 213.524C259.549 213.66 257.584 214.283 257.305 216.672C257.045 218.854 257.571 220.834 258.803 222.671C260.703 224.703 261.261 224.716 263.369 222.749Z" fill="#F47B2A"/>
<path d="M290.315 217.328C292.215 217.328 294.121 217.373 296.022 217.315C297.325 217.276 298.214 216.62 298.22 215.335C298.226 214.03 297.299 213.375 296.015 213.368C292.215 213.329 288.408 213.355 284.601 213.407C283.375 213.42 282.312 213.836 282.266 215.225C282.221 216.692 283.2 217.296 284.608 217.335C286.508 217.386 288.408 217.348 290.315 217.348C290.315 217.335 290.315 217.328 290.315 217.328Z" fill="#FCB06B"/>
<path d="M287.351 225.313C284.121 225.313 280.885 225.313 277.655 225.306C276.637 225.306 275.593 225.449 275.6 226.617C275.606 227.747 276.618 227.974 277.642 227.974C284.199 227.974 290.762 227.981 297.319 227.974C298.389 227.974 299.29 227.624 299.225 226.488C299.173 225.462 298.227 225.313 297.325 225.313C294.005 225.306 290.678 225.313 287.351 225.313Z" fill="#FFE3B0"/>
<path d="M287.662 232.239C290.606 232.239 293.557 232.233 296.501 232.239C297.669 232.246 299.089 232.317 299.206 230.941C299.335 229.383 297.811 229.558 296.709 229.558C290.438 229.539 284.167 229.545 277.895 229.545C276.819 229.545 275.554 229.545 275.6 230.889C275.645 232.148 276.884 232.233 277.973 232.233C281.203 232.233 284.432 232.233 287.669 232.233C287.662 232.233 287.662 232.233 287.662 232.239Z" fill="#FFE3B0"/>
<path d="M349.343 468.496L350.769 390.674C350.88 388.545 351.664 387.026 353.792 386.981C355.737 386.981 356.833 387.812 356.911 389.519L357.138 463.511C357.748 478.013 384.48 477.773 384.752 463.257C384.752 463.141 385.569 462.394 385.569 462.277L384.998 366.142C384.998 364.89 385.044 363.637 385.122 362.384C386.38 342.63 381.749 357.093 377.994 357.087L329.135 356.963C325.503 356.957 321.612 350.803 322.021 361.845C322.079 363.39 320.73 358.041 321.476 363.254C321.904 366.246 320.827 369.258 320.814 372.284L318.129 464.225C318.123 467.97 322.838 470.015 324.524 473.099C329.582 482.33 348.791 479.006 349.343 468.496Z" fill="url(#paint0_linear)"/>
<path d="M356.898 580.97C358.059 580.938 359.22 580.905 360.381 580.86C361.075 580.834 361.762 580.789 362.456 580.756C363.493 580.704 364.538 580.652 365.575 580.587C366.315 580.542 367.047 580.483 367.787 580.432C368.772 580.36 369.752 580.295 370.737 580.211C371.496 580.146 372.255 580.074 373.007 580.003C373.954 579.912 374.907 579.828 375.854 579.73C376.626 579.653 377.398 579.562 378.17 579.471C379.09 579.367 380.018 579.263 380.939 579.146C381.717 579.049 382.495 578.945 383.267 578.841C384.175 578.718 385.076 578.594 385.978 578.465C386.756 578.348 387.534 578.231 388.312 578.108C389.201 577.971 390.089 577.828 390.978 577.679C391.763 577.549 392.541 577.413 393.319 577.27C394.194 577.114 395.063 576.958 395.932 576.79C396.711 576.64 397.495 576.491 398.267 576.335C399.13 576.166 399.986 575.985 400.842 575.809C401.62 575.647 402.398 575.478 403.17 575.31C404.02 575.121 404.863 574.927 405.706 574.732C406.477 574.55 407.256 574.368 408.027 574.18C408.864 573.979 409.694 573.765 410.524 573.557C411.296 573.362 412.068 573.161 412.833 572.96C413.657 572.739 414.474 572.518 415.291 572.291C416.056 572.077 416.828 571.869 417.593 571.648C418.397 571.415 419.201 571.174 420.006 570.934C420.771 570.707 421.536 570.48 422.301 570.24C423.093 569.993 423.877 569.74 424.662 569.487C425.427 569.24 426.192 569 426.951 568.74C427.723 568.48 428.488 568.214 429.253 567.948C430.019 567.682 430.79 567.422 431.549 567.15C432.289 566.883 433.021 566.604 433.761 566.338C434.539 566.053 435.317 565.767 436.089 565.475C436.763 565.222 437.425 564.949 438.093 564.689C441.335 563.417 444.526 562.08 447.672 560.671C448.177 560.444 448.683 560.23 449.183 560.002C450.058 559.606 450.927 559.191 451.796 558.782C452.354 558.522 452.918 558.263 453.469 557.996C454.319 557.587 455.162 557.165 456.005 556.743C456.569 556.464 457.133 556.192 457.691 555.906C458.528 555.484 459.351 555.049 460.181 554.614C460.739 554.322 461.297 554.036 461.848 553.738C462.672 553.296 463.482 552.849 464.3 552.394C464.844 552.096 465.389 551.797 465.927 551.492C466.745 551.031 467.549 550.563 468.353 550.096C468.885 549.791 469.41 549.486 469.935 549.174C470.739 548.694 471.544 548.214 472.341 547.727C472.854 547.415 473.366 547.103 473.878 546.785C474.682 546.285 475.474 545.779 476.271 545.273C476.764 544.961 477.251 544.643 477.743 544.325C478.541 543.806 479.339 543.273 480.13 542.748C480.597 542.429 481.064 542.118 481.531 541.8C482.328 541.254 483.12 540.703 483.911 540.151C484.352 539.839 484.799 539.521 485.234 539.21C486.031 538.638 486.829 538.061 487.62 537.476C488.035 537.171 488.444 536.866 488.853 536.555C489.657 535.951 490.461 535.341 491.252 534.73C491.628 534.438 492.004 534.14 492.381 533.848C493.198 533.205 494.008 532.562 494.806 531.913C495.137 531.64 495.467 531.368 495.798 531.095C496.628 530.413 497.458 529.725 498.282 529.031C498.561 528.797 498.833 528.557 499.106 528.323C499.968 527.583 500.831 526.837 501.68 526.083C501.875 525.908 502.069 525.733 502.264 525.558C503.185 524.733 504.099 523.902 505.001 523.065C505.059 523.006 505.117 522.955 505.182 522.896C509.372 518.982 513.347 514.905 517.109 510.685C520.87 506.466 524.404 502.097 527.712 497.592C527.77 497.507 527.835 497.429 527.894 497.345C528.646 496.313 529.385 495.274 530.118 494.229C530.209 494.099 530.299 493.969 530.39 493.84C531.097 492.82 531.791 491.795 532.472 490.762C532.576 490.607 532.68 490.451 532.783 490.295C533.451 489.276 534.106 488.25 534.755 487.218C534.865 487.043 534.975 486.874 535.079 486.699C535.715 485.673 536.344 484.634 536.96 483.596C537.064 483.42 537.167 483.239 537.271 483.063C537.881 482.018 538.484 480.973 539.074 479.915C539.171 479.74 539.269 479.564 539.366 479.396C539.956 478.331 540.533 477.26 541.097 476.182C541.182 476.02 541.266 475.858 541.35 475.695C541.921 474.598 542.479 473.495 543.024 472.385C543.088 472.248 543.153 472.112 543.225 471.976C543.782 470.84 544.321 469.691 544.846 468.542C544.891 468.444 544.93 468.353 544.976 468.256C545.52 467.061 546.052 465.861 546.564 464.647C546.577 464.621 546.59 464.588 546.603 464.562C552.583 450.488 556.493 435.59 558.017 420.114C558.017 420.114 558.017 420.114 558.017 420.107H141.816C148.885 491.775 207.057 551.226 285.587 572.603C286.041 572.726 286.501 572.849 286.962 572.973C287.772 573.187 288.583 573.395 289.394 573.602C302.74 576.978 316.599 579.276 330.808 580.373C331.846 580.451 332.883 580.529 333.927 580.594C334.485 580.633 335.043 580.659 335.607 580.691C336.839 580.763 338.078 580.827 339.317 580.879C339.667 580.892 340.024 580.905 340.374 580.918C341.794 580.97 343.221 581.016 344.648 581.048C344.81 581.055 344.965 581.055 345.127 581.055C346.716 581.087 348.312 581.1 349.907 581.1C349.907 581.1 349.907 581.1 349.913 581.1C351.671 581.1 353.422 581.081 355.166 581.042C355.737 581.009 356.321 580.99 356.898 580.97Z" fill="#FFE3B0"/>
<path d="M330.802 368.389C331.761 368.454 332.728 368.421 333.681 368.298L359.252 364.955C364.272 364.059 369.415 364.766 374.473 364.124C383.624 362.962 385.569 366.207 385.764 360.008L388.176 307.471C388.397 292.755 380.958 279.972 368.156 274.513C367.949 274.422 368.169 274.779 367.962 274.695C364.038 273.117 359.194 271.774 354.356 271.702H354.324C353.455 271.637 352.579 271.592 351.71 271.605C331.573 271.942 317.436 287.042 316.813 305.718C316.8 306.186 316.813 306.653 316.845 307.121L320.315 358.43C320.341 358.839 320.315 359.502 320.341 359.911C320.711 366.22 320.73 366.227 323.305 367.519C324.693 368.2 327.63 368.174 330.802 368.389Z" fill="#FFF9F0"/>
<path d="M372.171 276.558C372.534 276.759 378.111 279.771 381.6 281.816C385.07 283.848 387.826 286.399 387.988 286.581C392.366 291.45 393.941 296.591 394.246 304.173C394.447 309.191 394.35 313.696 394.35 316.838C394.35 318.65 394.246 320.454 394.052 322.252L393.669 327.134C393.598 328.049 393.5 328.958 393.371 329.867L392.644 335.015C392.275 339.657 387.579 343.13 382.936 342.766L380.809 342.597C376.172 342.227 375.647 338.267 376.016 333.619L377.819 309.522C377.955 305.153 377.352 300.746 377.138 296.377C377.035 294.235 376.71 292.105 376.127 290.041C374.492 284.198 372.119 279.654 370.342 275.539L371.431 276.149L372.171 276.558Z" fill="#AA0E19"/>
<path d="M356.45 284.049H356.405C356.107 284.036 355.815 284.01 355.523 283.978C352.78 283.634 350.808 283.238 348.435 282.387C340.614 279.583 336.087 275.305 336.087 275.305C336.087 275.305 339.693 273.351 341.975 270.592C343.655 268.56 343.545 265.139 343.551 262.588L344.822 262.906C344.822 262.108 344.647 261.316 344.258 260.621C342.559 257.57 346.995 257.051 349.226 257.051H352.105C356.95 257.051 361.58 258.732 361.58 263.581L361.515 265.068C361.515 266.885 362.825 269.307 363.986 271.098C364.991 272.643 366.451 273.831 368.169 274.507C368.357 277.863 366.211 280.758 363.143 282.673C362.397 283.134 360.867 283.562 359.518 283.829C358.5 284.03 357.475 284.101 356.45 284.049Z" fill="#FFCFC2"/>
<path d="M359.135 277.019C361.658 276.207 363.746 274.656 365.264 272.65C364.784 272.189 364.356 271.67 363.986 271.105C362.826 269.313 361.516 266.892 361.516 265.074L361.58 263.588C361.58 258.738 356.95 257.057 352.106 257.057H349.226C346.995 257.057 342.559 257.57 344.258 260.628C344.648 261.322 344.823 262.114 344.823 262.913L343.552 262.595C343.545 264.523 343.61 266.944 342.916 268.891C345.575 275.493 352.618 279.109 359.135 277.019Z" fill="#DBB6AF"/>
<path d="M355.666 252.123C364.382 251.818 368.837 257.232 371.743 254.811C372.035 253.292 372.164 251.714 372.106 250.098L372.086 235.654C371.671 223.911 366.146 215.03 355.381 214.433C354.829 214.4 354.285 214.42 353.733 214.465L353.656 214.472C341.781 214.946 334.557 224.897 334.985 236.965L335.484 251.156C335.549 252.98 335.847 254.746 336.34 256.408C339.356 258.647 346.878 252.435 355.666 252.123Z" fill="#FFCFC2"/>
<path d="M354.032 270.099L357.599 269.975C365.822 269.683 370.115 263.269 371.743 254.811C368.844 257.232 364.875 251.805 356.159 252.104C347.372 252.409 339.356 258.647 336.347 256.414C338.753 264.561 345.88 270.391 354.032 270.099Z" fill="#51413D"/>
<path d="M357.106 254.337C355.244 254.369 354.369 254.454 353.221 254.967C352.145 255.44 351.859 256.869 353.61 256.836L361.749 256.7C362.521 256.693 362.138 255.622 361.049 255.181C359.881 254.7 358.967 254.304 357.106 254.337Z" fill="#FFCFC2"/>
<path d="M335.712 247.13C337.479 246.654 338.262 243.852 337.46 240.871C336.659 237.89 334.577 235.86 332.809 236.336C331.042 236.812 330.259 239.615 331.061 242.595C331.862 245.576 333.944 247.606 335.712 247.13Z" fill="#FFCFC2"/>
<path d="M334.845 245.341C335.774 245.148 336.352 244.141 336.135 243.091C335.918 242.042 334.988 241.347 334.059 241.539C333.129 241.732 332.552 242.739 332.769 243.789C332.986 244.838 333.915 245.533 334.845 245.341Z" fill="#F7F7F7"/>
<path d="M334.492 250.111L334.511 250.104C334.732 250.059 334.881 249.838 334.829 249.617L333.616 243.742C333.571 243.522 333.35 243.372 333.13 243.424L333.11 243.431C332.89 243.476 332.741 243.697 332.793 243.918L334.005 249.793C334.044 250.013 334.265 250.156 334.492 250.111Z" fill="#F7F7F7"/>
<path d="M336.223 245.294H336.301C337.086 245.268 337.702 244.6 337.676 243.814L337.637 242.756C337.611 241.97 336.943 241.354 336.159 241.38H336.081C335.296 241.406 334.68 242.074 334.706 242.86L334.745 243.918C334.771 244.703 335.439 245.32 336.223 245.294Z" fill="#FFCFC2"/>
<path d="M368.669 327.387C368.961 327.615 369.337 327.719 369.687 327.68C373.546 327.225 390.42 324.706 389.188 318.715C388.948 317.553 388.196 317.007 388.027 316.897C384.428 314.398 373.572 316.683 364.641 319.124C364.298 319.214 364.051 319.455 363.999 319.766C363.831 320.708 363.85 322.694 366.159 324.979C367.015 325.816 367.884 326.784 368.669 327.387Z" fill="#FFCFC2"/>
<path d="M334.368 276.155C334.038 276.233 330.121 277.467 326.443 279.141C322.74 280.823 319.848 282.971 319.66 283.127C314.679 287.379 312.825 292.748 311.832 300.272C311.177 305.251 310.873 309.743 310.594 312.879C310.432 314.677 310.367 316.488 310.406 318.293L310.347 323.187C310.334 324.103 310.354 325.024 310.399 325.94L310.659 331.133C310.607 335.794 314.971 339.676 319.628 339.728L321.761 339.754C326.418 339.806 330.263 336.041 330.315 331.38L329.621 307.75C329.479 302.92 329.77 298.084 330.49 293.306L330.84 290.969C331.612 285.919 332.436 280.868 334.368 276.155Z" fill="#AA0E19"/>
<path d="M360.614 332.665L326.178 339.501C324.673 339.799 323.149 339.955 321.619 339.923C316.884 339.806 312.727 338.066 312.273 335.197L312.436 330.594C311.871 327.037 315.004 320.63 319.05 319.98L357.968 316.696C367.677 316.176 367.249 317.949 367.819 321.506L367.929 325.33C368.5 328.893 364.667 332.022 360.614 332.665Z" fill="#AA0E19"/>
<path d="M344.751 328.381C344.382 328.549 343.954 328.588 343.584 328.478C339.531 327.316 321.923 321.733 324.679 316.027C325.211 314.924 326.158 314.521 326.366 314.437C330.847 312.619 342.014 316.877 351.061 320.928C351.412 321.084 351.613 321.363 351.6 321.688C351.554 322.649 351.068 324.609 348.026 326.446C346.911 327.128 345.737 327.926 344.751 328.381Z" fill="#FFCFC2"/>
<path d="M346.204 332.049L381.004 343.188C384.61 344.175 390.42 341.695 391.374 338.216L390.245 335.314C391.192 331.834 392.58 325.596 388.968 324.609L350.478 318.072C342.799 317.429 343.163 318.721 342.216 322.201L341.496 325.382C340.543 328.855 340.776 331.062 346.204 332.049Z" fill="#AA0E19"/>
<path d="M352.624 333.282C350.491 332.853 348.357 332.347 346.321 331.574C344.797 330.997 341.995 329.906 341.956 327.913C341.943 327.29 340.971 327.284 340.984 327.913C341.029 330.237 343.623 331.516 345.471 332.282C347.683 333.197 350.03 333.756 352.365 334.23C352.975 334.34 353.241 333.405 352.624 333.282Z" fill="#700612"/>
<path d="M367.333 320.669C366.269 320.208 365.115 319.935 363.987 319.656C362.151 319.201 360.296 318.818 358.442 318.487C354.661 317.812 350.646 317.124 346.794 317.481C345.607 317.591 344.025 317.786 343.318 318.896C342.981 319.429 343.824 319.915 344.161 319.39C344.661 318.598 346.107 318.513 346.924 318.448C348.63 318.306 350.355 318.416 352.054 318.572C355.802 318.922 359.531 319.597 363.189 320.467C364.382 320.753 365.77 321.045 366.84 321.512C367.411 321.759 367.904 320.922 367.333 320.669Z" fill="#700612"/>
<path d="M343.396 318.799C341.969 320.227 341.554 322.33 341.295 324.259C341.133 325.466 341.068 326.686 340.984 327.907C340.945 328.53 341.917 328.53 341.956 327.907C342.028 326.836 342.086 325.765 342.209 324.7C342.423 322.908 342.754 320.818 344.083 319.487C344.524 319.046 343.837 318.351 343.396 318.799Z" fill="#700612"/>
<path d="M155.617 347.395C157.783 346.986 159.981 347.135 162.057 347.83L162.971 348.135C163.464 348.303 163.996 348.323 164.508 348.206C168.127 347.356 171.856 347.732 175.222 349.284C176.214 349.738 177.31 349.855 178.373 349.621C180.786 349.082 183.263 349.355 185.501 350.407C186.72 350.978 188.088 351.043 189.372 350.582C191.953 349.66 194.71 349.848 197.109 351.121L199.982 352.64C200.494 352.913 201.085 352.964 201.629 352.737C201.681 352.718 201.733 352.692 201.778 352.666C202.771 352.166 203.354 350.965 203.277 349.751L203.063 346.408C202.985 345.22 203.296 344.025 203.932 343.052C205.293 340.961 205.923 338.384 205.683 335.852L205.553 334.444C205.475 333.593 205.611 332.724 205.948 331.945C206.921 329.679 207.226 327.134 206.811 324.706C206.409 322.363 206.701 319.916 207.641 317.728C208.666 315.352 208.971 312.677 208.517 310.133L208.471 309.873C208.037 307.439 208.043 304.907 208.491 302.44C208.828 300.577 209.12 298.655 208.964 297.253C208.737 295.176 209.211 293.066 208.601 291.145C208.069 289.463 207.226 288.282 206.435 286.763C205.514 284.99 204.716 282.959 203.484 281.465C202.109 279.797 201.117 277.986 199.411 276.74C197.725 275.513 195.3 274.059 193.348 273.318C191.707 272.702 189.638 272.864 187.848 272.643L187.492 272.598C184.885 272.28 182.673 271.371 180.189 271.91C177.705 272.449 173.665 274.188 171.441 275.474C168.769 277.012 166.11 279.33 164.002 281.764C162.134 283.926 162.335 286.711 161.084 289.431C160.435 290.839 159.54 292.151 158.723 293.501C157.322 295.825 156.732 298.642 157.063 301.382L157.556 305.452C157.653 306.257 157.478 307.082 157.063 307.763C155.474 310.366 154.962 313.599 155.669 316.592C156.168 318.708 155.818 320.987 154.722 322.843C153.113 325.563 152.809 328.984 153.918 331.912C154.858 334.398 154.774 337.268 153.678 339.754L152.945 341.416C151.849 343.902 153.055 346.901 155.422 347.356C155.468 347.375 155.539 347.382 155.617 347.395Z" fill="#5B453C"/>
<path d="M455.162 450.222H376.107L366.016 428.423C365.789 427.936 366.146 427.378 366.684 427.378H444.111C444.396 427.378 444.656 427.547 444.779 427.807L455.162 450.222Z" fill="#8C8C8C"/>
<path d="M190.955 328.867L190.857 328.549C188.938 330.536 178.769 326.777 176.246 325.797L176.077 326.582C175.74 328.166 174.644 329.491 173.153 330.107L172.199 330.503C170.682 333.892 179.126 338.176 182.349 338.001L190.124 339.436C190.455 339.416 195.125 331.529 196.097 330.834C197.102 330.12 191.875 330.782 190.955 328.867Z" fill="#FFCFC2"/>
<path d="M210.89 299.85L206.286 317.085C205.968 318.26 206.396 319.546 207.297 320.143L209.976 321.934C211.156 322.726 212.647 322.038 213.088 320.5L218.387 301.797C218.841 300.194 217.913 298.506 216.506 298.376L213.134 298.052C212.122 297.954 211.195 298.701 210.89 299.85Z" fill="#828282"/>
<path d="M169.962 406.157C176.96 406.358 175.689 402.814 176.162 400.6C178.484 389.778 177.316 378.957 175.63 368.135C173.535 354.704 167.913 341.636 164.865 328.309C169.028 328.686 170.559 328.809 172.699 330.354C182.706 337.599 194.113 343.74 192.621 330.354C204.574 328.919 199.081 341.163 200.255 346.109C202.654 356.191 203.277 366.383 203.024 376.574C202.978 378.496 201.915 380.411 201.325 382.326C201.286 391.284 198.964 400.081 196.162 408.851C195.793 409.39 195.222 409.831 194.463 410.188C186.344 409.078 178.231 407.968 170.111 406.851C169.677 406.728 169.515 406.585 169.618 406.416C169.716 406.241 169.832 406.157 169.962 406.157Z" fill="#F4F4F4"/>
<path d="M273.46 365.714C271.773 358.08 265.197 349.972 260.813 344.142C252.687 333.334 241.098 324.719 229.963 318.403L225.968 323.564C224.879 324.654 224.23 325.329 222.992 325.096C224.191 327.342 225.164 329.471 225.923 330.88C228.433 335.534 231.014 340.195 233.945 344.506C237.078 349.108 241.261 354.594 245.32 358.093C234.542 350.842 223.121 344.662 212.168 337.722C207.914 335.028 201.928 330.438 196.882 330.347C190.793 330.244 196.376 340.176 197.038 343.389C199.483 355.184 198.4 368.473 197.207 380.502C196.013 392.55 192.68 407.085 192.116 409.221C190.799 414.2 191.895 412.291 194.081 414.693C194.697 415.368 196.123 416.206 197.557 416.66C198.562 416.978 205.884 415.641 206.558 415.433C210.774 414.122 208.543 403.891 209.548 399.659C211.26 392.44 210.534 386.546 211.241 379.106C211.377 377.652 210.877 375.756 211.928 375.133C213.004 374.504 216.331 376.445 217.298 376.847C223.919 379.606 230.32 382.995 236.909 385.87C245.69 389.707 256.274 391.525 265.288 386.656C273.135 382.43 275.483 374.854 273.46 365.714Z" fill="#AA0E19"/>
<path d="M230.21 319.292C230.339 318.994 230.3 318.656 230.112 318.377C228.018 315.358 218.27 302.297 212.142 305.011C210.955 305.536 210.663 306.309 210.605 306.478C209.321 310.126 216.325 318.338 222.713 324.933C222.959 325.187 223.322 325.316 223.692 325.271C224.801 325.141 226.993 324.563 228.569 322.019C229.152 321.09 229.866 320.104 230.21 319.292Z" fill="#FFCFC2"/>
<path d="M187.712 317.864C187.492 314.06 186.59 312.164 183.367 312.34L179.709 312.535C177.965 312.625 178.01 314.794 178.133 316.858L177.135 321.61C179.1 322.467 186.927 323.499 189.521 324.005L187.712 317.864Z" fill="#FFCFC2"/>
<path d="M190.864 328.549L189.528 324.005C186.934 323.492 179.106 322.46 177.141 321.61L176.259 325.797C177.115 326.128 178.756 328.731 181.292 329.854C183.315 330.744 185.89 330.977 187.777 330.503C190.365 329.854 191.013 329.205 190.864 328.549Z" fill="#DBB6AF"/>
<path d="M255.768 421.243C256.008 419.452 254.529 418.381 252.72 417.92C252.467 417.855 252.318 417.608 252.376 417.361C252.421 417.16 252.434 416.991 252.376 416.888C251.877 415.933 250.119 415.979 248.679 415.862C241.961 415.343 235.515 417.757 228.887 418.173C228.647 418.186 228.446 418.368 228.42 418.601L227.356 428.456C227.324 428.735 227.551 428.975 227.843 428.988C233.543 429.15 237.285 428.852 241.922 428.78C244.211 428.748 247.447 428.754 251.403 428.975C252.752 429.053 254.056 428.397 254.704 427.255C255.768 425.379 256.053 422.607 255.768 421.243Z" fill="#FFCFC2"/>
<path d="M219.574 432.169L141.181 431.319C128.651 431.208 124.981 425.191 124.838 417.608C124.806 415.862 128.6 399.568 131.615 387.111C133.781 378.159 136.57 369.362 139.962 360.774L148.425 339.332C148.503 339.085 148.587 338.845 148.671 338.605C151.817 329.932 159.878 327.258 167.011 328.556C170.578 329.205 172.984 332.561 174.45 336.885L183.147 362.52C183.445 363.39 183.951 364.786 184.547 366.422C187.375 374.212 187.103 383.242 183.782 391.441L178.737 403.106L217.914 411.831C227.149 413.811 233.439 417.829 230.45 418.309C225.949 419.023 239.367 431.221 223.971 432.169C222.479 432.266 221.079 432.189 219.574 432.169Z" fill="#AA0E19"/>
<path d="M169.709 331.308C169.21 330.828 165.727 328.439 166.719 328.439C168.71 328.439 173.691 329.874 175.682 331.782C177.44 333.47 179.346 335.898 179.664 336.56C181.194 339.721 181.817 340.526 183.25 343.772C184.781 347.239 185.17 351.062 186.071 354.691C188.438 364.247 189.969 372.108 190.812 376.672C190.812 376.672 193.263 390.032 191.441 398.133C191.104 399.633 190.793 399.263 189.282 403.385C188.808 404.677 188.341 405.268 187.667 405.579C186.668 406.047 185.449 405.871 184.041 405.657C182.128 405.358 180.812 404.846 180.163 404.612C178.62 404.054 177.712 404.183 173.14 403.177C168.328 402.119 163.581 401.405 158.678 400.652C154.339 399.983 154.787 400.6 150.785 399.185C150.104 398.945 150.267 398.841 150.286 398.231C150.299 397.887 151.486 396.595 151.778 396.316C153.178 394.998 153.937 393.128 154.767 391.538C157.258 386.76 156.259 385.799 157.258 381.502C158.859 374.588 161.557 367.843 162.485 361.04C162.556 360.534 162.705 356.398 164.307 358.021C164.787 358.508 164.236 360.3 164.223 360.787C164.21 361.183 164.275 361.371 164.21 361.761C163.483 366.357 162.31 370.914 160.649 375.38C157.737 383.215 159.463 392.2 152.77 398.717C157.322 399.633 156.045 399.256 160.701 399.834C163.016 400.12 165.345 400.288 167.64 400.665C170.027 401.061 170.338 401.08 172.686 401.58C173.659 401.788 174.184 401.905 175.176 402.061C175.727 402.145 177.628 402.184 178.166 402.061C178.724 401.937 178.97 401.619 179.184 401.171C179.456 400.613 179.735 400.061 180.053 399.529C180.572 398.672 180.935 397.815 181.253 396.958C181.739 395.647 182.018 394.271 182.135 392.882C182.725 385.812 182.479 378.723 183.004 371.641C183.069 370.79 183.069 369.94 183.049 369.083C183.043 368.746 183.27 367.201 182.945 366.973C182.414 366.603 180.163 369.765 178.419 368.862C177.232 368.246 177.485 365.766 177.375 364.922C177.226 363.753 177.07 362.591 177.005 361.417C176.797 357.742 176.233 354.1 175.98 350.426C175.818 348.018 175.572 346.823 175.429 345.94C174.048 337.43 171.46 332.996 169.709 331.308Z" fill="#700612"/>
<path d="M195.332 341.254C195.624 341.825 195.877 342.403 195.877 342.403C196.175 343.104 196.538 343.87 196.798 345.064C199.093 355.684 198.095 359.515 198.095 370.505C198.095 372.602 197.543 378.49 197.096 380.541C196.577 382.943 196.091 386.909 195.734 389.331C195.403 391.603 194.703 393.712 194.08 395.92C193.536 397.861 193.211 398.348 192.621 400.295C191.901 402.651 191.363 404.644 191.123 405.884C194.463 406.702 197.92 407.455 201.253 408.273C201.506 405.242 201.785 402.178 202.096 399.088C202.505 394.946 202.959 390.863 203.438 386.838C203.438 386.838 206.279 373.251 206.694 368.629C206.772 367.746 206.785 366.857 206.791 365.967C206.791 365.467 206.571 364.494 206.778 364.059C207.154 363.299 208.225 363.41 208.464 362.299C208.99 359.917 206.791 357.372 206.046 355.152C205.073 352.25 203.99 349.407 202.647 346.603C201.447 344.097 201.201 341.533 200.313 338.968C199.054 335.32 199.528 330.932 197.089 330.348C193.108 329.393 193.108 328.913 192.608 330.348C191.999 332.139 193.743 338.144 195.332 341.254Z" fill="#700612"/>
<path d="M224.794 417.147C223.257 418.433 223.958 420.906 224.36 422.542C224.807 424.36 225.676 426.781 224.892 428.579C224.684 429.06 224.749 429.624 225.242 429.91C225.657 430.15 226.364 430.046 226.571 429.559C227.499 427.437 226.999 425.126 226.468 422.957C226.241 422.042 225.936 420.971 225.845 420.127C225.819 419.913 225.806 419.699 225.806 419.491C225.806 419.393 225.813 419.296 225.819 419.192C225.839 418.978 225.787 419.303 225.839 419.082C225.858 418.997 225.877 418.913 225.91 418.829C225.968 418.653 225.877 418.894 225.929 418.79C225.942 418.764 226.085 418.563 226.014 418.647C225.942 418.731 226.15 418.53 226.176 418.511C226.578 418.173 226.526 417.485 226.176 417.134C225.774 416.745 225.196 416.81 224.794 417.147Z" fill="#700612"/>
<path d="M353.448 496.241C352.242 492.658 349.07 494.352 346.684 493.963C346.197 493.885 345.685 493.924 345.186 493.911C345.218 494.982 345.244 496.053 345.276 497.124C346.833 497.611 349.245 496.112 349.894 498.28C350.413 499.994 349.505 501.974 347.747 503.123C346.353 504.031 345.153 504.421 345.199 502C345.231 500.377 345.251 498.76 345.27 497.137C343.149 500.649 345.192 504.2 345.186 507.725C347.021 507.738 348.603 507.018 350.037 505.972C352.923 503.856 354.537 499.468 353.448 496.241Z" fill="#F9FBFA"/>
<path d="M345.179 507.725C344.829 513.671 343.526 514.944 337.507 514.989C335.114 515.009 332.715 514.898 330.322 514.749C326.91 514.535 325.438 512.47 325.419 509.231C325.386 503.408 325.49 497.585 325.38 491.769C325.328 488.919 326.619 487.945 329.29 488.029C332.572 488.133 335.867 488.055 339.148 488.055C344.894 488.055 344.894 488.055 345.179 493.917C345.886 494.716 346.068 495.657 345.932 496.689C345.893 497.085 345.808 497.475 345.692 497.851C345.328 499.968 345.309 502.084 345.75 504.181C346.022 505.453 346.107 506.66 345.179 507.725Z" fill="#F9FBFA"/>
<path d="M247.532 435.668H317.54C319.232 435.668 320.737 434.5 321.346 432.734L336.554 388.214C337.222 386.26 335.938 384.17 334.07 384.17H266.948C265.852 384.17 264.86 384.929 264.465 386.078L247.532 435.668Z" fill="#DBDBDB"/>
<path d="M213.595 432.675H249.023C249.575 432.675 250.022 433.104 250.022 433.636V434.714C250.022 435.239 249.575 435.674 249.023 435.674H211.999C211.636 435.674 211.344 435.395 211.344 435.045V434.837C211.351 433.643 212.362 432.675 213.595 432.675Z" fill="#DBDBDB"/>
<path d="M296.618 410.506C295.016 412.85 293.324 415.823 289.458 414.551C286.663 413.629 288.155 411.194 288.803 409.435C289.912 406.423 292.461 404.949 295.807 405.826C298.868 406.631 296.832 408.754 296.618 410.506Z" fill="#F7F9FA"/>
<path d="M453.119 451.897H379.337C377.255 451.897 375.55 450.19 375.55 448.106V397.257C375.55 395.173 377.255 393.466 379.337 393.466H453.119C455.201 393.466 456.906 395.173 456.906 397.257V448.106C456.906 450.19 455.201 451.897 453.119 451.897Z" fill="#DBDBDB"/>
<path d="M423.994 420.828C424.889 417.855 422.658 415.998 419.364 415.661C416.484 415.369 413.657 417.745 413.443 420.491C413.17 424.003 415.168 426.898 418.054 427.177C421.783 427.541 423.521 425.684 423.994 420.828Z" fill="#F7F9FA"/>
<path d="M171.625 305.897C173.125 305.747 174.122 303.422 173.85 300.703C173.578 297.985 172.142 295.903 170.642 296.053C169.141 296.203 168.145 298.529 168.417 301.247C168.688 303.965 170.125 306.047 171.625 305.897Z" fill="#FFCFC2"/>
<path d="M171.934 302.271C170.669 314.339 176.81 324.882 185.65 325.81C189.489 326.212 192.407 324.57 195.436 321.681C196.889 320.299 198.192 318.604 199.295 316.683C201.188 313.385 202.498 309.393 202.946 305.082C203.251 302.187 204.126 298.272 204.172 295.617C204.249 290.82 202.738 289.152 201.415 286.912C198.931 282.712 194.619 282.569 190.235 282.108C185.831 281.647 178.516 282.589 175.877 286.717C174.495 288.879 174.028 290.573 173.263 293.378C172.55 296.026 172.251 299.253 171.934 302.271Z" fill="#FFCFC2"/>
<path d="M204.548 300.11C204.496 300.421 204.133 300.571 203.873 300.389L200.695 297.87C200.488 297.805 200.267 297.799 200.053 297.87C198.808 298.273 197.492 298.286 196.247 297.916C194.599 297.422 194.93 296.929 193.224 297.169L192.239 297.305C191.889 297.357 191.538 297.377 191.188 297.364C190.838 297.351 188.899 290.372 188.549 290.307C188.276 290.255 187.524 297.5 187.265 297.416C185.384 297.111 181.817 287.412 181.817 287.412C181.823 287.367 181.759 287.354 181.746 287.399L173.704 297.429C173.211 297.961 172.4 298.078 171.804 297.662C171.661 297.558 171.564 297.448 171.57 297.331L171.687 294.241C172.251 285.387 179.424 278.577 187.615 279.103L190.559 279.291C198.756 279.817 205.002 287.483 204.437 296.338L204.327 298.039C204.321 298.136 204.301 298.227 204.262 298.312C204.191 298.493 204.184 298.695 204.249 298.876C204.386 299.253 204.587 299.882 204.548 300.11Z" fill="#5B453C"/>
<path d="M168.094 306.348C168.431 307.25 168.911 308.081 169.716 307.809C170.52 307.536 171.518 306.199 171.181 305.296C170.844 304.394 169.981 303.673 168.944 304.225C168.198 304.621 167.763 305.446 168.094 306.348Z" fill="#B22222"/>
<defs>
<linearGradient id="paint0_linear" x1="318.122" y1="415.243" x2="385.568" y2="415.243" gradientUnits="userSpaceOnUse">
<stop stop-color="#8C8C8C"/>
</linearGradient>
</defs>
</svg>
